<svg xmlns="http://www.w3.org/2000/svg" width="63" height="54" viewBox="0 0 63 54" version="1.1"><path d="M 44.500 1 C 44.840 1.550, 45.343 2, 45.618 2 C 45.893 2, 45.840 1.550, 45.500 1 C 45.160 0.450, 44.657 0, 44.382 0 C 44.107 0, 44.160 0.450, 44.500 1 M 16 1.500 C 16 1.775, 16.225 2, 16.500 2 C 16.775 2, 17 1.775, 17 1.500 C 17 1.225, 16.775 1, 16.500 1 C 16.225 1, 16 1.225, 16 1.500 M 43 2.500 C 43 2.775, 43.225 3, 43.500 3 C 43.775 3, 44 2.775, 44 2.500 C 44 2.225, 43.775 2, 43.500 2 C 43.225 2, 43 2.225, 43 2.500 M 17.333 3.667 C 17.700 4.033, 18.300 4.033, 18.667 3.667 C 19.033 3.300, 18.733 3, 18 3 C 17.267 3, 16.967 3.300, 17.333 3.667 M 46.500 4 C 46.840 4.550, 47.343 5, 47.618 5 C 47.893 5, 47.840 4.550, 47.500 4 C 47.160 3.450, 46.657 3, 46.382 3 C 46.107 3, 46.160 3.450, 46.500 4 M 14 4.500 C 14 4.775, 14.225 5, 14.500 5 C 14.775 5, 15 4.775, 15 4.500 C 15 4.225, 14.775 4, 14.500 4 C 14.225 4, 14 4.225, 14 4.500 M 21 4.500 C 21 4.775, 21.225 5, 21.500 5 C 21.775 5, 22 4.775, 22 4.500 C 22 4.225, 21.775 4, 21.500 4 C 21.225 4, 21 4.225, 21 4.500 M 44.500 5 C 44.840 5.550, 45.343 6, 45.618 6 C 45.893 6, 45.840 5.550, 45.500 5 C 45.160 4.450, 44.657 4, 44.382 4 C 44.107 4, 44.160 4.450, 44.500 5 M 16 5.500 C 16 5.775, 16.225 6, 16.500 6 C 16.775 6, 17 5.775, 17 5.500 C 17 5.225, 16.775 5, 16.500 5 C 16.225 5, 16 5.225, 16 5.500 M 19 5.500 C 19 5.775, 19.225 6, 19.500 6 C 19.775 6, 20 5.775, 20 5.500 C 20 5.225, 19.775 5, 19.500 5 C 19.225 5, 19 5.225, 19 5.500 M 22.880 7.283 C 23.312 7.714, 29.029 7.937, 35.583 7.779 L 47.500 7.491 34.796 6.995 C 27.809 6.723, 22.447 6.852, 22.880 7.283 M 48.500 7 C 48.840 7.550, 49.343 8, 49.618 8 C 49.893 8, 49.840 7.550, 49.500 7 C 49.160 6.450, 48.657 6, 48.382 6 C 48.107 6, 48.160 6.450, 48.500 7 M 12 7.500 C 12 7.775, 12.225 8, 12.500 8 C 12.775 8, 13 7.775, 13 7.500 C 13 7.225, 12.775 7, 12.500 7 C 12.225 7, 12 7.225, 12 7.500 M 20 7.500 C 20 7.775, 20.225 8, 20.500 8 C 20.775 8, 21 7.775, 21 7.500 C 21 7.225, 20.775 7, 20.500 7 C 20.225 7, 20 7.225, 20 7.500 M 14 8.500 C 14 8.775, 14.225 9, 14.500 9 C 14.775 9, 15 8.775, 15 8.500 C 15 8.225, 14.775 8, 14.500 8 C 14.225 8, 14 8.225, 14 8.500 M 10.405 10.155 C 9.962 10.870, 10.130 11.038, 10.845 10.595 C 11.998 9.883, 12.393 9, 11.559 9 C 11.316 9, 10.797 9.520, 10.405 10.155 M 20 9.500 C 20 9.775, 20.225 10, 20.500 10 C 20.775 10, 21 9.775, 21 9.500 C 21 9.225, 20.775 9, 20.500 9 C 20.225 9, 20 9.225, 20 9.500 M 22.651 9.750 C 22.395 10.162, 26.531 10.381, 31.842 10.235 C 48.956 9.765, 50.841 9.365, 36.809 9.180 C 29.279 9.081, 22.908 9.338, 22.651 9.750 M 12 11.500 C 12 11.775, 12.225 12, 12.500 12 C 12.775 12, 13 11.775, 13 11.500 C 13 11.225, 12.775 11, 12.500 11 C 12.225 11, 12 11.225, 12 11.500 M 18.405 12.155 C 17.962 12.870, 18.130 13.038, 18.845 12.595 C 19.998 11.883, 20.393 11, 19.559 11 C 19.316 11, 18.797 11.520, 18.405 12.155 M 8.405 13.155 C 7.962 13.870, 8.130 14.038, 8.845 13.595 C 9.480 13.203, 10 12.684, 10 12.441 C 10 11.607, 9.117 12.002, 8.405 13.155 M 10.405 14.155 C 9.962 14.870, 10.130 15.038, 10.845 14.595 C 11.480 14.203, 12 13.684, 12 13.441 C 12 12.607, 11.117 13.002, 10.405 14.155 M 20 13.500 C 20 13.775, 20.225 14, 20.500 14 C 20.775 14, 21 13.775, 21 13.500 C 21 13.225, 20.775 13, 20.500 13 C 20.225 13, 20 13.225, 20 13.500 M 16.405 15.155 C 15.962 15.870, 16.130 16.038, 16.845 15.595 C 17.998 14.883, 18.393 14, 17.559 14 C 17.316 14, 16.797 14.520, 16.405 15.155 M 21.577 19.719 C 17.800 25.756, 17.364 27, 19.022 27 C 19.584 27, 21.343 24.952, 22.930 22.449 C 25.793 17.934, 25.828 17.916, 27.344 20.081 C 28.717 22.042, 28.715 22.505, 27.322 24.632 C 25.485 27.435, 27.261 27.979, 30.040 25.464 C 31.378 24.253, 33.844 23.988, 41.676 24.214 L 51.615 24.500 45.290 34.250 L 38.966 44 25.483 44 C 18.067 44, 12 44.290, 12 44.645 C 12 45, 13.238 47.249, 14.750 49.643 L 17.500 53.996 31.231 53.998 L 44.962 54 51.449 44.004 C 55.017 38.506, 58.931 32.279, 60.146 30.167 L 62.357 26.326 58.033 20.163 L 53.710 14 39.432 14 L 25.154 14 21.577 19.719 M 6.405 16.155 C 5.962 16.870, 6.130 17.038, 6.845 16.595 C 7.480 16.203, 8 15.684, 8 15.441 C 8 14.607, 7.117 15.002, 6.405 16.155 M 18.405 16.155 C 17.962 16.870, 18.130 17.038, 18.845 16.595 C 19.998 15.883, 20.393 15, 19.559 15 C 19.316 15, 18.797 15.520, 18.405 16.155 M 8.405 17.155 C 7.962 17.870, 8.130 18.038, 8.845 17.595 C 9.998 16.883, 10.393 16, 9.559 16 C 9.316 16, 8.797 16.520, 8.405 17.155 M 29 17.378 C 29 20.427, 31.709 21.067, 43.413 20.783 L 55.043 20.500 53.465 18.250 C 51.985 16.140, 51.176 16, 40.443 16 C 31.390 16, 29 16.288, 29 17.378 M 14.405 18.155 C 13.962 18.870, 14.130 19.038, 14.845 18.595 C 15.998 17.883, 16.393 17, 15.559 17 C 15.316 17, 14.797 17.520, 14.405 18.155 M 5 18.500 C 5 18.775, 5.225 19, 5.500 19 C 5.775 19, 6 18.775, 6 18.500 C 6 18.225, 5.775 18, 5.500 18 C 5.225 18, 5 18.225, 5 18.500 M 16.405 19.155 C 15.962 19.870, 16.130 20.038, 16.845 19.595 C 17.480 19.203, 18 18.684, 18 18.441 C 18 17.607, 17.117 18.002, 16.405 19.155 M 7 19.500 C 7 19.775, 7.225 20, 7.500 20 C 7.775 20, 8 19.775, 8 19.500 C 8 19.225, 7.775 19, 7.500 19 C 7.225 19, 7 19.225, 7 19.500 M 13 20.500 C 13 20.775, 13.225 21, 13.500 21 C 13.775 21, 14 20.775, 14 20.500 C 14 20.225, 13.775 20, 13.500 20 C 13.225 20, 13 20.225, 13 20.500 M 3 21.500 C 3 21.775, 3.225 22, 3.500 22 C 3.775 22, 4 21.775, 4 21.500 C 4 21.225, 3.775 21, 3.500 21 C 3.225 21, 3 21.225, 3 21.500 M 14.405 22.155 C 13.962 22.870, 14.130 23.038, 14.845 22.595 C 15.480 22.203, 16 21.684, 16 21.441 C 16 20.607, 15.117 21.002, 14.405 22.155 M 5 22.500 C 5 22.775, 5.225 23, 5.500 23 C 5.775 23, 6 22.775, 6 22.500 C 6 22.225, 5.775 22, 5.500 22 C 5.225 22, 5 22.225, 5 22.500 M 1.405 24.155 C 0.962 24.870, 1.130 25.038, 1.845 24.595 C 2.480 24.203, 3 23.684, 3 23.441 C 3 22.607, 2.117 23.002, 1.405 24.155 M 11 23.500 C 11 23.775, 11.225 24, 11.500 24 C 11.775 24, 12 23.775, 12 23.500 C 12 23.225, 11.775 23, 11.500 23 C 11.225 23, 11 23.225, 11 23.500 M 13 24.500 C 13 24.775, 13.225 25, 13.500 25 C 13.775 25, 14 24.775, 14 24.500 C 14 24.225, 13.775 24, 13.500 24 C 13.225 24, 13 24.225, 13 24.500 M 48.116 34.674 C 42.069 44.008, 41.335 45.640, 42.261 47.674 C 42.844 48.953, 43.587 50, 43.912 50 C 45.297 50, 59.182 26.917, 58.643 25.511 C 57.364 22.180, 54.716 24.485, 48.116 34.674 M 3 25.500 C 3 25.775, 3.225 26, 3.500 26 C 3.775 26, 4 25.775, 4 25.500 C 4 25.225, 3.775 25, 3.500 25 C 3.225 25, 3 25.225, 3 25.500 M 9.405 26.155 C 8.962 26.870, 9.130 27.038, 9.845 26.595 C 10.998 25.883, 11.393 25, 10.559 25 C 10.316 25, 9.797 25.520, 9.405 26.155 M 0 26.500 C 0 26.775, 0.225 27, 0.500 27 C 0.775 27, 1 26.775, 1 26.500 C 1 26.225, 0.775 26, 0.500 26 C 0.225 26, 0 26.225, 0 26.500 M 2 27.500 C 2 27.775, 2.225 28, 2.500 28 C 2.775 28, 3 27.775, 3 27.500 C 3 27.225, 2.775 27, 2.500 27 C 2.225 27, 2 27.225, 2 27.500 M 11 27.500 C 11 27.775, 11.225 28, 11.500 28 C 11.775 28, 12 27.775, 12 27.500 C 12 27.225, 11.775 27, 11.500 27 C 11.225 27, 11 27.225, 11 27.500 M 35 27.500 C 35 27.775, 35.225 28, 35.500 28 C 35.775 28, 36 27.775, 36 27.500 C 36 27.225, 35.775 27, 35.500 27 C 35.225 27, 35 27.225, 35 27.500 M 0.500 29 C 0.840 29.550, 1.343 30, 1.618 30 C 1.893 30, 1.840 29.550, 1.500 29 C 1.160 28.450, 0.657 28, 0.382 28 C 0.107 28, 0.160 28.450, 0.500 29 M 6.559 29.532 C 5.491 30.339, 5.099 31, 5.686 31 C 6.274 31, 7.315 30.325, 8 29.500 C 9.557 27.624, 9.067 27.634, 6.559 29.532 M 32 28.500 C 32 28.775, 32.225 29, 32.500 29 C 32.775 29, 33 28.775, 33 28.500 C 33 28.225, 32.775 28, 32.500 28 C 32.225 28, 32 28.225, 32 28.500 M 40.405 29.155 C 39.962 29.870, 40.130 30.038, 40.845 29.595 C 41.998 28.883, 42.393 28, 41.559 28 C 41.316 28, 40.797 28.520, 40.405 29.155 M 9.998 30.250 C 9.999 30.663, 14.837 30.924, 20.750 30.832 C 31.670 30.661, 30.368 30.268, 17.248 29.773 C 13.259 29.623, 9.997 29.837, 9.998 30.250 M 33.336 30.567 C 33.005 31.429, 33.132 32.532, 33.617 33.017 C 34.128 33.528, 34.500 32.866, 34.500 31.450 C 34.500 28.611, 34.180 28.368, 33.336 30.567 M 42 30.500 C 42 30.775, 42.225 31, 42.500 31 C 42.775 31, 43 30.775, 43 30.500 C 43 30.225, 42.775 30, 42.500 30 C 42.225 30, 42 30.225, 42 30.500 M 2.500 32 C 2.840 32.550, 3.343 33, 3.618 33 C 3.893 33, 3.840 32.550, 3.500 32 C 3.160 31.450, 2.657 31, 2.382 31 C 2.107 31, 2.160 31.450, 2.500 32 M 39 31.500 C 39 31.775, 39.225 32, 39.500 32 C 39.775 32, 40 31.775, 40 31.500 C 40 31.225, 39.775 31, 39.500 31 C 39.225 31, 39 31.225, 39 31.500 M 12.292 32.742 C 16.027 32.935, 21.877 32.934, 25.292 32.739 C 28.706 32.545, 25.650 32.387, 18.500 32.389 C 11.350 32.390, 8.556 32.550, 12.292 32.742 M 40.405 33.155 C 39.962 33.870, 40.130 34.038, 40.845 33.595 C 41.998 32.883, 42.393 32, 41.559 32 C 41.316 32, 40.797 32.520, 40.405 33.155 M 7 34.500 C 7 34.775, 7.225 35, 7.500 35 C 7.775 35, 8 34.775, 8 34.500 C 8 34.225, 7.775 34, 7.500 34 C 7.225 34, 7 34.225, 7 34.500 M 32 34.500 C 32 34.775, 32.225 35, 32.500 35 C 32.775 35, 33 34.775, 33 34.500 C 33 34.225, 32.775 34, 32.500 34 C 32.225 34, 32 34.225, 32 34.500 M 37 34.500 C 37 34.775, 37.225 35, 37.500 35 C 37.775 35, 38 34.775, 38 34.500 C 38 34.225, 37.775 34, 37.500 34 C 37.225 34, 37 34.225, 37 34.500 M 5.500 36 C 5.840 36.550, 6.343 37, 6.618 37 C 6.893 37, 6.840 36.550, 6.500 36 C 6.160 35.450, 5.657 35, 5.382 35 C 5.107 35, 5.160 35.450, 5.500 36 M 35.500 36 C 35.840 36.550, 36.343 37, 36.618 37 C 36.893 37, 36.840 36.550, 36.500 36 C 36.160 35.450, 35.657 35, 35.382 35 C 35.107 35, 35.160 35.450, 35.500 36 M 39 35.500 C 39 35.775, 39.225 36, 39.500 36 C 39.775 36, 40 35.775, 40 35.500 C 40 35.225, 39.775 35, 39.500 35 C 39.225 35, 39 35.225, 39 35.500 M 33 37 C 33 37.733, 33.300 38.033, 33.667 37.667 C 34.033 37.300, 34.033 36.700, 33.667 36.333 C 33.300 35.967, 33 36.267, 33 37 M 9 37.500 C 9 37.775, 9.225 38, 9.500 38 C 9.775 38, 10 37.775, 10 37.500 C 10 37.225, 9.775 37, 9.500 37 C 9.225 37, 9 37.225, 9 37.500 M 37.405 38.155 C 36.962 38.870, 37.130 39.038, 37.845 38.595 C 38.998 37.883, 39.393 37, 38.559 37 C 38.316 37, 37.797 37.520, 37.405 38.155 M 7.500 39 C 7.840 39.550, 8.343 40, 8.618 40 C 8.893 40, 8.840 39.550, 8.500 39 C 8.160 38.450, 7.657 38, 7.382 38 C 7.107 38, 7.160 38.450, 7.500 39 M 17.592 49.500 C 19.181 51.925, 19.573 52, 30.638 52 L 42.046 52 40.408 49.500 C 38.819 47.075, 38.427 47, 27.362 47 L 15.954 47 17.592 49.500" stroke="none" fill="#f5b75f" fill-rule="evenodd"/><path d="M 8.798 13.707 L 0.096 27.392 4.428 33.446 L 8.760 39.500 22.630 39.759 L 36.500 40.019 40.287 33.880 C 42.370 30.504, 43.833 27.500, 43.537 27.204 C 42.855 26.522, 42.815 26.569, 39.234 32.257 L 36.239 37.014 34.485 34.337 C 33.059 32.161, 32.956 31.299, 33.935 29.733 C 35.642 27, 34.272 26.166, 32.420 28.810 C 31.007 30.828, 30.058 31, 20.336 31 C 7.989 31, 8.263 32.066, 17.100 18.424 L 23.206 9 36.651 9 L 50.096 9 47 4.500 L 43.904 0 30.702 0.011 L 17.500 0.022 8.798 13.707 M 21.500 5 L 23.051 8 35.082 8 L 47.113 8 45.341 5 L 43.569 2 31.759 2 L 19.949 2 21.500 5 M 9.786 15.293 C 2.257 27.207, 2.116 27.545, 3.935 29.371 C 4.960 30.401, 6.209 30.989, 6.710 30.679 C 7.212 30.369, 10.680 25.347, 14.417 19.520 C 20.861 9.471, 21.148 8.772, 19.984 5.962 C 19.309 4.333, 18.474 3.019, 18.129 3.043 C 17.783 3.067, 14.029 8.579, 9.786 15.293 M 7.659 35 L 9.431 38 21.716 38 C 28.472 38, 34 37.650, 34 37.223 C 34 36.795, 33.299 35.445, 32.443 34.223 C 30.976 32.127, 30.170 32, 18.387 32 L 5.887 32 7.659 35" stroke="none" fill="#34abdc" fill-rule="evenodd"/></svg>