<?xml version="1.0" encoding="UTF-8" standalone="no" ?>
<!DOCTYPE svg PUBLIC "-//W3C//DTD SVG 1.1//EN" "http://www.w3.org/Graphics/SVG/1.1/DTD/svg11.dtd">
<svg xmlns="http://www.w3.org/2000/svg" xmlns:xlink="http://www.w3.org/1999/xlink" version="1.1" width="640" height="480" viewBox="0 0 640 480" xml:space="preserve">
<desc>Created with Fabric.js 3.6.6</desc>
<defs>
</defs>
<g transform="matrix(1 0 0 1 326.5 229.5)"  >
<linearGradient id="SVGID_23" gradientUnits="userSpaceOnUse" gradientTransform="matrix(1 0 0 1 -65 -65)"  x1="19.5" y1="19.5" x2="110.5" y2="110.5">
<stop offset="0%" style="stop-color:rgba(148, 17, 192, 1);"/>
<stop offset="100%" style="stop-color:rgba(0, 0, 255, 1);"/>
</linearGradient>
<circle style="stroke: none; stroke-width: 1; stroke-dasharray: none; stroke-linecap: butt; stroke-dashoffset: 0; stroke-linejoin: miter; stroke-miterlimit: 4; fill: url(#SVGID_23); fill-rule: nonzero; opacity: 1;"  cx="0" cy="0" r="65" />
</g>
<g transform="matrix(0.84 0 0 0.84 326 227)"  >
<path style="stroke: rgb(0,0,0); stroke-width: 8; stroke-dasharray: none; stroke-linecap: butt; stroke-dashoffset: 0; stroke-linejoin: miter; stroke-miterlimit: 10; fill: none; fill-rule: evenodd; opacity: 1;" vector-effect="non-scaling-stroke"  transform=" translate(-59.83, -59.83)" d="m 0 59.82677 l 9.952638 -6.5662766 l -7.91409 -8.91803 l 11.312678 -3.7663116 l -5.3359585 -10.662767 l 11.902236 -0.7101288 l -2.3946476 -11.680401 l 11.680401 2.3946476 l 0.7101288 -11.902236 l 10.662767 5.3359585 l 3.7663116 -11.312678 l 8.91803 7.91409 l 6.5662766 -9.952638 l 6.5662804 9.952638 l 8.91803 -7.91409 l 3.7663116 11.312678 l 10.6627655 -5.3359585 l 0.7101288 11.902236 l 11.680397 -2.3946476 l -2.3946457 11.680401 l 11.902237 0.7101288 l -5.3359604 10.662767 l 11.312683 3.7663116 l -7.914093 8.91803 l 9.952637 6.5662766 l -9.952637 6.5662804 l 7.914093 8.91803 l -11.312683 3.7663116 l 5.3359604 10.6627655 l -11.902237 0.7101288 l 2.3946457 11.680397 l -11.680397 -2.3946457 l -0.7101288 11.902237 l -10.6627655 -5.3359604 l -3.7663116 11.312683 l -8.91803 -7.914093 l -6.5662804 9.952637 l -6.5662766 -9.952637 l -8.91803 7.914093 l -3.7663116 -11.312683 l -10.662767 5.3359604 l -0.7101288 -11.902237 l -11.680401 2.3946457 l 2.3946476 -11.680397 l -11.902236 -0.7101288 l 5.3359585 -10.6627655 l -11.312678 -3.7663116 l 7.91409 -8.91803 z" stroke-linecap="round" />
</g>
<g transform="matrix(1 0 0 1 343 227.47)" style=""  >
		<text xml:space="preserve" font-family="'Open Sans', sans-serif" font-size="18" font-style="normal" font-weight="normal" style="stroke: none; stroke-width: 1; stroke-dasharray: none; stroke-linecap: butt; stroke-dashoffset: 0; stroke-linejoin: miter; stroke-miterlimit: 4; fill: rgb(0,0,0); fill-rule: nonzero; opacity: 1; white-space: pre;" ><tspan x="-40" y="-6.14" >Since</tspan><tspan x="-40" y="17.45" >2009</tspan></text>
</g>
</svg>