<svg xmlns="http://www.w3.org/2000/svg" width="227" height="54" viewBox="0 0 227 54" version="1.1"><path d="M 21.577 19.719 C 17.800 25.756, 17.364 27, 19.022 27 C 19.584 27, 21.343 24.952, 22.930 22.449 C 25.793 17.934, 25.828 17.916, 27.344 20.081 C 28.717 22.042, 28.715 22.505, 27.322 24.632 C 25.485 27.435, 27.261 27.979, 30.040 25.464 C 31.378 24.253, 33.844 23.988, 41.676 24.214 L 51.615 24.500 45.290 34.250 L 38.966 44 25.483 44 C 18.067 44, 12 44.290, 12 44.645 C 12 45, 13.238 47.249, 14.750 49.643 L 17.500 53.996 31.231 53.998 L 44.962 54 51.449 44.004 C 55.017 38.506, 58.931 32.279, 60.146 30.167 L 62.357 26.326 58.033 20.163 L 53.710 14 39.432 14 L 25.154 14 21.577 19.719 M 29 17.378 C 29 20.427, 31.709 21.067, 43.413 20.783 L 55.043 20.500 53.465 18.250 C 51.985 16.140, 51.176 16, 40.443 16 C 31.390 16, 29 16.288, 29 17.378 M 48.116 34.674 C 42.069 44.008, 41.335 45.640, 42.261 47.674 C 42.844 48.953, 43.587 50, 43.912 50 C 45.297 50, 59.182 26.917, 58.643 25.511 C 57.364 22.180, 54.716 24.485, 48.116 34.674 M 17.592 49.500 C 19.181 51.925, 19.573 52, 30.638 52 L 42.046 52 40.408 49.500 C 38.819 47.075, 38.427 47, 27.362 47 L 15.954 47 17.592 49.500" stroke="none" fill="#f5a83f" fill-rule="evenodd"/><path d="" stroke="none" fill="#000000" fill-rule="evenodd"/><path d="" stroke="none" fill="#000000" fill-rule="evenodd"/><path d="M 9.057 12.532 C 4.578 19.425, 0.670 25.695, 0.375 26.466 C 0.079 27.236, 1.770 30.608, 4.133 33.959 L 8.430 40.051 22.904 39.776 L 37.378 39.500 40.685 34 C 44.209 28.138, 44.586 27, 43.002 27 C 42.453 27, 40.685 29.118, 39.074 31.706 L 36.145 36.413 34.970 33.833 C 34.086 31.894, 34.077 30.725, 34.932 29.126 C 35.868 27.378, 35.792 27, 34.504 27 C 33.642 27, 32.678 27.675, 32.362 28.500 C 31.901 29.702, 29.697 30, 21.286 30 C 13.084 30, 10.895 29.716, 11.285 28.701 C 11.559 27.986, 14.335 23.486, 17.455 18.701 L 23.126 10 36.563 10 C 45.042 10, 50 9.623, 50 8.979 C 50 8.417, 48.815 6.167, 47.367 3.979 L 44.734 0 30.968 0 L 17.203 0 9.057 12.532 M 21.592 4.500 C 23.181 6.925, 23.573 7, 34.638 7 L 46.046 7 44.408 4.500 C 42.819 2.075, 42.427 2, 31.362 2 L 19.954 2 21.592 4.500 M 10.152 15.541 C 5.932 22.150, 3.046 27.677, 3.371 28.524 C 4.654 31.867, 7.354 29.515, 13.924 19.335 C 19.951 9.995, 20.674 8.379, 19.743 6.335 C 19.158 5.051, 18.414 4.008, 18.089 4.017 C 17.765 4.026, 14.194 9.212, 10.152 15.541 M 67.500 7.195 C 64.692 8.787, 64.033 10.027, 64.015 13.750 C 63.988 19.444, 66.674 21, 76.531 21 C 83.526 21, 85.176 21.296, 85.694 22.645 C 86.874 25.721, 83.236 27, 73.309 27 C 64.046 27, 64 27.012, 64 29.500 L 64 32 75.045 32 C 85.439 32, 86.236 31.855, 88.545 29.545 C 91.491 26.600, 91.756 22.156, 89.177 18.970 C 87.618 17.045, 86.063 16.631, 78.438 16.110 C 71.107 15.608, 69.463 15.195, 69.194 13.786 C 68.905 12.271, 70.066 12.038, 79.184 11.786 L 89.500 11.500 89.816 8.750 L 90.133 6 79.816 6.030 C 74.027 6.047, 68.622 6.558, 67.500 7.195 M 98.247 18.067 C 94.261 24.705, 91 30.584, 91 31.134 C 91 31.683, 92.233 31.990, 93.740 31.816 C 96.021 31.553, 97.322 30.034, 101.490 22.767 C 104.246 17.963, 106.765 14.026, 107.089 14.017 C 107.586 14.003, 108.527 15.583, 110.801 20.250 C 111.002 20.663, 109.602 21, 107.690 21 C 105.435 21, 104 21.559, 103.604 22.590 C 102.588 25.237, 103.872 26, 109.343 26 C 114.089 26, 114.732 26.276, 116.341 29 C 117.985 31.784, 121.614 33.053, 123.251 31.416 C 124.343 30.324, 108.964 6, 107.181 6 C 106.091 6, 102.927 10.274, 98.247 18.067 M 126 19 L 126 32 128.500 32 L 131 32 131 19 L 131 6 128.500 6 L 126 6 126 19 M 134.477 8.250 C 134.169 9.488, 134.048 15.225, 134.208 21 C 134.499 31.456, 134.511 31.500, 137 31.500 C 139.446 31.500, 139.506 31.319, 139.794 23.045 L 140.088 14.590 148.378 23.400 C 159.832 35.571, 160.415 35.352, 160.780 18.738 L 161.060 6 158.530 6 C 156.017 6, 156 6.057, 156 14.729 L 156 23.458 147.230 14.729 C 138.206 5.747, 135.450 4.347, 134.477 8.250 M 170.247 18.067 C 166.261 24.705, 163 30.584, 163 31.134 C 163 31.683, 164.214 31.990, 165.698 31.816 C 167.920 31.556, 169.287 29.958, 173.448 22.762 C 176.227 17.957, 178.765 14.019, 179.089 14.012 C 179.586 14.002, 180.529 15.586, 182.801 20.250 C 183.002 20.663, 181.602 21, 179.690 21 C 176.446 21, 175 22.259, 175 25.082 C 175 25.587, 177.588 26.003, 180.750 26.006 C 186.087 26.012, 186.622 26.228, 188.203 29.006 C 189.396 31.102, 190.671 32, 192.453 32 C 193.854 32, 195 31.453, 195 30.785 C 195 30.116, 191.829 24.266, 187.953 17.785 C 183.355 10.095, 180.314 6, 179.200 6 C 178.086 6, 174.978 10.190, 170.247 18.067 M 198 19.070 C 198 32.051, 198.015 32.137, 200.250 31.820 C 202.384 31.516, 202.515 30.999, 202.786 21.750 L 203.072 12 211.017 12 C 218.669 12, 218.985 12.093, 219.593 14.513 C 220.624 18.624, 218.564 20, 211.378 20 C 205.241 20, 205 20.095, 205 22.500 C 205 24.830, 205.337 25, 209.949 25 C 214.430 25, 215.151 25.331, 217.568 28.500 C 219.691 31.284, 220.929 32, 223.619 32 C 225.478 32, 227 31.684, 227 31.298 C 227 30.911, 225.592 29.143, 223.872 27.368 L 220.744 24.141 222.872 21.436 C 225.993 17.468, 225.679 12.525, 222.077 8.923 C 219.215 6.061, 218.934 6, 208.577 6 L 198 6 198 19.070 M 8.248 35.250 C 9.632 37.338, 10.577 37.520, 21.370 37.782 C 28.246 37.948, 33 37.675, 33 37.114 C 33 33.293, 32.022 33, 19.271 33 L 6.756 33 8.248 35.250" stroke="none" fill="#26a5dc" fill-rule="evenodd"/><path d="M 9.057 12.532 C 4.578 19.425, 0.670 25.695, 0.375 26.466 C 0.079 27.236, 1.770 30.608, 4.133 33.959 L 8.430 40.051 22.904 39.776 L 37.378 39.500 40.685 34 C 44.209 28.138, 44.586 27, 43.002 27 C 42.453 27, 40.685 29.118, 39.074 31.706 L 36.145 36.413 34.970 33.833 C 34.086 31.894, 34.077 30.725, 34.932 29.126 C 35.868 27.378, 35.792 27, 34.504 27 C 33.642 27, 32.678 27.675, 32.362 28.500 C 31.901 29.702, 29.697 30, 21.286 30 C 13.084 30, 10.895 29.716, 11.285 28.701 C 11.559 27.986, 14.335 23.486, 17.455 18.701 L 23.126 10 36.563 10 C 45.042 10, 50 9.623, 50 8.979 C 50 8.417, 48.815 6.167, 47.367 3.979 L 44.734 0 30.968 0 L 17.203 0 9.057 12.532 M 21.592 4.500 C 23.181 6.925, 23.573 7, 34.638 7 L 46.046 7 44.408 4.500 C 42.819 2.075, 42.427 2, 31.362 2 L 19.954 2 21.592 4.500 M 10.152 15.541 C 5.932 22.150, 3.046 27.677, 3.371 28.524 C 4.654 31.867, 7.354 29.515, 13.924 19.335 C 19.951 9.995, 20.674 8.379, 19.743 6.335 C 19.158 5.051, 18.414 4.008, 18.089 4.017 C 17.765 4.026, 14.194 9.212, 10.152 15.541 M 67.500 7.195 C 64.692 8.787, 64.033 10.027, 64.015 13.750 C 63.988 19.444, 66.674 21, 76.531 21 C 83.526 21, 85.176 21.296, 85.694 22.645 C 86.874 25.721, 83.236 27, 73.309 27 C 64.046 27, 64 27.012, 64 29.500 L 64 32 75.045 32 C 85.439 32, 86.236 31.855, 88.545 29.545 C 91.491 26.600, 91.756 22.156, 89.177 18.970 C 87.618 17.045, 86.063 16.631, 78.438 16.110 C 71.107 15.608, 69.463 15.195, 69.194 13.786 C 68.905 12.271, 70.066 12.038, 79.184 11.786 L 89.500 11.500 89.816 8.750 L 90.133 6 79.816 6.030 C 74.027 6.047, 68.622 6.558, 67.500 7.195 M 98.247 18.067 C 94.261 24.705, 91 30.584, 91 31.134 C 91 31.683, 92.233 31.990, 93.740 31.816 C 96.021 31.553, 97.322 30.034, 101.490 22.767 C 104.246 17.963, 106.765 14.026, 107.089 14.017 C 107.586 14.003, 108.527 15.583, 110.801 20.250 C 111.002 20.663, 109.602 21, 107.690 21 C 105.435 21, 104 21.559, 103.604 22.590 C 102.588 25.237, 103.872 26, 109.343 26 C 114.089 26, 114.732 26.276, 116.341 29 C 117.985 31.784, 121.614 33.053, 123.251 31.416 C 124.343 30.324, 108.964 6, 107.181 6 C 106.091 6, 102.927 10.274, 98.247 18.067 M 126 19 L 126 32 128.500 32 L 131 32 131 19 L 131 6 128.500 6 L 126 6 126 19 M 134.477 8.250 C 134.169 9.488, 134.048 15.225, 134.208 21 C 134.499 31.456, 134.511 31.500, 137 31.500 C 139.446 31.500, 139.506 31.319, 139.794 23.045 L 140.088 14.590 148.378 23.400 C 159.832 35.571, 160.415 35.352, 160.780 18.738 L 161.060 6 158.530 6 C 156.017 6, 156 6.057, 156 14.729 L 156 23.458 147.230 14.729 C 138.206 5.747, 135.450 4.347, 134.477 8.250 M 170.247 18.067 C 166.261 24.705, 163 30.584, 163 31.134 C 163 31.683, 164.214 31.990, 165.698 31.816 C 167.920 31.556, 169.287 29.958, 173.448 22.762 C 176.227 17.957, 178.765 14.019, 179.089 14.012 C 179.586 14.002, 180.529 15.586, 182.801 20.250 C 183.002 20.663, 181.602 21, 179.690 21 C 176.446 21, 175 22.259, 175 25.082 C 175 25.587, 177.588 26.003, 180.750 26.006 C 186.087 26.012, 186.622 26.228, 188.203 29.006 C 189.396 31.102, 190.671 32, 192.453 32 C 193.854 32, 195 31.453, 195 30.785 C 195 30.116, 191.829 24.266, 187.953 17.785 C 183.355 10.095, 180.314 6, 179.200 6 C 178.086 6, 174.978 10.190, 170.247 18.067 M 198 19.070 C 198 32.051, 198.015 32.137, 200.250 31.820 C 202.384 31.516, 202.515 30.999, 202.786 21.750 L 203.072 12 211.017 12 C 218.669 12, 218.985 12.093, 219.593 14.513 C 220.624 18.624, 218.564 20, 211.378 20 C 205.241 20, 205 20.095, 205 22.500 C 205 24.830, 205.337 25, 209.949 25 C 214.430 25, 215.151 25.331, 217.568 28.500 C 219.691 31.284, 220.929 32, 223.619 32 C 225.478 32, 227 31.684, 227 31.298 C 227 30.911, 225.592 29.143, 223.872 27.368 L 220.744 24.141 222.872 21.436 C 225.993 17.468, 225.679 12.525, 222.077 8.923 C 219.215 6.061, 218.934 6, 208.577 6 L 198 6 198 19.070 M 8.248 35.250 C 9.632 37.338, 10.577 37.520, 21.370 37.782 C 28.246 37.948, 33 37.675, 33 37.114 C 33 33.293, 32.022 33, 19.271 33 L 6.756 33 8.248 35.250" stroke="none" fill="#26a5dc" fill-rule="evenodd"/><path d="" stroke="none" fill="#000000" fill-rule="evenodd"/><path d="M 64.627 39.282 C 63.307 40.248, 62.958 41.293, 63.445 42.826 C 63.999 44.572, 64.908 45, 68.067 45 C 70.230 45, 72 45.450, 72 46 C 72 46.550, 69.938 47, 67.417 47 C 64.194 47, 62.957 47.371, 63.250 48.250 C 63.895 50.184, 73.041 49.883, 74.300 47.886 C 76.137 44.974, 74.413 43, 70.031 43 C 67.814 43, 66 42.550, 66 42 C 66 41.450, 68.063 41, 70.583 41 C 73.803 41, 75.044 40.628, 74.756 39.750 C 74.172 37.975, 66.874 37.637, 64.627 39.282 M 85.392 40.517 C 82.663 43.246, 82.816 46.411, 85.792 48.750 C 89.668 51.797, 97 48.689, 97 44 C 97 41.212, 93.496 38, 90.455 38 C 89.055 38, 86.777 39.132, 85.392 40.517 M 105.430 39.322 C 105.124 40.119, 105.015 42.735, 105.187 45.136 L 105.500 49.500 110.250 49.805 C 114.011 50.046, 115 49.786, 115 48.555 C 115 47.445, 113.999 47, 111.500 47 C 108.092 47, 108 46.896, 108 43.059 C 108 39.020, 106.425 36.729, 105.430 39.322 M 123.683 38.650 C 122.378 39.955, 123.005 46.862, 124.571 48.429 C 126.473 50.330, 130.967 50.476, 133.377 48.714 C 134.701 47.745, 135.057 46.325, 134.818 42.964 C 134.412 37.261, 132.597 37.156, 132.190 42.811 C 131.900 46.837, 131.702 47.101, 129.190 46.811 C 126.917 46.548, 126.450 45.958, 126.179 43 C 125.839 39.296, 124.817 37.516, 123.683 38.650 M 143.713 38.621 C 142.402 39.931, 142.980 41, 145 41 C 146.709 41, 147 41.667, 147 45.583 C 147 51.485, 149.368 51.139, 149.807 45.172 C 150.060 41.750, 150.479 41, 152.141 41 C 153.314 41, 153.994 40.474, 153.755 39.750 C 153.310 38.398, 144.883 37.450, 143.713 38.621 M 162.683 38.650 C 162.308 39.026, 162 41.771, 162 44.750 C 162 51.716, 164.359 51.534, 164.810 44.532 C 165.108 39.920, 164.127 37.206, 162.683 38.650 M 177 38.694 C 172.882 40.166, 171.871 44.871, 175 48 C 178.923 51.923, 187 49.231, 187 44 C 187 39.766, 181.768 36.990, 177 38.694 M 195.430 39.322 C 195.124 40.119, 195.015 42.700, 195.187 45.058 C 195.564 50.224, 198 51.808, 198 46.887 L 198 43.608 201.502 47.002 C 205.821 51.188, 207.244 50.220, 206.810 43.390 C 206.463 37.924, 204.769 37.182, 204 42.159 L 203.500 45.397 200.988 42.405 C 197.619 38.392, 196.108 37.554, 195.430 39.322 M 216.623 39.520 C 215.730 40.413, 215 41.471, 215 41.871 C 215 43.550, 217.615 45, 220.641 45 C 225.849 45, 225.539 46.857, 220.275 47.194 C 214.792 47.545, 213.845 49.342, 218.888 49.824 C 224.798 50.388, 227.170 49.308, 226.813 46.215 C 226.542 43.867, 225.993 43.458, 222.750 43.190 C 217.691 42.771, 217.960 41, 223.083 41 C 228.514 41, 227.842 38.611, 222.295 38.199 C 219.570 37.996, 217.715 38.428, 216.623 39.520 M 87.105 42.373 C 86.478 43.129, 86.256 44.503, 86.610 45.427 C 87.531 47.825, 93.356 47.175, 93.840 44.620 C 94.459 41.359, 89.358 39.658, 87.105 42.373 M 177.105 42.373 C 176.478 43.129, 176.256 44.503, 176.610 45.427 C 177.531 47.825, 183.356 47.175, 183.840 44.620 C 184.459 41.359, 179.358 39.658, 177.105 42.373" stroke="none" fill="#f4a93f" fill-rule="evenodd"/><path d="" stroke="none" fill="#f4ab3c" fill-rule="evenodd"/><path d="M 197.385 19 C 197.385 25.875, 197.545 28.688, 197.740 25.250 C 197.936 21.813, 197.936 16.188, 197.740 12.750 C 197.545 9.313, 197.385 12.125, 197.385 19 M 69.250 26.735 C 71.862 26.941, 76.138 26.941, 78.750 26.735 C 81.362 26.529, 79.225 26.360, 74 26.360 C 68.775 26.360, 66.638 26.529, 69.250 26.735" stroke="none" fill="#24a4dc" fill-rule="evenodd"/></svg>