<svg version="1.1" id="Layer_1" xmlns="http://www.w3.org/2000/svg" xmlns:xlink="http://www.w3.org/1999/xlink" x="0px" y="0px"
	 width="100%" viewBox="0 0 1200 1200" enable-background="new 0 0 1200 1200" xml:space="preserve">
<path fill="#000000" opacity="1.000000" stroke="none" 
	d="
M641.000000,1201.000000 
	C427.333344,1201.000000 214.166672,1201.000000 1.000000,1201.000000 
	C1.000000,801.000000 1.000000,401.000000 1.000000,1.000000 
	C401.000000,1.000000 801.000000,1.000000 1201.000000,1.000000 
	C1201.000000,401.000000 1201.000000,801.000000 1201.000000,1201.000000 
	C1014.500000,1201.000000 828.000000,1201.000000 641.000000,1201.000000 
M361.048737,481.999756 
	C358.394135,481.970978 355.739502,481.942230 353.008057,481.060730 
	C353.008057,479.383148 353.008057,477.705536 353.008057,474.272217 
	C347.792145,477.470428 343.941742,479.831360 339.167847,482.023590 
	C335.124268,482.002197 331.080658,481.980804 327.001617,481.200836 
	C324.687958,481.525818 322.374298,481.850830 319.130981,481.997284 
	C312.537323,481.997284 305.943634,481.997284 299.954071,481.997284 
	C295.104126,490.026367 290.537811,497.585907 285.272491,505.012024 
	C284.484894,505.536865 283.594330,505.955109 282.924805,506.602112 
	C267.434784,521.572754 258.671112,540.107910 253.891586,561.570923 
	C251.323029,565.890442 248.460007,570.071716 246.335175,574.599426 
	C245.518951,576.338745 245.814972,579.104797 246.598816,580.989258 
	C248.457047,585.456604 250.910355,589.676453 253.276733,594.802795 
	C253.846313,597.607666 254.372040,600.422241 254.992523,603.215759 
	C259.127625,621.832947 268.306641,637.835754 280.732697,652.051636 
	C282.124146,653.643494 284.852112,654.067200 287.208069,655.702820 
	C291.336243,663.108521 295.464447,670.514221 299.553650,677.850037 
	C306.498749,677.850037 313.266846,677.850037 320.725647,678.158752 
	C322.842834,678.820496 325.017761,682.515991 327.960419,678.000122 
	C332.002533,677.939209 336.044647,677.878296 340.709320,678.137146 
	C344.184662,681.224121 347.527496,684.618530 353.098541,683.835205 
	C353.098541,681.596252 353.098541,679.814209 353.981812,677.999268 
	C356.637482,678.012695 359.293182,678.026123 361.994568,678.869873 
	C361.786255,681.988892 362.124023,685.248779 366.304016,683.727356 
	C369.500519,682.563904 372.195984,680.023987 376.022644,678.018616 
	C380.002747,678.025330 383.982880,678.031982 388.000153,678.817078 
	C390.790161,681.859131 392.708588,678.603394 395.901398,678.015198 
	C401.053619,678.008179 406.225739,677.723511 411.351227,678.089966 
	C414.872894,678.341797 416.669952,676.802551 418.111206,673.998108 
	C421.372955,667.651306 424.725037,661.351013 428.734894,655.006348 
	C430.024597,654.644287 431.800476,654.697693 432.523621,653.851501 
	C436.623413,649.053833 440.860443,644.298096 444.329193,639.051086 
	C453.355042,625.398010 460.135925,610.803894 461.721985,593.796570 
	C464.726898,588.412109 467.731812,583.027710 470.729065,577.649353 
	C467.180054,571.735535 463.631042,565.821655 459.980316,559.065186 
	C458.762848,554.296448 457.813751,549.439148 456.275665,544.776123 
	C452.274628,532.646484 445.867798,521.782532 437.513855,512.189514 
	C435.003143,509.306427 431.274567,507.483856 428.000122,504.421875 
	C424.818817,498.610168 421.501984,492.867340 418.502502,486.963287 
	C416.403412,482.831573 413.457733,481.383636 408.834930,481.904968 
	C404.247101,482.422272 399.566864,482.120117 394.172974,482.058105 
	C392.711365,481.477966 391.284546,480.726929 389.767700,480.418243 
	C389.290588,480.321106 388.571869,481.411469 387.039978,481.999237 
	C382.990448,482.061554 378.940918,482.123871 374.274841,481.855896 
	C372.459045,480.562469 370.777344,478.996155 368.802795,478.025879 
	C362.434631,474.896667 362.107025,475.146698 361.048737,481.999756 
M544.111145,617.640625 
	C542.074829,615.297913 538.048828,612.496155 538.459167,610.717957 
	C539.106873,607.910828 542.466248,604.125977 545.148010,603.697632 
	C552.654968,602.498657 560.471252,602.050415 568.035583,602.737122 
	C575.319458,603.398376 582.374268,605.915466 581.114380,615.741089 
	C583.264771,615.741089 585.001038,615.741089 586.765503,615.741089 
	C586.765503,609.386902 586.765503,603.294128 586.765503,597.178650 
	C584.743591,597.178650 582.957764,597.178650 581.193604,597.178650 
	C581.048767,598.446960 580.924316,599.536194 580.880859,599.916748 
	C575.736877,598.913696 570.684692,598.042725 565.686340,596.929871 
	C555.590698,594.682373 546.173950,596.398254 536.968628,600.933716 
	C530.339233,604.199951 529.942139,617.297729 536.307312,620.583862 
	C540.806824,622.906860 545.735413,624.533997 550.626404,625.934143 
	C559.544434,628.487000 568.587646,630.599792 577.556274,632.980469 
	C581.357239,633.989380 584.809021,636.635803 583.671570,640.401245 
	C582.769897,643.386169 579.414673,646.607971 576.391907,647.792358 
	C566.995422,651.473999 557.050049,650.624573 547.418274,648.650330 
	C538.741821,646.871765 537.084534,644.134094 536.990417,635.164551 
	C536.983765,634.539185 536.868347,633.914978 536.795410,633.211914 
	C534.816345,633.211914 533.078186,633.211914 531.199829,633.211914 
	C531.199829,640.180725 531.199829,646.937012 531.199829,654.862183 
	C534.019531,653.689392 536.254089,652.759949 537.604126,652.198425 
	C543.960022,653.178284 549.971252,654.026367 555.953369,655.045166 
	C565.647400,656.696106 574.891174,655.252258 583.679199,651.013550 
	C590.978638,647.492859 593.801758,636.742249 586.259216,630.967957 
	C582.793274,628.314636 578.518738,626.318542 574.299438,625.129150 
	C564.576721,622.388245 554.663330,620.323303 544.111145,617.640625 
M582.267944,544.024292 
	C576.603210,542.349304 570.955139,540.615417 565.269653,539.014221 
	C558.036194,536.977173 550.647278,535.397095 543.593384,532.871643 
	C541.297424,532.049683 538.257263,528.757263 538.407837,526.815857 
	C538.591187,524.451599 541.347412,521.296082 543.751953,520.274292 
	C552.114685,516.720642 560.974243,517.273743 569.707458,519.029907 
	C578.466980,520.791443 580.434570,523.063904 581.410339,531.808228 
	C583.140137,531.808228 584.885010,531.808228 586.812378,531.808228 
	C586.812378,525.525696 586.812378,519.434692 586.812378,513.171997 
	C584.857483,513.171997 583.089294,513.171997 581.258789,513.171997 
	C581.058838,514.392212 580.875488,515.511169 580.807861,515.923889 
	C575.433289,514.821411 570.425903,513.770874 565.408630,512.770020 
	C555.322693,510.757965 545.658630,512.118713 536.706970,517.109131 
	C530.003418,520.846252 529.860962,533.117676 536.606506,536.739319 
	C541.047302,539.123535 546.066772,540.554993 550.960388,541.943542 
	C559.887451,544.476624 568.941772,546.558716 577.883972,549.041565 
	C581.402527,550.018494 584.730591,552.645020 583.702759,556.253845 
	C582.861328,559.208130 579.877136,562.749451 577.047241,563.726562 
	C566.484558,567.373901 555.530151,566.879761 544.854797,563.865417 
	C538.475586,562.064148 537.052917,559.478088 536.987488,552.821228 
	C536.975098,551.558289 536.801392,550.296936 536.711182,549.150024 
	C534.697937,549.150024 533.069763,549.150024 531.311646,549.150024 
	C531.311646,556.177551 531.311646,563.052368 531.311646,571.055115 
	C534.115417,569.771057 536.232971,568.801270 538.838379,567.608093 
	C551.990417,573.058716 566.280640,573.026855 580.608643,568.686401 
	C586.711243,566.837646 590.611816,562.073853 590.764404,555.828491 
	C590.886475,550.832397 587.716492,546.740784 582.267944,544.024292 
M916.735535,653.999878 
	C923.692505,653.999878 930.649475,653.999878 937.649597,653.999878 
	C937.649597,652.123962 937.649597,650.616577 937.649597,648.711670 
	C934.563965,648.711670 931.827515,648.711670 929.000000,648.711670 
	C929.000000,641.492920 928.717407,634.663696 929.066895,627.866943 
	C929.577759,617.932373 923.476990,612.712646 913.992432,613.268982 
	C906.876282,613.686462 899.904114,616.558594 893.265930,618.237305 
	C894.071899,614.545044 891.435730,613.551453 887.104431,613.942017 
	C883.844727,614.235840 880.537231,614.000000 877.229614,614.000000 
	C877.229614,616.216003 877.229614,617.953613 877.229614,620.072021 
	C880.191406,620.072021 882.946228,620.072021 885.780640,620.072021 
	C885.780640,629.861694 885.780640,639.262756 885.780640,649.041931 
	C882.820312,649.041931 880.071594,649.041931 877.191650,649.041931 
	C877.191650,650.826233 877.191650,652.227112 877.191650,653.810669 
	C885.463196,653.810669 893.544556,653.810669 901.637329,653.810669 
	C901.637329,652.090271 901.637329,650.588135 901.637329,648.875610 
	C898.659058,648.875610 896.042664,648.875610 893.000000,648.875610 
	C893.000000,643.719299 893.000000,638.771179 893.000000,633.822998 
	C893.000000,626.276611 895.031921,623.485168 902.313171,621.006348 
	C903.961426,620.445251 905.577698,619.778625 907.247437,619.294189 
	C914.952454,617.059082 922.572266,620.556519 922.907288,626.862122 
	C923.292786,634.116577 922.996765,641.407227 922.996765,649.052368 
	C919.809937,649.052368 917.061279,649.052368 913.016479,649.052368 
	C914.226379,651.214233 915.005127,652.605652 916.735535,653.999878 
M689.000000,558.422974 
	C689.000000,560.531128 689.000000,562.639282 689.000000,565.112366 
	C685.748779,565.112366 682.989868,565.112366 680.231873,565.112366 
	C680.231873,566.890503 680.231873,568.291504 680.231873,569.781433 
	C688.544983,569.781433 696.625793,569.781433 704.791748,569.781433 
	C704.791748,568.157166 704.791748,566.753662 704.791748,564.968262 
	C701.847839,564.968262 699.102051,564.968262 696.687927,564.968262 
	C696.262878,564.457153 696.066711,564.331360 696.065857,564.204285 
	C696.032776,559.378967 696.007996,554.553589 696.002197,549.728210 
	C695.993530,542.579651 698.217163,539.401733 704.910095,537.028748 
	C706.701782,536.393433 708.505249,535.778259 710.333679,535.261536 
	C717.838135,533.140808 725.448975,536.399719 725.868652,542.456543 
	C726.381226,549.854309 725.990662,557.314636 725.990662,565.112427 
	C722.746277,565.112427 719.995361,565.112427 717.231934,565.112427 
	C717.231934,566.898499 717.231934,568.294861 717.231934,570.000000 
	C721.255005,570.000000 725.055115,570.000000 728.855286,570.000000 
	C732.810547,570.000000 736.765808,570.000000 740.791138,570.000000 
	C740.791138,568.151550 740.791138,566.748962 740.791138,564.967102 
	C737.846558,564.967102 735.100830,564.967102 732.000000,564.967102 
	C732.000000,557.970764 731.467468,551.300232 732.111145,544.745239 
	C733.437439,531.238159 721.259155,527.291870 711.993347,529.575867 
	C706.544006,530.919128 701.315918,533.160339 697.018494,534.642395 
	C695.688171,533.112000 694.502075,530.446960 692.951782,530.214966 
	C688.772705,529.589417 684.438354,530.001038 680.274536,530.001038 
	C680.274536,532.289551 680.274536,534.030518 680.274536,536.155457 
	C683.286743,536.155457 686.029053,536.155457 689.000000,536.155457 
	C689.000000,543.509033 689.000000,550.473450 689.000000,558.422974 
M615.510132,571.999695 
	C622.345459,570.386658 629.180725,568.773560 635.928406,567.181213 
	C635.964478,567.543701 636.076050,568.665344 636.186707,569.777527 
	C641.166504,569.777527 645.942993,569.777527 650.785156,569.777527 
	C650.785156,568.147766 650.785156,566.742981 650.785156,564.952576 
	C647.832336,564.952576 645.084778,564.952576 642.000000,564.952576 
	C642.000000,557.941956 642.039978,551.314026 641.989014,544.686768 
	C641.935486,537.720337 638.420471,533.186035 631.896729,530.922607 
	C625.049072,528.546753 618.145081,528.757751 611.289001,530.342529 
	C606.364685,531.480896 602.589417,534.371948 600.574158,540.507446 
	C603.217285,540.352966 606.297119,541.055603 607.165710,539.977234 
	C612.317627,533.580872 619.286743,534.886658 625.873657,535.087158 
	C632.251953,535.281311 634.704285,537.855713 635.359314,542.919922 
	C625.922668,544.622864 616.468506,546.039612 607.162903,548.120728 
	C601.892578,549.299561 597.664551,555.507812 598.001465,560.055298 
	C598.413757,565.618347 602.604797,570.029053 608.397278,570.987976 
	C610.473450,571.331726 612.551819,571.661316 615.510132,571.999695 
M774.522461,529.999817 
	C765.960999,528.577393 757.660828,528.518188 751.164612,535.504883 
	C750.240112,536.499268 750.372559,538.476379 750.015808,539.998657 
	C751.999390,539.771912 754.113708,539.894348 755.927979,539.215271 
	C757.575256,538.598633 758.789307,536.373596 760.380615,536.142944 
	C765.212708,535.442505 770.172791,534.841248 775.011841,535.189575 
	C779.951355,535.545105 782.923340,539.525391 782.644958,542.923645 
	C773.385864,544.645386 764.270935,546.026978 755.321411,548.117004 
	C749.561340,549.462280 746.142761,554.100281 746.000000,559.002319 
	C745.765442,567.056091 755.019531,573.804688 764.012085,571.935120 
	C770.254028,570.637390 776.426208,569.004333 782.515747,567.548279 
	C783.030090,568.202454 783.695679,569.831299 784.439514,569.867920 
	C789.207764,570.102539 793.993164,569.987610 798.765259,569.987610 
	C798.765259,568.110229 798.765259,566.705994 798.765259,564.918335 
	C795.462158,564.918335 792.378906,564.918335 789.000000,564.918335 
	C789.000000,557.745911 788.443237,550.900269 789.135864,544.183533 
	C790.078430,535.042542 782.553589,530.216125 774.522461,529.999817 
M944.842102,619.679321 
	C942.644409,626.988220 945.799805,632.322510 953.478333,633.969055 
	C960.234253,635.417786 967.126709,636.336487 973.755127,638.210083 
	C975.842163,638.800049 978.615784,641.719543 978.618347,643.576355 
	C978.620911,645.406311 975.704407,648.524414 973.729492,648.821350 
	C968.720520,649.574524 963.516418,649.206238 958.399963,649.022095 
	C952.167908,648.797913 948.346252,645.870972 948.815308,638.938965 
	C946.622375,639.048218 944.890625,639.134460 943.260376,639.215698 
	C943.260376,644.386597 943.260376,649.149719 943.260376,654.404053 
	C946.149597,653.759827 949.137024,652.043640 951.117126,652.838135 
	C958.774536,655.910583 966.500671,656.051575 974.414917,654.980591 
	C982.352966,653.906372 987.232849,647.554077 984.885925,640.620544 
	C983.063477,635.236389 978.245056,633.061035 972.909180,631.984802 
	C966.781006,630.748901 960.596863,629.667175 954.611511,627.920654 
	C952.783997,627.387451 951.532227,624.881104 950.016785,623.278442 
	C952.008240,621.852600 953.835205,619.645142 956.029602,619.183533 
	C959.351868,618.484436 962.932922,618.906250 966.398560,619.019165 
	C974.129333,619.271118 976.424683,621.332947 977.476379,628.776978 
	C978.881409,628.776978 980.289368,628.776978 981.806519,628.776978 
	C981.806519,623.785339 981.806519,619.017639 981.806519,613.795837 
	C979.209839,614.313110 976.879089,615.210571 974.591125,615.112061 
	C972.270203,615.012024 970.021240,613.517639 967.689209,613.349976 
	C959.582581,612.767151 951.301147,611.878601 944.842102,619.679321 
M724.356934,620.004517 
	C724.796509,620.158691 725.617371,620.305115 725.620728,620.468140 
	C725.761963,627.426208 725.856201,634.385742 725.854675,641.345093 
	C725.854553,641.851501 725.188599,642.499634 724.672974,642.842224 
	C719.441101,646.319336 714.303894,649.821167 707.591919,650.058472 
	C697.164917,650.427307 697.196594,647.050842 695.069946,639.923279 
	C694.704285,638.697815 695.001221,637.273071 695.000916,635.940430 
	C694.999084,628.680969 695.000000,621.421570 695.000000,614.290039 
	C689.628784,614.290039 684.876343,614.290039 679.946716,614.290039 
	C680.044800,616.336792 680.128540,618.082886 680.230164,620.204407 
	C683.336670,620.204407 686.076660,620.204407 689.000000,620.204407 
	C689.000000,627.079407 688.811340,633.564270 689.042480,640.034119 
	C689.425842,650.764954 694.175415,655.668762 705.032837,655.938538 
	C712.841797,656.132629 719.647766,652.912109 726.224365,647.993408 
	C726.224365,650.279175 726.224365,652.031738 726.224365,653.744568 
	C731.278809,653.744568 736.042664,653.744568 740.743164,653.744568 
	C740.743164,652.068115 740.743164,650.663635 740.743164,648.876587 
	C737.748840,648.876587 735.005737,648.876587 731.879639,648.876587 
	C731.879639,637.079346 731.879639,625.670837 731.879639,614.248230 
	C726.729004,614.248230 721.979736,614.248230 717.248779,614.248230 
	C717.248779,616.242065 717.248779,617.983704 717.248779,620.000244 
	C719.465332,620.000244 721.436829,620.000244 724.356934,620.004517 
M598.000061,635.374268 
	C598.927002,645.442566 604.013611,652.342102 614.036194,654.377014 
	C619.136108,655.412598 624.616150,655.402649 629.830139,654.895630 
	C645.657898,653.356628 651.714722,642.303162 648.343445,628.061523 
	C647.542053,624.675781 644.991394,621.106262 642.225159,618.900635 
	C635.164551,613.270935 626.933167,612.301392 617.985901,613.892822 
	C603.073425,616.545288 599.521606,622.461304 598.000061,635.374268 
M856.476562,654.061584 
	C865.648865,652.476562 870.526855,646.479980 871.860229,637.812622 
	C872.925476,630.888428 870.961792,621.630615 862.856079,617.302246 
	C855.126892,613.174805 847.020569,612.573181 838.534424,613.978271 
	C829.324341,615.503235 821.683411,622.978943 820.935547,630.733887 
	C819.673218,643.824585 825.944519,651.805725 836.258850,654.236694 
	C842.946289,655.812927 849.301453,655.915710 856.476562,654.061584 
M759.000000,627.558594 
	C759.000000,625.123169 759.000000,622.687683 759.000000,619.884094 
	C768.273376,619.884094 777.023071,619.884094 785.754700,619.884094 
	C785.754700,617.764038 785.754700,616.026611 785.754700,613.904114 
	C776.775085,613.904114 768.033020,613.904114 758.917358,613.904114 
	C758.917358,609.436401 758.917358,605.344543 758.917358,601.227661 
	C756.792603,601.227661 755.055298,601.227661 752.929749,601.227661 
	C752.929749,605.526428 752.929749,609.615051 752.929749,614.062500 
	C749.127258,614.062500 745.710327,614.062500 742.215576,614.062500 
	C742.215576,616.186707 742.215576,617.924255 742.215576,620.049683 
	C745.832336,620.049683 749.254822,620.049683 753.000000,620.049683 
	C753.000000,628.055603 752.872375,635.678833 753.050659,643.294922 
	C753.148376,647.473755 754.205139,651.508362 758.704773,653.164612 
	C768.754578,656.863647 778.539551,656.065002 788.669678,651.276001 
	C787.499817,649.171265 786.621887,647.591797 785.743958,646.012268 
	C785.660400,646.498108 785.576843,646.983887 785.493286,647.469727 
	C779.491638,648.313049 773.508362,649.630859 767.483093,649.864258 
	C761.612244,650.091675 759.040100,646.920593 759.004822,641.026733 
	C758.979980,636.864929 759.000000,632.702820 759.000000,627.558594 
M835.012939,535.019531 
	C836.597778,535.602722 838.182617,536.185852 840.052673,536.874023 
	C840.773865,534.913879 841.406555,533.194092 842.028198,531.504517 
	C831.873779,526.314026 823.923828,530.921448 815.866943,537.180847 
	C815.866943,534.424072 815.866943,532.347168 815.866943,530.223267 
	C810.807251,530.223267 806.050720,530.223267 801.216187,530.223267 
	C801.216187,532.191101 801.216187,533.928406 801.216187,536.046753 
	C804.163025,536.046753 806.917908,536.046753 809.793335,536.046753 
	C809.793335,545.833801 809.793335,555.234436 809.793335,565.015503 
	C806.848022,565.015503 804.100403,565.015503 801.003296,565.015503 
	C801.086975,566.928894 801.152710,568.430786 801.213562,569.822144 
	C809.700562,569.822144 817.648621,569.822144 825.652405,569.822144 
	C825.652405,568.129639 825.652405,566.623840 825.652405,564.719543 
	C822.235962,564.719543 819.165222,564.719543 816.000061,564.719543 
	C816.000061,558.831604 815.840149,553.340942 816.091003,547.869080 
	C816.173340,546.071960 816.893555,543.950256 818.057190,542.620117 
	C822.266907,537.807800 827.426636,534.635315 835.012939,535.019531 
M614.791443,699.896973 
	C616.405640,699.980774 618.019897,700.064636 619.713928,700.152588 
	C619.713928,707.473572 619.713928,714.483276 619.713928,722.663513 
	C612.139404,714.935974 604.484741,708.552612 598.739258,700.761414 
	C594.937378,695.605896 590.821289,696.174438 586.043518,695.955811 
	C582.722656,695.803833 582.680664,697.458069 583.297241,700.178040 
	C585.477905,700.178040 587.559143,700.178040 589.720703,700.178040 
	C589.720703,708.588135 589.720703,716.656189 589.720703,724.364197 
	C587.163757,725.016357 584.974731,725.574707 582.785706,726.133118 
	C582.940857,726.641724 583.096069,727.150391 583.251221,727.659058 
	C588.788452,727.659058 594.325684,727.659058 599.862854,727.659058 
	C599.987854,727.091736 600.112793,726.524414 600.237793,725.957092 
	C598.297180,725.481506 596.356567,725.005859 594.301453,724.502136 
	C594.301453,717.201721 594.301453,709.858276 594.301453,701.706238 
	C602.222473,710.012512 609.502625,717.834167 617.041382,725.397949 
	C618.593445,726.955078 621.110840,727.550049 624.178162,729.086975 
	C624.178162,718.345703 624.178162,709.259338 624.178162,700.220764 
	C631.019104,699.777039 631.019104,699.777039 630.179932,696.002319 
	C625.734131,696.002319 621.243347,696.134155 616.765198,695.953369 
	C614.033386,695.843079 613.715210,697.174011 614.791443,699.896973 
M549.115784,724.996521 
	C545.453979,724.998230 541.788879,724.903076 538.131104,725.025208 
	C533.138550,725.191833 530.061890,723.083008 528.926270,718.098877 
	C528.730225,717.238281 527.606384,716.589050 526.272339,715.156006 
	C526.272339,720.294922 526.272339,724.035583 526.272339,726.856934 
	C529.366882,727.369629 532.006104,727.713135 534.603882,728.255554 
	C541.431152,729.681213 548.338867,729.955994 554.632324,726.867981 
	C556.980042,725.716064 559.421753,722.312439 559.544800,719.823059 
	C559.647949,717.734558 556.759216,715.067078 554.606384,713.430603 
	C552.781738,712.043701 550.140137,711.675171 547.814941,711.014893 
	C543.010437,709.650269 538.122925,708.551819 533.388000,706.985535 
	C532.075256,706.551208 530.106567,704.546265 530.320740,703.807983 
	C530.735168,702.379700 532.413269,701.248962 533.719360,700.180481 
	C534.291382,699.712524 535.245239,699.485596 536.010620,699.516907 
	C540.535645,699.701965 545.116699,699.635193 549.556580,700.380981 
	C552.415344,700.861206 554.422119,703.039551 554.253418,706.457703 
	C554.246094,706.606628 555.679443,706.826721 556.708496,707.079163 
	C556.708496,703.274231 556.708496,699.741333 556.708496,696.962402 
	C553.756287,696.616028 551.298279,696.145325 548.829041,696.076782 
	C543.996338,695.942627 539.122375,695.672974 534.331604,696.139038 
	C530.187805,696.542175 526.714417,698.980591 526.149902,703.352173 
	C525.606262,707.562073 528.644104,709.975525 532.379517,711.020752 
	C537.809387,712.540161 543.429443,713.427490 548.777405,715.170288 
	C551.093872,715.925232 552.934326,718.141113 554.990967,719.693420 
	C553.309509,721.450562 551.628113,723.207703 549.115784,724.996521 
M683.622009,727.998840 
	C693.367188,727.998840 703.112366,727.998840 712.789124,727.998840 
	C712.789124,724.321716 712.789124,721.366455 712.789124,718.425964 
	C709.508179,718.308899 709.508179,718.308899 708.445496,724.693848 
	C701.390747,724.693848 694.333130,724.693848 687.343567,724.693848 
	C687.343567,720.655518 687.343567,716.932190 687.343567,712.997437 
	C692.498535,712.997437 697.313171,713.087830 702.118896,712.920776 
	C703.074463,712.887634 703.995667,711.868469 704.932739,711.303955 
	C704.030273,710.870239 703.136658,710.084412 702.223938,710.061584 
	C697.280762,709.937866 692.332825,710.002869 687.281860,710.002869 
	C687.281860,706.445251 687.281860,703.388794 687.281860,700.287720 
	C694.640381,700.287720 701.712769,700.287720 708.870911,700.287720 
	C708.923340,701.391235 708.783386,702.273438 709.044312,703.014404 
	C709.408691,704.049072 710.072327,704.978333 710.607910,705.952698 
	C711.071228,704.911987 711.826965,703.900818 711.935730,702.824280 
	C712.147827,700.724548 711.997925,698.588257 711.997925,696.007629 
	C700.810181,696.007629 690.037109,695.937073 679.268799,696.131348 
	C678.330383,696.148193 677.423340,697.907471 675.626465,699.759521 
	C679.215393,699.947327 680.958252,700.038513 682.714294,700.130432 
	C682.714294,708.627441 682.714294,716.703003 682.714294,724.299744 
	C680.416199,725.025085 678.598938,725.598694 676.781677,726.172241 
	C676.944824,726.781128 677.107971,727.389954 677.271118,727.998779 
	C679.067505,727.998779 680.863953,727.998779 683.622009,727.998840 
M667.000000,627.497314 
	C667.000000,617.401611 667.000000,607.305908 667.000000,597.271912 
	C661.673767,597.271912 656.922119,597.271912 652.277100,597.271912 
	C652.277100,599.291138 652.277100,601.033630 652.277100,603.163940 
	C655.294312,603.163940 658.038391,603.163940 660.877991,603.163940 
	C660.931885,604.197205 660.994446,604.841858 660.994751,605.486450 
	C661.000854,617.814819 660.855286,630.145752 661.080078,642.470032 
	C661.156372,646.652588 661.665039,651.506531 666.469482,652.959778 
	C670.385559,654.144226 674.731506,653.907532 679.155396,654.326416 
	C678.957581,651.951355 678.838379,650.520630 678.733643,649.262817 
	C676.600037,649.000000 674.817749,648.720764 673.024719,648.570862 
	C667.943115,648.145813 666.972046,644.713135 666.995300,640.490417 
	C667.017273,636.492126 667.000000,632.493652 667.000000,627.497314 
M876.664307,714.093201 
	C877.094604,714.454651 877.868713,714.786621 877.902649,715.182068 
	C878.291138,719.710266 874.287537,723.371887 866.791992,725.457336 
	C862.578979,726.629517 857.387512,724.505005 855.529236,721.118774 
	C854.778015,719.749878 853.437073,718.704712 852.364563,717.512207 
	C851.741455,717.951538 851.118408,718.390808 850.495361,718.830139 
	C851.493958,720.886597 852.055908,723.369629 853.571594,724.921021 
	C858.484985,729.950378 864.772949,729.653625 871.038086,728.428162 
	C877.463318,727.171448 880.682068,722.605408 881.881775,716.619019 
	C882.427246,713.897339 882.164246,710.965881 881.958374,708.152283 
	C881.630554,703.672729 879.659241,700.209595 875.575195,697.855408 
	C869.933960,694.603577 863.997498,695.020752 858.196899,696.460938 
	C852.828125,697.793884 849.661560,702.169983 850.052307,706.763000 
	C850.483765,711.836304 853.148743,714.962524 858.382629,716.192017 
	C864.532410,717.636536 870.340088,717.449280 876.664307,714.093201 
M743.663574,728.991272 
	C751.279785,728.991272 758.896057,728.991272 766.751831,728.991272 
	C766.751831,725.129944 766.751831,721.724915 766.751831,718.193237 
	C760.157104,717.236145 764.729614,723.235840 762.147339,724.795166 
	C756.807312,724.795166 751.262634,724.795166 744.874695,724.795166 
	C748.033264,722.923889 750.529236,721.538696 752.926392,719.999695 
	C755.519043,718.335083 758.041687,716.558105 760.555847,714.775146 
	C767.627991,709.759827 767.878723,700.535461 760.685364,697.433411 
	C753.955139,694.531128 746.892090,694.121826 740.082581,697.952759 
	C736.596619,699.913940 735.840759,703.153625 734.658447,707.778503 
	C736.840454,706.744934 738.357056,706.509583 739.035034,705.628662 
	C744.237366,698.870117 750.180420,697.009277 757.712036,700.017883 
	C762.129089,701.782349 763.387634,705.243286 760.417419,708.903137 
	C758.379333,711.414551 755.749939,713.582520 753.037781,715.380371 
	C748.202698,718.585632 743.068726,721.336792 738.149841,724.421509 
	C737.242676,724.990356 736.761780,726.238953 736.084106,727.173767 
	C737.128967,727.787476 738.109192,728.631592 739.237366,728.948486 
	C740.316956,729.251648 741.550476,729.007080 743.663574,728.991272 
M671.993103,706.209778 
	C671.993103,702.903442 671.993103,699.597168 671.993103,695.809021 
	C669.601257,696.411987 667.457581,697.706299 665.850891,697.221313 
	C660.184326,695.511108 654.683838,694.325134 648.743774,695.957642 
	C642.348694,697.715210 636.828125,700.710815 635.362854,707.495239 
	C633.972717,713.931580 634.706299,720.447266 640.533386,724.952698 
	C646.699280,729.719971 653.785645,729.574097 661.082458,728.496643 
	C666.858398,727.643738 670.248718,724.194519 673.180969,718.532654 
	C670.960571,719.131470 668.861694,719.042969 668.141479,719.996155 
	C662.698059,727.200134 655.079163,725.537231 648.197937,724.408081 
	C642.318420,723.443237 638.862427,717.658630 638.994507,712.086060 
	C639.140503,705.925720 642.133911,702.083191 648.410400,699.999451 
	C658.565063,696.628113 667.293762,700.385681 668.576355,709.770020 
	C670.001465,708.664368 670.993347,707.894897 671.993103,706.209778 
M665.375854,530.000000 
	C662.883667,530.000000 660.375000,530.182861 657.902710,529.961182 
	C653.063293,529.527283 652.264832,531.829163 653.507080,536.210327 
	C656.686096,536.210327 659.756775,536.210327 662.728455,536.210327 
	C662.728455,545.998291 662.728455,555.388062 662.728455,565.139160 
	C659.376831,565.139160 656.293884,565.139160 653.244385,565.139160 
	C653.244385,566.911133 653.244385,568.311279 653.244385,569.783691 
	C661.559814,569.783691 669.630127,569.783691 678.028320,569.783691 
	C677.934692,568.032593 677.853943,566.522156 677.763245,564.826294 
	C674.599609,564.826294 671.989319,564.826294 668.999939,564.826294 
	C668.999939,554.183167 668.980042,543.757141 669.017761,533.331238 
	C669.024719,531.405762 669.223328,529.513794 665.375854,530.000000 
M801.000000,627.562134 
	C801.000000,634.645691 801.000000,641.729309 801.000000,649.163574 
	C797.691589,649.163574 794.942261,649.163574 792.255432,649.163574 
	C792.255432,650.931946 792.255432,652.330872 792.255432,653.775146 
	C800.581787,653.775146 808.651672,653.775146 816.788330,653.775146 
	C816.788330,652.145874 816.788330,650.743896 816.788330,648.964111 
	C813.510132,648.964111 810.433777,648.964111 806.832031,648.964111 
	C806.832031,637.083862 806.832031,625.573425 806.832031,614.322998 
	C801.544189,614.322998 796.796997,614.322998 791.918457,614.322998 
	C792.029968,616.399658 792.123596,618.143127 792.236755,620.250610 
	C795.390381,620.250610 798.125916,620.250610 801.000000,620.250610 
	C801.000000,622.621765 801.000000,624.600830 801.000000,627.562134 
M772.005859,712.471497 
	C772.030396,722.602905 778.610718,728.687988 788.979248,729.081787 
	C799.118896,729.466919 806.397583,720.852539 806.072693,712.344666 
	C805.699097,702.561890 798.273010,694.434998 788.853333,695.122864 
	C779.657410,695.794373 771.309204,700.868713 772.005859,712.471497 
M822.193787,696.320496 
	C812.167358,701.507507 807.610901,711.264160 812.229004,719.688843 
	C816.794312,728.017212 826.341980,731.771545 836.260742,727.266174 
	C845.805725,722.930603 847.120911,714.133789 843.947388,705.349731 
	C840.984314,697.148010 833.722778,694.350708 822.193787,696.320496 
M570.000610,715.464844 
	C570.000610,718.571655 570.000610,721.678406 570.000610,724.783752 
	C567.310913,724.974854 565.216675,725.123657 563.122437,725.272461 
	C563.515015,726.918152 564.322815,727.861816 565.188416,727.918152 
	C568.170593,728.112244 571.182800,728.143677 574.164246,727.946350 
	C576.103638,727.817993 578.009583,727.184937 579.930542,726.778015 
	C578.137695,725.907654 576.344849,725.037231 573.999207,723.898499 
	C573.999207,720.561340 573.999207,716.597717 573.999207,712.634094 
	C573.999207,708.518005 573.999207,704.401855 573.999207,700.223694 
	C576.263367,700.035095 578.020569,699.888672 579.762451,699.743591 
	C579.576538,695.551025 578.241089,695.334595 565.942993,695.925720 
	C562.562073,696.088257 562.819946,697.658142 563.147400,699.874756 
	C565.553894,699.992798 567.633362,700.094788 570.000610,700.210938 
	C570.000610,705.212524 570.000610,709.845520 570.000610,715.464844 
M660.428528,521.949524 
	C662.561646,522.959534 664.628418,524.421143 666.861694,524.749023 
	C667.710205,524.873596 669.566528,522.520325 669.866760,521.069458 
	C670.466370,518.171631 669.934509,515.250000 666.037170,515.032166 
	C661.790100,514.794800 659.788330,516.979065 660.428528,521.949524 
M799.000061,603.589966 
	C798.797302,606.580811 799.756531,609.311340 803.065979,608.799500 
	C805.192139,608.470703 807.998840,606.559509 808.650452,604.706970 
	C809.112122,603.394531 806.889282,600.078918 805.132812,599.292603 
	C802.481201,598.105591 799.615540,599.061890 799.000061,603.589966 
z"/>
<path fill="#92CB97" opacity="1.000000" stroke="none" 
	d="
M387.962982,678.038635 
	C383.982880,678.031982 380.002747,678.025330 375.631165,677.728943 
	C384.164948,669.123596 390.323578,659.018127 395.017548,647.039124 
	C384.438629,644.153748 374.414825,640.387512 362.963531,641.036499 
	C362.963531,652.011475 363.008911,662.468201 362.918030,672.923828 
	C362.903168,674.631714 362.287079,676.334412 361.948853,678.039490 
	C359.293182,678.026123 356.637482,678.012695 353.262207,677.704956 
	C352.542572,665.355408 352.542572,653.300049 352.542572,641.046631 
	C342.002289,640.460876 333.355347,643.472534 324.544281,645.753540 
	C320.917786,646.692383 320.454102,648.066101 321.842743,651.323853 
	C326.142609,661.411682 332.154053,670.260925 340.086761,677.817383 
	C336.044647,677.878296 332.002533,677.939209 327.154938,677.966492 
	C325.505157,677.182190 324.419006,676.579346 323.855316,675.657166 
	C319.794159,669.013306 315.925476,662.250000 311.771545,655.666077 
	C311.007568,654.455200 308.667145,652.838440 307.998901,653.192383 
	C303.264984,655.699524 298.777191,658.671509 294.210968,661.495361 
	C294.183777,662.211426 294.156586,662.927551 294.129395,663.643616 
	C302.764557,668.379150 311.399750,673.114624 320.034912,677.850098 
	C313.266846,677.850037 306.498749,677.850037 299.553650,677.850037 
	C295.464447,670.514221 291.336243,663.108521 287.145081,655.026978 
	C292.412170,650.737244 297.643860,646.963989 303.118317,643.583801 
	C305.473053,642.129883 306.471466,640.899353 305.537079,638.042542 
	C304.144836,633.786011 302.810883,629.436096 302.172760,625.021667 
	C300.510803,613.524780 299.079712,601.987671 297.904205,590.431213 
	C297.506348,586.519897 296.321014,584.844055 292.147095,585.132690 
	C287.006348,585.488220 281.822357,585.218018 276.657043,585.218018 
	C269.201904,585.218079 261.746796,585.218018 254.389481,585.218018 
	C253.906418,588.566528 253.514771,591.281433 253.123108,593.996338 
	C250.910355,589.676453 248.457047,585.456604 246.598816,580.989258 
	C245.814972,579.104797 245.518951,576.338745 246.335175,574.599426 
	C248.460007,570.071716 251.323029,565.890442 254.307861,561.531311 
	C254.393585,565.828369 254.063019,570.165100 253.725662,574.590881 
	C268.710480,574.590881 282.746674,574.590881 295.474762,574.590881 
	C299.024170,556.283447 302.515411,538.607422 305.736237,520.882202 
	C305.940247,519.759521 304.307770,517.886047 303.073517,516.990540 
	C297.462219,512.918945 291.687469,509.072723 285.971497,505.145447 
	C290.537811,497.585907 295.104126,490.026367 299.954071,481.997284 
	C305.943634,481.997284 312.537323,481.997284 319.374390,482.346191 
	C310.971680,487.409393 301.407043,490.610931 293.569885,498.393951 
	C299.162262,501.952271 304.338165,505.245605 309.910614,508.791260 
	C311.145447,506.155853 311.763702,504.245544 312.839569,502.642334 
	C317.499146,495.699066 322.292450,488.845581 327.037079,481.959412 
	C331.080658,481.980804 335.124268,482.002197 339.490692,482.408264 
	C330.933411,491.241638 324.282288,501.067108 320.039703,514.057495 
	C330.242371,516.089844 339.597290,518.000732 348.974915,519.792725 
	C351.842377,520.340698 352.210114,518.410828 352.194122,516.141113 
	C352.146179,509.328979 352.068115,502.513916 352.217285,495.704712 
	C352.318085,491.103485 352.782898,486.510254 353.084900,481.913452 
	C355.739502,481.942230 358.394135,481.970978 361.818481,482.253723 
	C362.588226,494.882111 362.588226,507.256500 362.588226,520.882935 
	C372.533081,518.687683 381.048462,516.693176 389.616913,514.961182 
	C394.468719,513.980469 394.853333,511.768677 392.870056,507.607513 
	C388.323914,498.068939 382.375610,489.605469 374.891388,482.186218 
	C378.940918,482.123871 382.990448,482.061554 387.828949,482.082092 
	C394.382660,490.540924 400.147369,498.916931 406.414673,508.023102 
	C410.841553,505.187103 416.005371,501.878967 421.600311,498.294647 
	C420.095978,497.002991 419.439850,496.239960 418.617493,495.764496 
	C410.736725,491.207703 402.827911,486.699463 394.927155,482.177307 
	C399.566864,482.120117 404.247101,482.422272 408.834930,481.904968 
	C413.457733,481.383636 416.403412,482.831573 418.502502,486.963287 
	C421.501984,492.867340 424.818817,498.610168 428.059204,505.141724 
	C422.805847,509.509247 417.627747,513.379028 412.122467,516.707764 
	C409.501831,518.292358 408.620941,519.595093 409.639496,522.624084 
	C411.064575,526.862000 412.321411,531.232117 412.955811,535.645508 
	C414.560394,546.807861 415.868835,558.015930 417.100952,569.227173 
	C417.541779,573.238098 418.608765,575.331055 423.422607,575.106628 
	C433.232056,574.649231 443.077759,574.969971 452.908539,574.970093 
	C455.672272,574.970154 458.436005,574.970093 461.686005,574.970093 
	C461.090546,569.378357 460.586304,564.643066 460.082031,559.907837 
	C463.631042,565.821655 467.180054,571.735535 470.732880,577.646301 
	C467.731812,583.027710 464.726898,588.412109 461.362091,593.528931 
	C461.579742,585.218018 461.579742,585.218079 453.220093,585.218018 
	C443.404541,585.218018 433.579102,585.479797 423.777435,585.110779 
	C418.639832,584.917358 417.042023,586.897583 417.063080,591.716553 
	C417.130432,607.113770 414.196747,622.095337 409.837006,636.774902 
	C408.686981,640.647095 409.664825,642.186218 412.966949,644.158020 
	C418.266144,647.322571 423.042877,651.362061 428.040405,655.031738 
	C424.725037,661.351013 421.372955,667.651306 418.111206,673.998108 
	C416.669952,676.802551 414.872894,678.341797 411.351227,678.089966 
	C406.225739,677.723511 401.053619,678.008179 395.688965,677.697876 
	C404.580627,673.429382 413.337891,668.910889 421.648285,661.928772 
	C415.860229,658.274109 410.769135,655.059509 405.686371,651.850159 
	C401.545959,658.988647 397.980652,665.528259 393.997620,671.802673 
	C392.479279,674.194458 390.002808,675.977966 387.962982,678.038635 
M362.961517,614.496338 
	C362.961517,616.327820 362.896576,618.162048 362.976044,619.990112 
	C363.111633,623.109741 362.384644,626.842346 363.862030,629.125427 
	C364.842499,630.640503 369.032318,630.075317 371.783997,630.452148 
	C372.111786,630.497009 372.428406,630.618591 372.753113,630.691528 
	C381.289490,632.609131 389.826233,634.525024 398.660919,636.508057 
	C403.778290,621.177734 406.020935,605.141541 406.920135,588.851562 
	C407.112152,585.372498 405.069824,585.185242 402.489319,585.196228 
	C392.000214,585.240906 381.510773,585.214539 371.021454,585.214539 
	C368.441864,585.214478 365.862305,585.214539 362.961456,585.214539 
	C362.961456,595.208435 362.961456,604.353210 362.961517,614.496338 
M308.352570,590.313538 
	C309.252991,606.175354 311.247101,621.828918 316.325531,635.922791 
	C327.914368,633.875488 338.809906,632.033020 349.648621,629.901611 
	C350.671844,629.700378 352.044128,627.692932 352.061066,626.507080 
	C352.239197,614.037415 352.131042,601.563965 352.209839,589.092224 
	C352.227386,586.316772 351.111755,585.189392 348.376648,585.199585 
	C336.237244,585.244934 324.097046,585.276367 311.958313,585.173279 
	C308.766937,585.146179 307.777740,586.545349 308.352570,590.313538 
M405.901855,558.813171 
	C403.787231,547.143799 401.672638,535.474365 399.538239,523.695801 
	C397.262726,524.000732 396.288269,524.078003 395.336029,524.267090 
	C385.613464,526.198303 375.922394,528.308899 366.158173,529.997131 
	C363.087494,530.528015 362.945862,532.159302 362.951874,534.481079 
	C362.984253,546.950073 362.958618,559.419250 362.998505,571.888245 
	C363.001465,572.814575 363.361542,573.739746 363.616058,574.953979 
	C377.109741,574.953979 390.392120,575.043640 403.667938,574.788452 
	C404.762665,574.767395 406.663879,572.442993 406.721558,571.124573 
	C406.887146,567.340271 406.298035,563.522949 405.901855,558.813171 
M350.936432,530.535950 
	C339.547821,528.529663 328.159210,526.523376 316.448944,524.460449 
	C316.257721,524.907471 315.784607,525.773621 315.506989,526.698425 
	C311.083771,541.432190 309.024658,556.554199 308.396149,571.875671 
	C308.355652,572.862793 310.149536,574.804871 311.113800,574.820251 
	C323.775055,575.022400 336.441589,575.025391 349.103058,574.832825 
	C350.135254,574.817139 352.023193,573.010254 352.024750,572.033325 
	C352.046570,558.399841 351.808746,544.765869 350.936432,530.535950 
z"/>
<path fill="#FEFEFE" opacity="1.000000" stroke="none" 
	d="
M253.199921,594.399536 
	C253.514771,591.281433 253.906418,588.566528 254.389481,585.218018 
	C261.746796,585.218018 269.201904,585.218079 276.657043,585.218018 
	C281.822357,585.218018 287.006348,585.488220 292.147095,585.132690 
	C296.321014,584.844055 297.506348,586.519897 297.904205,590.431213 
	C299.079712,601.987671 300.510803,613.524780 302.172760,625.021667 
	C302.810883,629.436096 304.144836,633.786011 305.537079,638.042542 
	C306.471466,640.899353 305.473053,642.129883 303.118317,643.583801 
	C297.643860,646.963989 292.412170,650.737244 287.021179,654.691895 
	C284.852112,654.067200 282.124146,653.643494 280.732697,652.051636 
	C268.306641,637.835754 259.127625,621.832947 254.992523,603.215759 
	C254.372040,600.422241 253.846313,597.607666 253.199921,594.399536 
z"/>
<path fill="#FEFEFE" opacity="1.000000" stroke="none" 
	d="
M428.387634,655.019043 
	C423.042877,651.362061 418.266144,647.322571 412.966949,644.158020 
	C409.664825,642.186218 408.686981,640.647095 409.837006,636.774902 
	C414.196747,622.095337 417.130432,607.113770 417.063080,591.716553 
	C417.042023,586.897583 418.639832,584.917358 423.777435,585.110779 
	C433.579102,585.479797 443.404541,585.218018 453.220093,585.218018 
	C461.579742,585.218079 461.579742,585.218018 461.045105,593.677002 
	C460.135925,610.803894 453.355042,625.398010 444.329193,639.051086 
	C440.860443,644.298096 436.623413,649.053833 432.523621,653.851501 
	C431.800476,654.697693 430.024597,654.644287 428.387634,655.019043 
z"/>
<path fill="#FEFFFE" opacity="1.000000" stroke="none" 
	d="
M460.031189,559.486511 
	C460.586304,564.643066 461.090546,569.378357 461.686005,574.970093 
	C458.436005,574.970093 455.672272,574.970154 452.908539,574.970093 
	C443.077759,574.969971 433.232056,574.649231 423.422607,575.106628 
	C418.608765,575.331055 417.541779,573.238098 417.100952,569.227173 
	C415.868835,558.015930 414.560394,546.807861 412.955811,535.645508 
	C412.321411,531.232117 411.064575,526.862000 409.639496,522.624084 
	C408.620941,519.595093 409.501831,518.292358 412.122467,516.707764 
	C417.627747,513.379028 422.805847,509.509247 428.111115,505.518494 
	C431.274567,507.483856 435.003143,509.306427 437.513855,512.189514 
	C445.867798,521.782532 452.274628,532.646484 456.275665,544.776123 
	C457.813751,549.439148 458.762848,554.296448 460.031189,559.486511 
z"/>
<path fill="#FEFFFE" opacity="1.000000" stroke="none" 
	d="
M285.622009,505.078735 
	C291.687469,509.072723 297.462219,512.918945 303.073517,516.990540 
	C304.307770,517.886047 305.940247,519.759521 305.736237,520.882202 
	C302.515411,538.607422 299.024170,556.283447 295.474762,574.590881 
	C282.746674,574.590881 268.710480,574.590881 253.725662,574.590881 
	C254.063019,570.165100 254.393585,565.828369 254.470627,561.204224 
	C258.671112,540.107910 267.434784,521.572754 282.924805,506.602112 
	C283.594330,505.955109 284.484894,505.536865 285.622009,505.078735 
z"/>
<path fill="#FFFFFF" opacity="1.000000" stroke="none" 
	d="
M544.469238,617.812378 
	C554.663330,620.323303 564.576721,622.388245 574.299438,625.129150 
	C578.518738,626.318542 582.793274,628.314636 586.259216,630.967957 
	C593.801758,636.742249 590.978638,647.492859 583.679199,651.013550 
	C574.891174,655.252258 565.647400,656.696106 555.953369,655.045166 
	C549.971252,654.026367 543.960022,653.178284 537.604126,652.198425 
	C536.254089,652.759949 534.019531,653.689392 531.199829,654.862183 
	C531.199829,646.937012 531.199829,640.180725 531.199829,633.211914 
	C533.078186,633.211914 534.816345,633.211914 536.795410,633.211914 
	C536.868347,633.914978 536.983765,634.539185 536.990417,635.164551 
	C537.084534,644.134094 538.741821,646.871765 547.418274,648.650330 
	C557.050049,650.624573 566.995422,651.473999 576.391907,647.792358 
	C579.414673,646.607971 582.769897,643.386169 583.671570,640.401245 
	C584.809021,636.635803 581.357239,633.989380 577.556274,632.980469 
	C568.587646,630.599792 559.544434,628.487000 550.626404,625.934143 
	C545.735413,624.533997 540.806824,622.906860 536.307312,620.583862 
	C529.942139,617.297729 530.339233,604.199951 536.968628,600.933716 
	C546.173950,596.398254 555.590698,594.682373 565.686340,596.929871 
	C570.684692,598.042725 575.736877,598.913696 580.880859,599.916748 
	C580.924316,599.536194 581.048767,598.446960 581.193604,597.178650 
	C582.957764,597.178650 584.743591,597.178650 586.765503,597.178650 
	C586.765503,603.294128 586.765503,609.386902 586.765503,615.741089 
	C585.001038,615.741089 583.264771,615.741089 581.114380,615.741089 
	C582.374268,605.915466 575.319458,603.398376 568.035583,602.737122 
	C560.471252,602.050415 552.654968,602.498657 545.148010,603.697632 
	C542.466248,604.125977 539.106873,607.910828 538.459167,610.717957 
	C538.048828,612.496155 542.074829,615.297913 544.469238,617.812378 
z"/>
<path fill="#FFFFFF" opacity="1.000000" stroke="none" 
	d="
M582.600830,544.219360 
	C587.716492,546.740784 590.886475,550.832397 590.764404,555.828491 
	C590.611816,562.073853 586.711243,566.837646 580.608643,568.686401 
	C566.280640,573.026855 551.990417,573.058716 538.838379,567.608093 
	C536.232971,568.801270 534.115417,569.771057 531.311646,571.055115 
	C531.311646,563.052368 531.311646,556.177551 531.311646,549.150024 
	C533.069763,549.150024 534.697937,549.150024 536.711182,549.150024 
	C536.801392,550.296936 536.975098,551.558289 536.987488,552.821228 
	C537.052917,559.478088 538.475586,562.064148 544.854797,563.865417 
	C555.530151,566.879761 566.484558,567.373901 577.047241,563.726562 
	C579.877136,562.749451 582.861328,559.208130 583.702759,556.253845 
	C584.730591,552.645020 581.402527,550.018494 577.883972,549.041565 
	C568.941772,546.558716 559.887451,544.476624 550.960388,541.943542 
	C546.066772,540.554993 541.047302,539.123535 536.606506,536.739319 
	C529.860962,533.117676 530.003418,520.846252 536.706970,517.109131 
	C545.658630,512.118713 555.322693,510.757965 565.408630,512.770020 
	C570.425903,513.770874 575.433289,514.821411 580.807861,515.923889 
	C580.875488,515.511169 581.058838,514.392212 581.258789,513.171997 
	C583.089294,513.171997 584.857483,513.171997 586.812378,513.171997 
	C586.812378,519.434692 586.812378,525.525696 586.812378,531.808228 
	C584.885010,531.808228 583.140137,531.808228 581.410339,531.808228 
	C580.434570,523.063904 578.466980,520.791443 569.707458,519.029907 
	C560.974243,517.273743 552.114685,516.720642 543.751953,520.274292 
	C541.347412,521.296082 538.591187,524.451599 538.407837,526.815857 
	C538.257263,528.757263 541.297424,532.049683 543.593384,532.871643 
	C550.647278,535.397095 558.036194,536.977173 565.269653,539.014221 
	C570.955139,540.615417 576.603210,542.349304 582.600830,544.219360 
z"/>
<path fill="#FFFFFF" opacity="1.000000" stroke="none" 
	d="
M916.259644,653.998474 
	C915.005127,652.605652 914.226379,651.214233 913.016479,649.052368 
	C917.061279,649.052368 919.809937,649.052368 922.996765,649.052368 
	C922.996765,641.407227 923.292786,634.116577 922.907288,626.862122 
	C922.572266,620.556519 914.952454,617.059082 907.247437,619.294189 
	C905.577698,619.778625 903.961426,620.445251 902.313171,621.006348 
	C895.031921,623.485168 893.000000,626.276611 893.000000,633.822998 
	C893.000000,638.771179 893.000000,643.719299 893.000000,648.875610 
	C896.042664,648.875610 898.659058,648.875610 901.637329,648.875610 
	C901.637329,650.588135 901.637329,652.090271 901.637329,653.810669 
	C893.544556,653.810669 885.463196,653.810669 877.191650,653.810669 
	C877.191650,652.227112 877.191650,650.826233 877.191650,649.041931 
	C880.071594,649.041931 882.820312,649.041931 885.780640,649.041931 
	C885.780640,639.262756 885.780640,629.861694 885.780640,620.072021 
	C882.946228,620.072021 880.191406,620.072021 877.229614,620.072021 
	C877.229614,617.953613 877.229614,616.216003 877.229614,614.000000 
	C880.537231,614.000000 883.844727,614.235840 887.104431,613.942017 
	C891.435730,613.551453 894.071899,614.545044 893.265930,618.237305 
	C899.904114,616.558594 906.876282,613.686462 913.992432,613.268982 
	C923.476990,612.712646 929.577759,617.932373 929.066895,627.866943 
	C928.717407,634.663696 929.000000,641.492920 929.000000,648.711670 
	C931.827515,648.711670 934.563965,648.711670 937.649597,648.711670 
	C937.649597,650.616577 937.649597,652.123962 937.649597,653.999878 
	C930.649475,653.999878 923.692505,653.999878 916.259644,653.998474 
z"/>
<path fill="#FFFFFF" opacity="1.000000" stroke="none" 
	d="
M689.000000,557.930420 
	C689.000000,550.473450 689.000000,543.509033 689.000000,536.155457 
	C686.029053,536.155457 683.286743,536.155457 680.274536,536.155457 
	C680.274536,534.030518 680.274536,532.289551 680.274536,530.001038 
	C684.438354,530.001038 688.772705,529.589417 692.951782,530.214966 
	C694.502075,530.446960 695.688171,533.112000 697.018494,534.642395 
	C701.315918,533.160339 706.544006,530.919128 711.993347,529.575867 
	C721.259155,527.291870 733.437439,531.238159 732.111145,544.745239 
	C731.467468,551.300232 732.000000,557.970764 732.000000,564.967102 
	C735.100830,564.967102 737.846558,564.967102 740.791138,564.967102 
	C740.791138,566.748962 740.791138,568.151550 740.791138,570.000000 
	C736.765808,570.000000 732.810547,570.000000 728.855286,570.000000 
	C725.055115,570.000000 721.255005,570.000000 717.231934,570.000000 
	C717.231934,568.294861 717.231934,566.898499 717.231934,565.112427 
	C719.995361,565.112427 722.746277,565.112427 725.990662,565.112427 
	C725.990662,557.314636 726.381226,549.854309 725.868652,542.456543 
	C725.448975,536.399719 717.838135,533.140808 710.333679,535.261536 
	C708.505249,535.778259 706.701782,536.393433 704.910095,537.028748 
	C698.217163,539.401733 695.993530,542.579651 696.002197,549.728210 
	C696.007996,554.553589 696.032776,559.378967 696.065857,564.204285 
	C696.066711,564.331360 696.262878,564.457153 696.687927,564.968262 
	C699.102051,564.968262 701.847839,564.968262 704.791748,564.968262 
	C704.791748,566.753662 704.791748,568.157166 704.791748,569.781433 
	C696.625793,569.781433 688.544983,569.781433 680.231873,569.781433 
	C680.231873,568.291504 680.231873,566.890503 680.231873,565.112366 
	C682.989868,565.112366 685.748779,565.112366 689.000000,565.112366 
	C689.000000,562.639282 689.000000,560.531128 689.000000,557.930420 
z"/>
<path fill="#FEFEFE" opacity="1.000000" stroke="none" 
	d="
M353.046478,481.487091 
	C352.782898,486.510254 352.318085,491.103485 352.217285,495.704712 
	C352.068115,502.513916 352.146179,509.328979 352.194122,516.141113 
	C352.210114,518.410828 351.842377,520.340698 348.974915,519.792725 
	C339.597290,518.000732 330.242371,516.089844 320.039703,514.057495 
	C324.282288,501.067108 330.933411,491.241638 339.952454,482.492645 
	C343.941742,479.831360 347.792145,477.470428 353.008057,474.272217 
	C353.008057,477.705536 353.008057,479.383148 353.046478,481.487091 
z"/>
<path fill="#FFFFFF" opacity="1.000000" stroke="none" 
	d="
M615.069702,571.998535 
	C612.551819,571.661316 610.473450,571.331726 608.397278,570.987976 
	C602.604797,570.029053 598.413757,565.618347 598.001465,560.055298 
	C597.664551,555.507812 601.892578,549.299561 607.162903,548.120728 
	C616.468506,546.039612 625.922668,544.622864 635.359314,542.919922 
	C634.704285,537.855713 632.251953,535.281311 625.873657,535.087158 
	C619.286743,534.886658 612.317627,533.580872 607.165710,539.977234 
	C606.297119,541.055603 603.217285,540.352966 600.574158,540.507446 
	C602.589417,534.371948 606.364685,531.480896 611.289001,530.342529 
	C618.145081,528.757751 625.049072,528.546753 631.896729,530.922607 
	C638.420471,533.186035 641.935486,537.720337 641.989014,544.686768 
	C642.039978,551.314026 642.000000,557.941956 642.000000,564.952576 
	C645.084778,564.952576 647.832336,564.952576 650.785156,564.952576 
	C650.785156,566.742981 650.785156,568.147766 650.785156,569.777527 
	C645.942993,569.777527 641.166504,569.777527 636.186707,569.777527 
	C636.076050,568.665344 635.964478,567.543701 635.928406,567.181213 
	C629.180725,568.773560 622.345459,570.386658 615.069702,571.998535 
M618.312622,566.000000 
	C623.622070,564.316467 628.959229,562.711975 634.211243,560.865173 
	C635.008423,560.584839 635.850281,559.210022 635.914185,558.289062 
	C636.126831,555.221985 635.994629,552.131104 635.994629,549.017517 
	C630.596497,549.382080 625.790588,549.307556 621.145874,550.136292 
	C616.793518,550.912903 612.442871,552.278015 608.429199,554.119995 
	C606.546387,554.984070 604.364685,557.554504 604.324585,559.395508 
	C604.286438,561.142700 606.525513,563.748657 608.376465,564.536926 
	C611.098328,565.696045 614.365112,565.575439 618.312622,566.000000 
z"/>
<path fill="#FEFEFE" opacity="1.000000" stroke="none" 
	d="
M374.583130,482.021057 
	C382.375610,489.605469 388.323914,498.068939 392.870056,507.607513 
	C394.853333,511.768677 394.468719,513.980469 389.616913,514.961182 
	C381.048462,516.693176 372.533081,518.687683 362.588226,520.882935 
	C362.588226,507.256500 362.588226,494.882111 362.260986,482.235229 
	C362.107025,475.146698 362.434631,474.896667 368.802795,478.025879 
	C370.777344,478.996155 372.459045,480.562469 374.583130,482.021057 
z"/>
<path fill="#FFFFFF" opacity="1.000000" stroke="none" 
	d="
M774.963623,529.999878 
	C782.553589,530.216125 790.078430,535.042542 789.135864,544.183533 
	C788.443237,550.900269 789.000000,557.745911 789.000000,564.918335 
	C792.378906,564.918335 795.462158,564.918335 798.765259,564.918335 
	C798.765259,566.705994 798.765259,568.110229 798.765259,569.987610 
	C793.993164,569.987610 789.207764,570.102539 784.439514,569.867920 
	C783.695679,569.831299 783.030090,568.202454 782.515747,567.548279 
	C776.426208,569.004333 770.254028,570.637390 764.012085,571.935120 
	C755.019531,573.804688 745.765442,567.056091 746.000000,559.002319 
	C746.142761,554.100281 749.561340,549.462280 755.321411,548.117004 
	C764.270935,546.026978 773.385864,544.645386 782.644958,542.923645 
	C782.923340,539.525391 779.951355,535.545105 775.011841,535.189575 
	C770.172791,534.841248 765.212708,535.442505 760.380615,536.142944 
	C758.789307,536.373596 757.575256,538.598633 755.927979,539.215271 
	C754.113708,539.894348 751.999390,539.771912 750.015808,539.998657 
	C750.372559,538.476379 750.240112,536.499268 751.164612,535.504883 
	C757.660828,528.518188 765.960999,528.577393 774.963623,529.999878 
M755.077820,554.403015 
	C750.337524,559.230408 751.473206,564.181152 758.176514,565.559631 
	C766.924316,567.358643 775.163635,565.091553 782.788086,560.509827 
	C782.788086,556.813232 782.788086,553.043030 782.788086,547.982422 
	C773.472595,550.064880 764.617615,552.044373 755.077820,554.403015 
z"/>
<path fill="#FEFEFE" opacity="1.000000" stroke="none" 
	d="
M361.971710,678.454712 
	C362.287079,676.334412 362.903168,674.631714 362.918030,672.923828 
	C363.008911,662.468201 362.963531,652.011475 362.963531,641.036499 
	C374.414825,640.387512 384.438629,644.153748 395.017548,647.039124 
	C390.323578,659.018127 384.164948,669.123596 375.177002,677.767822 
	C372.195984,680.023987 369.500519,682.563904 366.304016,683.727356 
	C362.124023,685.248779 361.786255,681.988892 361.971710,678.454712 
z"/>
<path fill="#FEFEFE" opacity="1.000000" stroke="none" 
	d="
M340.398041,677.977295 
	C332.154053,670.260925 326.142609,661.411682 321.842743,651.323853 
	C320.454102,648.066101 320.917786,646.692383 324.544281,645.753540 
	C333.355347,643.472534 342.002289,640.460876 352.542572,641.046631 
	C352.542572,653.300049 352.542572,665.355408 352.820557,677.721436 
	C353.098541,679.814209 353.098541,681.596252 353.098541,683.835205 
	C347.527496,684.618530 344.184662,681.224121 340.398041,677.977295 
z"/>
<path fill="#FFFFFF" opacity="1.000000" stroke="none" 
	d="
M944.926392,619.282959 
	C951.301147,611.878601 959.582581,612.767151 967.689209,613.349976 
	C970.021240,613.517639 972.270203,615.012024 974.591125,615.112061 
	C976.879089,615.210571 979.209839,614.313110 981.806519,613.795837 
	C981.806519,619.017639 981.806519,623.785339 981.806519,628.776978 
	C980.289368,628.776978 978.881409,628.776978 977.476379,628.776978 
	C976.424683,621.332947 974.129333,619.271118 966.398560,619.019165 
	C962.932922,618.906250 959.351868,618.484436 956.029602,619.183533 
	C953.835205,619.645142 952.008240,621.852600 950.016785,623.278442 
	C951.532227,624.881104 952.783997,627.387451 954.611511,627.920654 
	C960.596863,629.667175 966.781006,630.748901 972.909180,631.984802 
	C978.245056,633.061035 983.063477,635.236389 984.885925,640.620544 
	C987.232849,647.554077 982.352966,653.906372 974.414917,654.980591 
	C966.500671,656.051575 958.774536,655.910583 951.117126,652.838135 
	C949.137024,652.043640 946.149597,653.759827 943.260376,654.404053 
	C943.260376,649.149719 943.260376,644.386597 943.260376,639.215698 
	C944.890625,639.134460 946.622375,639.048218 948.815308,638.938965 
	C948.346252,645.870972 952.167908,648.797913 958.399963,649.022095 
	C963.516418,649.206238 968.720520,649.574524 973.729492,648.821350 
	C975.704407,648.524414 978.620911,645.406311 978.618347,643.576355 
	C978.615784,641.719543 975.842163,638.800049 973.755127,638.210083 
	C967.126709,636.336487 960.234253,635.417786 953.478333,633.969055 
	C945.799805,632.322510 942.644409,626.988220 944.926392,619.282959 
z"/>
<path fill="#FFFFFF" opacity="1.000000" stroke="none" 
	d="
M723.882629,620.002380 
	C721.436829,620.000244 719.465332,620.000244 717.248779,620.000244 
	C717.248779,617.983704 717.248779,616.242065 717.248779,614.248230 
	C721.979736,614.248230 726.729004,614.248230 731.879639,614.248230 
	C731.879639,625.670837 731.879639,637.079346 731.879639,648.876587 
	C735.005737,648.876587 737.748840,648.876587 740.743164,648.876587 
	C740.743164,650.663635 740.743164,652.068115 740.743164,653.744568 
	C736.042664,653.744568 731.278809,653.744568 726.224365,653.744568 
	C726.224365,652.031738 726.224365,650.279175 726.224365,647.993408 
	C719.647766,652.912109 712.841797,656.132629 705.032837,655.938538 
	C694.175415,655.668762 689.425842,650.764954 689.042480,640.034119 
	C688.811340,633.564270 689.000000,627.079407 689.000000,620.204407 
	C686.076660,620.204407 683.336670,620.204407 680.230164,620.204407 
	C680.128540,618.082886 680.044800,616.336792 679.946716,614.290039 
	C684.876343,614.290039 689.628784,614.290039 695.000000,614.290039 
	C695.000000,621.421570 694.999084,628.680969 695.000916,635.940430 
	C695.001221,637.273071 694.704285,638.697815 695.069946,639.923279 
	C697.196594,647.050842 697.164917,650.427307 707.591919,650.058472 
	C714.303894,649.821167 719.441101,646.319336 724.672974,642.842224 
	C725.188599,642.499634 725.854553,641.851501 725.854675,641.345093 
	C725.856201,634.385742 725.761963,627.426208 725.620728,620.468140 
	C725.617371,620.305115 724.796509,620.158691 723.882629,620.002380 
z"/>
<path fill="#FFFFFF" opacity="1.000000" stroke="none" 
	d="
M598.000000,634.937134 
	C599.521606,622.461304 603.073425,616.545288 617.985901,613.892822 
	C626.933167,612.301392 635.164551,613.270935 642.225159,618.900635 
	C644.991394,621.106262 647.542053,624.675781 648.343445,628.061523 
	C651.714722,642.303162 645.657898,653.356628 629.830139,654.895630 
	C624.616150,655.402649 619.136108,655.412598 614.036194,654.377014 
	C604.013611,652.342102 598.927002,645.442566 598.000000,634.937134 
M642.987671,630.136780 
	C637.687622,619.364624 621.057007,614.564758 611.340454,621.317688 
	C606.440796,624.722839 603.156982,629.780457 604.172302,635.910583 
	C605.275085,642.569031 608.522644,647.625244 616.268982,649.191833 
	C630.349609,652.039490 645.397034,648.277405 642.987671,630.136780 
z"/>
<path fill="#FFFFFF" opacity="1.000000" stroke="none" 
	d="
M856.172729,654.359619 
	C849.301453,655.915710 842.946289,655.812927 836.258850,654.236694 
	C825.944519,651.805725 819.673218,643.824585 820.935547,630.733887 
	C821.683411,622.978943 829.324341,615.503235 838.534424,613.978271 
	C847.020569,612.573181 855.126892,613.174805 862.856079,617.302246 
	C870.961792,621.630615 872.925476,630.888428 871.860229,637.812622 
	C870.526855,646.479980 865.648865,652.476562 856.172729,654.359619 
M842.785828,619.000000 
	C833.688171,619.550354 827.928040,624.225403 827.002869,631.809631 
	C825.931824,640.589844 829.157532,647.153381 837.255005,648.715820 
	C843.578857,649.935913 850.546631,649.557922 856.914429,648.300659 
	C862.779785,647.142578 865.446533,641.585999 865.866882,635.897461 
	C866.266724,630.485657 864.681946,625.599182 859.714233,622.086121 
	C854.704712,618.543457 849.226440,619.044006 842.785828,619.000000 
z"/>
<path fill="#FFFFFF" opacity="1.000000" stroke="none" 
	d="
M759.000000,628.049744 
	C759.000000,632.702820 758.979980,636.864929 759.004822,641.026733 
	C759.040100,646.920593 761.612244,650.091675 767.483093,649.864258 
	C773.508362,649.630859 779.491638,648.313049 785.493286,647.469727 
	C785.576843,646.983887 785.660400,646.498108 785.743958,646.012268 
	C786.621887,647.591797 787.499817,649.171265 788.669678,651.276001 
	C778.539551,656.065002 768.754578,656.863647 758.704773,653.164612 
	C754.205139,651.508362 753.148376,647.473755 753.050659,643.294922 
	C752.872375,635.678833 753.000000,628.055603 753.000000,620.049683 
	C749.254822,620.049683 745.832336,620.049683 742.215576,620.049683 
	C742.215576,617.924255 742.215576,616.186707 742.215576,614.062500 
	C745.710327,614.062500 749.127258,614.062500 752.929749,614.062500 
	C752.929749,609.615051 752.929749,605.526428 752.929749,601.227661 
	C755.055298,601.227661 756.792603,601.227661 758.917358,601.227661 
	C758.917358,605.344543 758.917358,609.436401 758.917358,613.904114 
	C768.033020,613.904114 776.775085,613.904114 785.754700,613.904114 
	C785.754700,616.026611 785.754700,617.764038 785.754700,619.884094 
	C777.023071,619.884094 768.273376,619.884094 759.000000,619.884094 
	C759.000000,622.687683 759.000000,625.123169 759.000000,628.049744 
z"/>
<path fill="#FFFFFF" opacity="1.000000" stroke="none" 
	d="
M834.590149,535.010376 
	C827.426636,534.635315 822.266907,537.807800 818.057190,542.620117 
	C816.893555,543.950256 816.173340,546.071960 816.091003,547.869080 
	C815.840149,553.340942 816.000061,558.831604 816.000061,564.719543 
	C819.165222,564.719543 822.235962,564.719543 825.652405,564.719543 
	C825.652405,566.623840 825.652405,568.129639 825.652405,569.822144 
	C817.648621,569.822144 809.700562,569.822144 801.213562,569.822144 
	C801.152710,568.430786 801.086975,566.928894 801.003296,565.015503 
	C804.100403,565.015503 806.848022,565.015503 809.793335,565.015503 
	C809.793335,555.234436 809.793335,545.833801 809.793335,536.046753 
	C806.917908,536.046753 804.163025,536.046753 801.216187,536.046753 
	C801.216187,533.928406 801.216187,532.191101 801.216187,530.223267 
	C806.050720,530.223267 810.807251,530.223267 815.866943,530.223267 
	C815.866943,532.347168 815.866943,534.424072 815.866943,537.180847 
	C823.923828,530.921448 831.873779,526.314026 842.028198,531.504517 
	C841.406555,533.194092 840.773865,534.913879 840.052673,536.874023 
	C838.182617,536.185852 836.597778,535.602722 834.590149,535.010376 
z"/>
<path fill="#8FCB94" opacity="1.000000" stroke="none" 
	d="
M614.452148,699.599976 
	C613.715210,697.174011 614.033386,695.843079 616.765198,695.953369 
	C621.243347,696.134155 625.734131,696.002319 630.179932,696.002319 
	C631.019104,699.777039 631.019104,699.777039 624.178162,700.220764 
	C624.178162,709.259338 624.178162,718.345703 624.178162,729.086975 
	C621.110840,727.550049 618.593445,726.955078 617.041382,725.397949 
	C609.502625,717.834167 602.222473,710.012512 594.301453,701.706238 
	C594.301453,709.858276 594.301453,717.201721 594.301453,724.502136 
	C596.356567,725.005859 598.297180,725.481506 600.237793,725.957092 
	C600.112793,726.524414 599.987854,727.091736 599.862854,727.659058 
	C594.325684,727.659058 588.788452,727.659058 583.251221,727.659058 
	C583.096069,727.150391 582.940857,726.641724 582.785706,726.133118 
	C584.974731,725.574707 587.163757,725.016357 589.720703,724.364197 
	C589.720703,716.656189 589.720703,708.588135 589.720703,700.178040 
	C587.559143,700.178040 585.477905,700.178040 583.297241,700.178040 
	C582.680664,697.458069 582.722656,695.803833 586.043518,695.955811 
	C590.821289,696.174438 594.937378,695.605896 598.739258,700.761414 
	C604.484741,708.552612 612.139404,714.935974 619.713928,722.663513 
	C619.713928,714.483276 619.713928,707.473572 619.713928,700.152588 
	C618.019897,700.064636 616.405640,699.980774 614.452148,699.599976 
z"/>
<path fill="#8FCB94" opacity="1.000000" stroke="none" 
	d="
M549.531250,724.980713 
	C551.628113,723.207703 553.309509,721.450562 554.990967,719.693420 
	C552.934326,718.141113 551.093872,715.925232 548.777405,715.170288 
	C543.429443,713.427490 537.809387,712.540161 532.379517,711.020752 
	C528.644104,709.975525 525.606262,707.562073 526.149902,703.352173 
	C526.714417,698.980591 530.187805,696.542175 534.331604,696.139038 
	C539.122375,695.672974 543.996338,695.942627 548.829041,696.076782 
	C551.298279,696.145325 553.756287,696.616028 556.708496,696.962402 
	C556.708496,699.741333 556.708496,703.274231 556.708496,707.079163 
	C555.679443,706.826721 554.246094,706.606628 554.253418,706.457703 
	C554.422119,703.039551 552.415344,700.861206 549.556580,700.380981 
	C545.116699,699.635193 540.535645,699.701965 536.010620,699.516907 
	C535.245239,699.485596 534.291382,699.712524 533.719360,700.180481 
	C532.413269,701.248962 530.735168,702.379700 530.320740,703.807983 
	C530.106567,704.546265 532.075256,706.551208 533.388000,706.985535 
	C538.122925,708.551819 543.010437,709.650269 547.814941,711.014893 
	C550.140137,711.675171 552.781738,712.043701 554.606384,713.430603 
	C556.759216,715.067078 559.647949,717.734558 559.544800,719.823059 
	C559.421753,722.312439 556.980042,725.716064 554.632324,726.867981 
	C548.338867,729.955994 541.431152,729.681213 534.603882,728.255554 
	C532.006104,727.713135 529.366882,727.369629 526.272339,726.856934 
	C526.272339,724.035583 526.272339,720.294922 526.272339,715.156006 
	C527.606384,716.589050 528.730225,717.238281 528.926270,718.098877 
	C530.061890,723.083008 533.138550,725.191833 538.131104,725.025208 
	C541.788879,724.903076 545.453979,724.998230 549.531250,724.980713 
z"/>
<path fill="#8FCB94" opacity="1.000000" stroke="none" 
	d="
M683.141235,727.998779 
	C680.863953,727.998779 679.067505,727.998779 677.271118,727.998779 
	C677.107971,727.389954 676.944824,726.781128 676.781677,726.172241 
	C678.598938,725.598694 680.416199,725.025085 682.714294,724.299744 
	C682.714294,716.703003 682.714294,708.627441 682.714294,700.130432 
	C680.958252,700.038513 679.215393,699.947327 675.626465,699.759521 
	C677.423340,697.907471 678.330383,696.148193 679.268799,696.131348 
	C690.037109,695.937073 700.810181,696.007629 711.997925,696.007629 
	C711.997925,698.588257 712.147827,700.724548 711.935730,702.824280 
	C711.826965,703.900818 711.071228,704.911987 710.607910,705.952698 
	C710.072327,704.978333 709.408691,704.049072 709.044312,703.014404 
	C708.783386,702.273438 708.923340,701.391235 708.870911,700.287720 
	C701.712769,700.287720 694.640381,700.287720 687.281860,700.287720 
	C687.281860,703.388794 687.281860,706.445251 687.281860,710.002869 
	C692.332825,710.002869 697.280762,709.937866 702.223938,710.061584 
	C703.136658,710.084412 704.030273,710.870239 704.932739,711.303955 
	C703.995667,711.868469 703.074463,712.887634 702.118896,712.920776 
	C697.313171,713.087830 692.498535,712.997437 687.343567,712.997437 
	C687.343567,716.932190 687.343567,720.655518 687.343567,724.693848 
	C694.333130,724.693848 701.390747,724.693848 708.445496,724.693848 
	C709.508179,718.308899 709.508179,718.308899 712.789124,718.425964 
	C712.789124,721.366455 712.789124,724.321716 712.789124,727.998840 
	C703.112366,727.998840 693.367188,727.998840 683.141235,727.998779 
z"/>
<path fill="#FFFFFF" opacity="1.000000" stroke="none" 
	d="
M667.000000,627.996277 
	C667.000000,632.493652 667.017273,636.492126 666.995300,640.490417 
	C666.972046,644.713135 667.943115,648.145813 673.024719,648.570862 
	C674.817749,648.720764 676.600037,649.000000 678.733643,649.262817 
	C678.838379,650.520630 678.957581,651.951355 679.155396,654.326416 
	C674.731506,653.907532 670.385559,654.144226 666.469482,652.959778 
	C661.665039,651.506531 661.156372,646.652588 661.080078,642.470032 
	C660.855286,630.145752 661.000854,617.814819 660.994751,605.486450 
	C660.994446,604.841858 660.931885,604.197205 660.877991,603.163940 
	C658.038391,603.163940 655.294312,603.163940 652.277100,603.163940 
	C652.277100,601.033630 652.277100,599.291138 652.277100,597.271912 
	C656.922119,597.271912 661.673767,597.271912 667.000000,597.271912 
	C667.000000,607.305908 667.000000,617.401611 667.000000,627.996277 
z"/>
<path fill="#8FCB94" opacity="1.000000" stroke="none" 
	d="
M876.323486,714.305176 
	C870.340088,717.449280 864.532410,717.636536 858.382629,716.192017 
	C853.148743,714.962524 850.483765,711.836304 850.052307,706.763000 
	C849.661560,702.169983 852.828125,697.793884 858.196899,696.460938 
	C863.997498,695.020752 869.933960,694.603577 875.575195,697.855408 
	C879.659241,700.209595 881.630554,703.672729 881.958374,708.152283 
	C882.164246,710.965881 882.427246,713.897339 881.881775,716.619019 
	C880.682068,722.605408 877.463318,727.171448 871.038086,728.428162 
	C864.772949,729.653625 858.484985,729.950378 853.571594,724.921021 
	C852.055908,723.369629 851.493958,720.886597 850.495361,718.830139 
	C851.118408,718.390808 851.741455,717.951538 852.364563,717.512207 
	C853.437073,718.704712 854.778015,719.749878 855.529236,721.118774 
	C857.387512,724.505005 862.578979,726.629517 866.791992,725.457336 
	C874.287537,723.371887 878.291138,719.710266 877.902649,715.182068 
	C877.868713,714.786621 877.094604,714.454651 876.323486,714.305176 
M857.538818,700.893616 
	C852.856873,704.295715 852.492859,708.615540 857.037659,711.419189 
	C862.574219,714.834656 869.624573,714.754639 875.153992,710.432983 
	C878.824036,707.564697 877.988892,705.117615 875.057068,702.554626 
	C869.922241,698.065857 864.164795,698.190308 857.538818,700.893616 
z"/>
<path fill="#8FCB94" opacity="1.000000" stroke="none" 
	d="
M743.189941,728.997253 
	C741.550476,729.007080 740.316956,729.251648 739.237366,728.948486 
	C738.109192,728.631592 737.128967,727.787476 736.084106,727.173767 
	C736.761780,726.238953 737.242676,724.990356 738.149841,724.421509 
	C743.068726,721.336792 748.202698,718.585632 753.037781,715.380371 
	C755.749939,713.582520 758.379333,711.414551 760.417419,708.903137 
	C763.387634,705.243286 762.129089,701.782349 757.712036,700.017883 
	C750.180420,697.009277 744.237366,698.870117 739.035034,705.628662 
	C738.357056,706.509583 736.840454,706.744934 734.658447,707.778503 
	C735.840759,703.153625 736.596619,699.913940 740.082581,697.952759 
	C746.892090,694.121826 753.955139,694.531128 760.685364,697.433411 
	C767.878723,700.535461 767.627991,709.759827 760.555847,714.775146 
	C758.041687,716.558105 755.519043,718.335083 752.926392,719.999695 
	C750.529236,721.538696 748.033264,722.923889 744.874695,724.795166 
	C751.262634,724.795166 756.807312,724.795166 762.147339,724.795166 
	C764.729614,723.235840 760.157104,717.236145 766.751831,718.193237 
	C766.751831,721.724915 766.751831,725.129944 766.751831,728.991272 
	C758.896057,728.991272 751.279785,728.991272 743.189941,728.997253 
z"/>
<path fill="#92CB97" opacity="1.000000" stroke="none" 
	d="
M671.989136,706.667603 
	C670.993347,707.894897 670.001465,708.664368 668.576355,709.770020 
	C667.293762,700.385681 658.565063,696.628113 648.410400,699.999451 
	C642.133911,702.083191 639.140503,705.925720 638.994507,712.086060 
	C638.862427,717.658630 642.318420,723.443237 648.197937,724.408081 
	C655.079163,725.537231 662.698059,727.200134 668.141479,719.996155 
	C668.861694,719.042969 670.960571,719.131470 673.180969,718.532654 
	C670.248718,724.194519 666.858398,727.643738 661.082458,728.496643 
	C653.785645,729.574097 646.699280,729.719971 640.533386,724.952698 
	C634.706299,720.447266 633.972717,713.931580 635.362854,707.495239 
	C636.828125,700.710815 642.348694,697.715210 648.743774,695.957642 
	C654.683838,694.325134 660.184326,695.511108 665.850891,697.221313 
	C667.457581,697.706299 669.601257,696.411987 671.993103,695.809021 
	C671.993103,699.597168 671.993103,702.903442 671.989136,706.667603 
z"/>
<path fill="#FFFFFF" opacity="1.000000" stroke="none" 
	d="
M665.856934,530.000122 
	C669.223328,529.513794 669.024719,531.405762 669.017761,533.331238 
	C668.980042,543.757141 668.999939,554.183167 668.999939,564.826294 
	C671.989319,564.826294 674.599609,564.826294 677.763245,564.826294 
	C677.853943,566.522156 677.934692,568.032593 678.028320,569.783691 
	C669.630127,569.783691 661.559814,569.783691 653.244385,569.783691 
	C653.244385,568.311279 653.244385,566.911133 653.244385,565.139160 
	C656.293884,565.139160 659.376831,565.139160 662.728455,565.139160 
	C662.728455,555.388062 662.728455,545.998291 662.728455,536.210327 
	C659.756775,536.210327 656.686096,536.210327 653.507080,536.210327 
	C652.264832,531.829163 653.063293,529.527283 657.902710,529.961182 
	C660.375000,530.182861 662.883667,530.000000 665.856934,530.000122 
z"/>
<path fill="#FFFFFF" opacity="1.000000" stroke="none" 
	d="
M801.000000,627.071045 
	C801.000000,624.600830 801.000000,622.621765 801.000000,620.250610 
	C798.125916,620.250610 795.390381,620.250610 792.236755,620.250610 
	C792.123596,618.143127 792.029968,616.399658 791.918457,614.322998 
	C796.796997,614.322998 801.544189,614.322998 806.832031,614.322998 
	C806.832031,625.573425 806.832031,637.083862 806.832031,648.964111 
	C810.433777,648.964111 813.510132,648.964111 816.788330,648.964111 
	C816.788330,650.743896 816.788330,652.145874 816.788330,653.775146 
	C808.651672,653.775146 800.581787,653.775146 792.255432,653.775146 
	C792.255432,652.330872 792.255432,650.931946 792.255432,649.163574 
	C794.942261,649.163574 797.691589,649.163574 801.000000,649.163574 
	C801.000000,641.729309 801.000000,634.645691 801.000000,627.071045 
z"/>
<path fill="#92CB97" opacity="1.000000" stroke="none" 
	d="
M772.005859,712.022766 
	C771.309204,700.868713 779.657410,695.794373 788.853333,695.122864 
	C798.273010,694.434998 805.699097,702.561890 806.072693,712.344666 
	C806.397583,720.852539 799.118896,729.466919 788.979248,729.081787 
	C778.610718,728.687988 772.030396,722.602905 772.005859,712.022766 
M800.126587,705.590088 
	C795.826111,698.599182 788.179810,696.825500 781.280640,701.339050 
	C775.506897,705.116272 773.662659,713.379333 777.875122,719.645508 
	C781.513672,725.057861 789.519714,727.112549 795.079468,723.992615 
	C801.540161,720.367126 803.728821,713.383301 800.126587,705.590088 
z"/>
<path fill="#8FCB94" opacity="1.000000" stroke="none" 
	d="
M822.570435,696.182373 
	C833.722778,694.350708 840.984314,697.148010 843.947388,705.349731 
	C847.120911,714.133789 845.805725,722.930603 836.260742,727.266174 
	C826.341980,731.771545 816.794312,728.017212 812.229004,719.688843 
	C807.610901,711.264160 812.167358,701.507507 822.570435,696.182373 
M837.322021,702.061462 
	C836.638367,701.643677 835.960632,701.215759 835.270142,700.809692 
	C829.441528,697.382141 820.723633,699.007812 817.313660,704.332153 
	C813.536194,710.230225 813.719482,717.747253 820.534607,723.002502 
	C825.369385,726.730469 833.632080,726.567505 838.077515,721.472168 
	C841.793640,717.212708 843.930908,710.564697 837.322021,702.061462 
z"/>
<path fill="#FBFDFB" opacity="1.000000" stroke="none" 
	d="
M327.019348,481.580139 
	C322.292450,488.845581 317.499146,495.699066 312.839569,502.642334 
	C311.763702,504.245544 311.145447,506.155853 309.910614,508.791260 
	C304.338165,505.245605 299.162262,501.952271 293.569885,498.393951 
	C301.407043,490.610931 310.971680,487.409393 319.839203,482.435486 
	C322.374298,481.850830 324.687958,481.525818 327.019348,481.580139 
z"/>
<path fill="#FBFDFB" opacity="1.000000" stroke="none" 
	d="
M387.981567,678.427856 
	C390.002808,675.977966 392.479279,674.194458 393.997620,671.802673 
	C397.980652,665.528259 401.545959,658.988647 405.686371,651.850159 
	C410.769135,655.059509 415.860229,658.274109 421.648285,661.928772 
	C413.337891,668.910889 404.580627,673.429382 395.225037,677.616333 
	C392.708588,678.603394 390.790161,681.859131 387.981567,678.427856 
z"/>
<path fill="#FBFDFB" opacity="1.000000" stroke="none" 
	d="
M394.550049,482.117706 
	C402.827911,486.699463 410.736725,491.207703 418.617493,495.764496 
	C419.439850,496.239960 420.095978,497.002991 421.600311,498.294647 
	C416.005371,501.878967 410.841553,505.187103 406.414673,508.023102 
	C400.147369,498.916931 394.382660,490.540924 388.290833,482.061646 
	C388.571869,481.411469 389.290588,480.321106 389.767700,480.418243 
	C391.284546,480.726929 392.711365,481.477966 394.550049,482.117706 
z"/>
<path fill="#FBFDFB" opacity="1.000000" stroke="none" 
	d="
M320.380280,678.004395 
	C311.399750,673.114624 302.764557,668.379150 294.129395,663.643616 
	C294.156586,662.927551 294.183777,662.211426 294.210968,661.495361 
	C298.777191,658.671509 303.264984,655.699524 307.998901,653.192383 
	C308.667145,652.838440 311.007568,654.455200 311.771545,655.666077 
	C315.925476,662.250000 319.794159,669.013306 323.855316,675.657166 
	C324.419006,676.579346 325.505157,677.182190 326.693298,677.985718 
	C325.017761,682.515991 322.842834,678.820496 320.380280,678.004395 
z"/>
<path fill="#8FCB94" opacity="1.000000" stroke="none" 
	d="
M570.000610,714.971680 
	C570.000610,709.845520 570.000610,705.212524 570.000610,700.210938 
	C567.633362,700.094788 565.553894,699.992798 563.147400,699.874756 
	C562.819946,697.658142 562.562073,696.088257 565.942993,695.925720 
	C578.241089,695.334595 579.576538,695.551025 579.762451,699.743591 
	C578.020569,699.888672 576.263367,700.035095 573.999207,700.223694 
	C573.999207,704.401855 573.999207,708.518005 573.999207,712.634094 
	C573.999207,716.597717 573.999207,720.561340 573.999207,723.898499 
	C576.344849,725.037231 578.137695,725.907654 579.930542,726.778015 
	C578.009583,727.184937 576.103638,727.817993 574.164246,727.946350 
	C571.182800,728.143677 568.170593,728.112244 565.188416,727.918152 
	C564.322815,727.861816 563.515015,726.918152 563.122437,725.272461 
	C565.216675,725.123657 567.310913,724.974854 570.000610,724.783752 
	C570.000610,721.678406 570.000610,718.571655 570.000610,714.971680 
z"/>
<path fill="#FFFFFF" opacity="1.000000" stroke="none" 
	d="
M660.229736,521.585327 
	C659.788330,516.979065 661.790100,514.794800 666.037170,515.032166 
	C669.934509,515.250000 670.466370,518.171631 669.866760,521.069458 
	C669.566528,522.520325 667.710205,524.873596 666.861694,524.749023 
	C664.628418,524.421143 662.561646,522.959534 660.229736,521.585327 
z"/>
<path fill="#FFFFFF" opacity="1.000000" stroke="none" 
	d="
M799.000854,603.175537 
	C799.615540,599.061890 802.481201,598.105591 805.132812,599.292603 
	C806.889282,600.078918 809.112122,603.394531 808.650452,604.706970 
	C807.998840,606.559509 805.192139,608.470703 803.065979,608.799500 
	C799.756531,609.311340 798.797302,606.580811 799.000854,603.175537 
z"/>
<path fill="#FDFEFD" opacity="1.000000" stroke="none" 
	d="
M362.961487,613.997192 
	C362.961456,604.353210 362.961456,595.208435 362.961456,585.214539 
	C365.862305,585.214539 368.441864,585.214478 371.021454,585.214539 
	C381.510773,585.214539 392.000214,585.240906 402.489319,585.196228 
	C405.069824,585.185242 407.112152,585.372498 406.920135,588.851562 
	C406.020935,605.141541 403.778290,621.177734 398.660919,636.508057 
	C389.826233,634.525024 381.289490,632.609131 372.753113,630.691528 
	C372.428406,630.618591 372.111786,630.497009 371.783997,630.452148 
	C369.032318,630.075317 364.842499,630.640503 363.862030,629.125427 
	C362.384644,626.842346 363.111633,623.109741 362.976044,619.990112 
	C362.896576,618.162048 362.961517,616.327820 362.961487,613.997192 
z"/>
<path fill="#FDFEFD" opacity="1.000000" stroke="none" 
	d="
M308.298645,589.882568 
	C307.777740,586.545349 308.766937,585.146179 311.958313,585.173279 
	C324.097046,585.276367 336.237244,585.244934 348.376648,585.199585 
	C351.111755,585.189392 352.227386,586.316772 352.209839,589.092224 
	C352.131042,601.563965 352.239197,614.037415 352.061066,626.507080 
	C352.044128,627.692932 350.671844,629.700378 349.648621,629.901611 
	C338.809906,632.033020 327.914368,633.875488 316.325531,635.922791 
	C311.247101,621.828918 309.252991,606.175354 308.298645,589.882568 
z"/>
<path fill="#FEFEFE" opacity="1.000000" stroke="none" 
	d="
M405.953674,559.265869 
	C406.298035,563.522949 406.887146,567.340271 406.721558,571.124573 
	C406.663879,572.442993 404.762665,574.767395 403.667938,574.788452 
	C390.392120,575.043640 377.109741,574.953979 363.616058,574.953979 
	C363.361542,573.739746 363.001465,572.814575 362.998505,571.888245 
	C362.958618,559.419250 362.984253,546.950073 362.951874,534.481079 
	C362.945862,532.159302 363.087494,530.528015 366.158173,529.997131 
	C375.922394,528.308899 385.613464,526.198303 395.336029,524.267090 
	C396.288269,524.078003 397.262726,524.000732 399.538239,523.695801 
	C401.672638,535.474365 403.787231,547.143799 405.953674,559.265869 
z"/>
<path fill="#FEFEFE" opacity="1.000000" stroke="none" 
	d="
M351.285339,530.833984 
	C351.808746,544.765869 352.046570,558.399841 352.024750,572.033325 
	C352.023193,573.010254 350.135254,574.817139 349.103058,574.832825 
	C336.441589,575.025391 323.775055,575.022400 311.113800,574.820251 
	C310.149536,574.804871 308.355652,572.862793 308.396149,571.875671 
	C309.024658,556.554199 311.083771,541.432190 315.506989,526.698425 
	C315.784607,525.773621 316.257721,524.907471 316.448944,524.460449 
	C328.159210,526.523376 339.547821,528.529663 351.285339,530.833984 
z"/>
<path fill="#000000" opacity="1.000000" stroke="none" 
	d="
M617.856201,566.000000 
	C614.365112,565.575439 611.098328,565.696045 608.376465,564.536926 
	C606.525513,563.748657 604.286438,561.142700 604.324585,559.395508 
	C604.364685,557.554504 606.546387,554.984070 608.429199,554.119995 
	C612.442871,552.278015 616.793518,550.912903 621.145874,550.136292 
	C625.790588,549.307556 630.596497,549.382080 635.994629,549.017517 
	C635.994629,552.131104 636.126831,555.221985 635.914185,558.289062 
	C635.850281,559.210022 635.008423,560.584839 634.211243,560.865173 
	C628.959229,562.711975 623.622070,564.316467 617.856201,566.000000 
z"/>
<path fill="#000000" opacity="1.000000" stroke="none" 
	d="
M755.420227,554.213440 
	C764.617615,552.044373 773.472595,550.064880 782.788086,547.982422 
	C782.788086,553.043030 782.788086,556.813232 782.788086,560.509827 
	C775.163635,565.091553 766.924316,567.358643 758.176514,565.559631 
	C751.473206,564.181152 750.337524,559.230408 755.420227,554.213440 
z"/>
<path fill="#000000" opacity="1.000000" stroke="none" 
	d="
M642.993408,630.569580 
	C645.397034,648.277405 630.349609,652.039490 616.268982,649.191833 
	C608.522644,647.625244 605.275085,642.569031 604.172302,635.910583 
	C603.156982,629.780457 606.440796,624.722839 611.340454,621.317688 
	C621.057007,614.564758 637.687622,619.364624 642.993408,630.569580 
z"/>
<path fill="#000000" opacity="1.000000" stroke="none" 
	d="
M843.247803,619.000000 
	C849.226440,619.044006 854.704712,618.543457 859.714233,622.086121 
	C864.681946,625.599182 866.266724,630.485657 865.866882,635.897461 
	C865.446533,641.585999 862.779785,647.142578 856.914429,648.300659 
	C850.546631,649.557922 843.578857,649.935913 837.255005,648.715820 
	C829.157532,647.153381 825.931824,640.589844 827.002869,631.809631 
	C827.928040,624.225403 833.688171,619.550354 843.247803,619.000000 
z"/>
<path fill="#000000" opacity="1.000000" stroke="none" 
	d="
M857.845703,700.624268 
	C864.164795,698.190308 869.922241,698.065857 875.057068,702.554626 
	C877.988892,705.117615 878.824036,707.564697 875.153992,710.432983 
	C869.624573,714.754639 862.574219,714.834656 857.037659,711.419189 
	C852.492859,708.615540 852.856873,704.295715 857.845703,700.624268 
z"/>
<path fill="#000000" opacity="1.000000" stroke="none" 
	d="
M800.395630,705.880371 
	C803.728821,713.383301 801.540161,720.367126 795.079468,723.992615 
	C789.519714,727.112549 781.513672,725.057861 777.875122,719.645508 
	C773.662659,713.379333 775.506897,705.116272 781.280640,701.339050 
	C788.179810,696.825500 795.826111,698.599182 800.395630,705.880371 
z"/>
<path fill="#000000" opacity="1.000000" stroke="none" 
	d="
M837.645081,702.277710 
	C843.930908,710.564697 841.793640,717.212708 838.077515,721.472168 
	C833.632080,726.567505 825.369385,726.730469 820.534607,723.002502 
	C813.719482,717.747253 813.536194,710.230225 817.313660,704.332153 
	C820.723633,699.007812 829.441528,697.382141 835.270142,700.809692 
	C835.960632,701.215759 836.638367,701.643677 837.645081,702.277710 
z"/>
</svg>