<?xml version="1.0" encoding="UTF-8" standalone="no" ?>
<!DOCTYPE svg PUBLIC "-//W3C//DTD SVG 1.1//EN" "http://www.w3.org/Graphics/SVG/1.1/DTD/svg11.dtd">
<svg xmlns="http://www.w3.org/2000/svg" xmlns:xlink="http://www.w3.org/1999/xlink" version="1.1" width="640" height="480" viewBox="0 0 640 480" xml:space="preserve">
<desc>Created with Fabric.js 3.6.6</desc>
<defs>
</defs>
<g transform="matrix(4.72 0 0 3.67 345.4 226.2)"  >
<polygon style="stroke: rgb(0,0,0); stroke-width: 8; stroke-dasharray: none; stroke-linecap: butt; stroke-dashoffset: 0; stroke-linejoin: miter; stroke-miterlimit: 4; fill: rgb(115,188,190); fill-rule: nonzero; opacity: 1;"  points="-50,-50 -50,50 50,50 50,-50 " />
</g>
<g transform="matrix(1 0 0 1 194.5 234)"  >
<path style="stroke: rgb(0,0,0); stroke-width: 1; stroke-dasharray: none; stroke-linecap: round; stroke-dashoffset: 0; stroke-linejoin: round; stroke-miterlimit: 10; fill: none; fill-rule: nonzero; opacity: 1;"  transform=" translate(-194.5, -234)" d="M 194.499 234 L 194.501 234" stroke-linecap="round" />
</g>
<g transform="matrix(1 0 0 1 199.5 227)"  >
<path style="stroke: rgb(175,39,39); stroke-width: 1; stroke-dasharray: none; stroke-linecap: round; stroke-dashoffset: 0; stroke-linejoin: round; stroke-miterlimit: 10; fill: none; fill-rule: nonzero; opacity: 1;"  transform=" translate(-199.5, -227)" d="M 199.499 227 L 199.501 227" stroke-linecap="round" />
</g>
<g transform="matrix(1 0 0 1 206.5 227)"  >
<path style="stroke: rgb(175,39,39); stroke-width: 1; stroke-dasharray: none; stroke-linecap: round; stroke-dashoffset: 0; stroke-linejoin: round; stroke-miterlimit: 10; fill: none; fill-rule: nonzero; opacity: 1;"  transform=" translate(-206.5, -227)" d="M 206.499 227 L 206.501 227" stroke-linecap="round" />
</g>
<g transform="matrix(1 0 0 1 206.5 227)"  >
<path style="stroke: rgb(175,39,39); stroke-width: 1; stroke-dasharray: none; stroke-linecap: round; stroke-dashoffset: 0; stroke-linejoin: round; stroke-miterlimit: 10; fill: none; fill-rule: nonzero; opacity: 1;"  transform=" translate(-206.5, -227)" d="M 206.499 227 L 206.501 227" stroke-linecap="round" />
</g>
<g transform="matrix(1 0 0 1 364 354.63)" style=""  >
		<text xml:space="preserve" font-family="'Open Sans', sans-serif" font-size="25" font-style="normal" font-weight="bold" style="stroke: none; stroke-width: 1; stroke-dasharray: none; stroke-linecap: butt; stroke-dashoffset: 0; stroke-linejoin: miter; stroke-miterlimit: 4; fill: rgb(20,55,133); fill-rule: nonzero; opacity: 1; white-space: pre;" ><tspan x="-75" y="7.85" >Since 2009</tspan></text>
</g>
<g transform="matrix(1 0 0 4.29 346.5 213.79)" style=""  >
		<text xml:space="preserve" font-family="'Open Sans', sans-serif" font-size="44" font-style="normal" font-weight="bold" style="stroke: none; stroke-width: 1; stroke-dasharray: none; stroke-linecap: butt; stroke-dashoffset: 0; stroke-linejoin: miter; stroke-miterlimit: 4; fill: rgb(14,57,93); fill-rule: nonzero; opacity: 1; white-space: pre;" ><tspan x="-200.5" y="13.82" style="stroke-width: 1; font-family: 'Open Sans', sans-serif; font-style: italic; text-decoration: underline; ">Sainar</tspan><tspan x="-60.78" y="13.82" style="stroke-width: 1; font-family: 'Open Sans', sans-serif; font-style: normal; white-space: pre; "> </tspan><tspan x="-49.35" y="13.82" style="stroke-width: 1; font-family: 'Open Sans', sans-serif; font-style: italic; text-decoration: underline; ">Solutions</tspan></text>
</g>
<g transform="matrix(3.06 0 0 0.75 356.17 353.89)"  >
<circle style="stroke: rgb(0,0,0); stroke-width: 8; stroke-dasharray: none; stroke-linecap: butt; stroke-dashoffset: 0; stroke-linejoin: miter; stroke-miterlimit: 4; fill: none; fill-rule: nonzero; opacity: 1;"  cx="0" cy="0" r="40" />
</g>
<g transform="matrix(1 0 0 1 242.5 91)"  >
<path style="stroke: rgb(175,39,39); stroke-width: 1; stroke-dasharray: none; stroke-linecap: round; stroke-dashoffset: 0; stroke-linejoin: round; stroke-miterlimit: 10; fill: none; fill-rule: nonzero; opacity: 1;"  transform=" translate(-242.5, -91)" d="M 242.499 91 L 242.501 91" stroke-linecap="round" />
</g>
</svg>