<svg version="1.1" id="Layer_1" xmlns="http://www.w3.org/2000/svg" xmlns:xlink="http://www.w3.org/1999/xlink" x="0px" y="0px"
	 width="100%" viewBox="0 0 1200 1200" enable-background="new 0 0 1200 1200" xml:space="preserve">
<path fill="#2B3359" opacity="1.000000" stroke="none" 
	d="
M642.000000,1201.000000 
	C428.000000,1201.000000 214.500000,1201.000000 1.000000,1201.000000 
	C1.000000,801.000000 1.000000,401.000000 1.000000,1.000000 
	C401.000000,1.000000 801.000000,1.000000 1201.000000,1.000000 
	C1201.000000,401.000000 1201.000000,801.000000 1201.000000,1201.000000 
	C1014.833313,1201.000000 828.666687,1201.000000 642.000000,1201.000000 
M877.957214,713.883118 
	C878.156067,714.066711 878.354919,714.250305 878.550110,715.182556 
	C876.383667,718.344788 874.868958,722.690857 871.870422,724.341370 
	C868.776428,726.044434 863.979187,726.060913 860.411072,725.070801 
	C857.287720,724.204102 854.835876,720.917114 852.087402,718.699341 
	C851.732117,719.017517 851.376831,719.335693 851.021545,719.653931 
	C852.149963,721.551086 852.916382,723.837769 854.468018,725.279480 
	C862.115967,732.385864 877.474182,728.617371 880.807678,718.763062 
	C883.047974,712.140869 883.169739,705.398254 877.631714,700.182068 
	C871.929138,694.810913 864.895081,694.936157 857.926514,697.145142 
	C853.461609,698.560486 850.527283,701.701111 850.687622,706.762695 
	C850.849976,711.887451 854.210571,714.500916 858.658203,715.803528 
	C865.225525,717.726868 871.505005,716.704468 877.957214,713.883118 
M461.127045,562.409485 
	C460.796814,561.911133 460.466583,561.412842 459.943512,560.153198 
	C455.645874,540.291809 447.086975,522.640991 432.697021,508.082184 
	C431.577637,506.949677 429.711090,506.555634 428.074982,505.118011 
	C424.358917,498.614197 420.743011,492.049347 416.845001,485.656494 
	C416.035278,484.328613 414.210297,482.849396 412.800720,482.794800 
	C407.507172,482.589691 402.191925,482.945282 396.068909,482.914001 
	C393.861511,482.597443 391.654083,482.280884 388.644257,482.309967 
	C384.380554,482.582336 380.116882,482.854706 375.250641,482.849609 
	C371.428284,480.664368 367.605927,478.479095 362.878571,475.776459 
	C362.878571,478.889771 362.878571,480.508057 362.030731,482.420532 
	C358.820526,482.285217 355.610352,482.149902 352.346436,481.165558 
	C352.175385,479.825958 352.004303,478.486359 351.692200,476.042297 
	C346.939148,478.714722 343.032654,480.911163 338.373230,482.792480 
	C333.964355,482.269897 329.555481,481.747284 324.371948,481.136017 
	C322.292969,481.794830 320.213959,482.453674 317.372986,482.790833 
	C312.559540,482.741516 307.735718,482.498901 302.938751,482.756622 
	C301.431671,482.837555 299.381042,483.891479 298.631348,485.134644 
	C294.525482,491.942871 290.746887,498.948486 286.126740,505.829773 
	C284.661163,506.750397 282.930908,507.417664 281.770325,508.630188 
	C267.616730,523.416626 259.052704,541.101990 254.389496,561.474182 
	C251.518784,566.507202 246.563370,571.458008 246.360657,576.596252 
	C246.155869,581.787598 250.656662,587.166931 253.115646,592.454773 
	C253.245178,592.733337 253.557373,592.927002 253.970276,593.946167 
	C257.782074,617.179565 267.213745,637.591370 284.245056,654.547424 
	C284.245056,654.547424 284.518738,654.761719 284.518738,654.761719 
	C284.518738,654.761719 284.841797,654.632080 285.516998,654.741272 
	C285.717468,654.632690 285.917969,654.524170 286.780151,654.729614 
	C290.580811,661.317688 294.212769,668.013428 298.301666,674.417419 
	C299.314240,676.003296 301.749359,677.425415 303.633789,677.569031 
	C309.079773,677.984070 314.578339,677.709351 320.802155,677.890137 
	C322.282959,678.227905 323.763794,678.565674 326.038696,678.714172 
	C330.728943,678.367798 335.419159,678.021423 340.732086,678.001709 
	C344.207581,679.975708 347.683044,681.949707 351.899628,684.344666 
	C352.164886,681.286255 352.305328,679.667114 353.289581,677.897949 
	C356.472107,677.922668 359.654663,677.947327 362.923889,678.869751 
	C362.993652,680.317810 363.063446,681.765930 363.189575,684.383789 
	C367.567657,681.903564 371.261749,679.810791 375.893188,677.737610 
	C380.329468,677.807861 384.765778,677.878174 389.332489,678.670715 
	C391.207336,678.350586 393.082214,678.030457 395.894806,677.797913 
	C400.525452,677.771667 405.177399,677.460449 409.780304,677.804871 
	C413.828339,678.107788 416.017181,676.584229 417.883759,673.045654 
	C421.251709,666.660950 425.185242,660.574524 429.533234,654.692078 
	C430.434570,654.042847 431.453064,653.508606 432.220001,652.727417 
	C448.341248,636.306274 457.556671,616.494080 461.465057,593.375366 
	C463.840576,589.049072 466.301086,584.765991 468.534485,580.367554 
	C469.127045,579.200623 469.652191,577.333496 469.129150,576.379272 
	C466.619171,571.800171 463.739136,567.423889 460.979431,563.012695 
	C460.979431,563.012695 461.015045,563.026306 461.127045,562.409485 
M575.958984,631.186096 
	C578.291809,632.716980 581.127014,633.823486 582.853271,635.866821 
	C586.487671,640.168640 584.138977,646.607483 577.470947,647.939087 
	C569.279419,649.574829 560.694580,650.095581 552.326965,649.792969 
	C540.140259,649.352295 537.140869,645.976501 535.725952,633.795959 
	C534.371643,633.924622 533.010742,634.053894 531.702515,634.178162 
	C531.702515,640.960571 531.702515,647.264282 531.702515,655.407532 
	C534.281006,653.362183 535.863464,652.106934 537.882141,650.505676 
	C537.914185,650.519287 538.802246,650.931030 539.715332,651.276672 
	C553.297363,656.418762 567.028748,656.681335 580.704773,651.942810 
	C586.005859,650.106140 589.799744,646.428040 590.039734,640.236816 
	C590.285156,633.903625 586.344116,630.365112 581.237793,628.193054 
	C576.840454,626.322693 572.106750,625.196411 567.463013,623.962341 
	C559.452271,621.833618 551.329773,620.099121 543.390930,617.739014 
	C540.170166,616.781494 536.905701,614.270142 538.056458,610.440063 
	C538.841309,607.827637 541.236206,604.598755 543.644958,603.764648 
	C554.131470,600.133362 564.866516,600.103088 575.353394,604.151855 
	C578.967712,605.547302 581.258179,608.144653 581.719543,612.346558 
	C581.860352,613.628967 583.678162,614.727173 584.727966,615.909668 
	C585.145630,615.582886 585.563293,615.256042 585.980957,614.929199 
	C585.980957,609.313477 585.980957,603.697693 585.980957,596.310730 
	C583.368408,598.483032 581.756348,599.823425 580.047729,601.244080 
	C570.507690,596.243835 559.907715,595.968323 549.228149,597.351440 
	C545.527344,597.830750 541.712097,599.126465 538.447632,600.944519 
	C529.839844,605.738342 529.806213,616.054626 538.339905,620.937866 
	C541.602783,622.804993 545.310425,624.097168 548.974365,625.021057 
	C557.664673,627.212402 566.450012,629.026855 575.958984,631.186096 
M583.586304,559.579285 
	C581.656616,561.083801 579.946594,563.297974 577.760681,563.974670 
	C566.009033,567.612427 554.143738,567.427856 542.486450,563.516235 
	C538.176575,562.070068 535.808167,558.743896 536.118164,553.892883 
	C536.199646,552.617859 535.972046,551.323059 535.870789,549.803345 
	C534.348877,549.909607 533.095093,549.997192 531.779175,550.089111 
	C531.779175,556.837036 531.779175,563.259033 531.779175,569.681030 
	C532.158875,570.003479 532.538635,570.325928 532.918335,570.648376 
	C534.447632,569.275391 535.976868,567.902405 537.436523,566.591919 
	C551.701477,572.201965 566.491577,573.164001 581.350342,567.682800 
	C586.242493,565.878113 589.700745,562.257996 590.036804,556.537292 
	C590.378113,550.727356 587.214905,546.952515 582.368530,544.829712 
	C577.691223,542.780945 572.702148,541.372314 567.757263,540.022644 
	C559.602661,537.796875 551.241821,536.233826 543.257629,533.534546 
	C540.940430,532.751160 538.654541,529.261841 538.057312,526.627014 
	C537.197693,522.834351 540.463623,520.539490 543.765198,519.528137 
	C554.213684,516.327576 564.726318,516.163147 575.071716,520.032654 
	C578.684204,521.383911 581.515747,523.817627 581.511780,528.055481 
	C581.508423,531.673340 583.263000,531.726257 585.903198,530.903442 
	C585.903198,525.162109 585.903198,519.573303 585.903198,512.275452 
	C583.334839,514.391235 581.779724,515.672363 579.944519,517.184204 
	C579.774719,517.103088 578.901672,516.603394 577.972046,516.254517 
	C565.520081,511.581268 552.978027,511.133362 540.459656,515.846069 
	C535.613342,517.670532 532.358215,521.162231 532.105469,526.611755 
	C531.847839,532.166931 535.065796,535.778076 539.780457,537.789185 
	C544.025146,539.599854 548.544128,540.840881 553.027771,542.002380 
	C561.212036,544.122437 569.596436,545.566772 577.635376,548.118530 
	C583.548706,549.995483 584.613586,552.764404 583.586304,559.579285 
M937.859375,653.482361 
	C937.859375,652.118103 937.859375,650.753845 937.859375,649.056885 
	C934.416504,649.056885 931.813477,649.056885 928.777893,649.056885 
	C928.777893,645.270203 928.778931,641.810669 928.777649,638.351135 
	C928.776367,634.855774 928.879456,631.356445 928.749512,627.865845 
	C928.406250,618.643066 923.978088,614.221375 914.835693,613.730713 
	C907.927979,613.359985 901.721680,615.352478 896.007263,619.118591 
	C894.863220,619.872498 893.688293,620.579834 892.256165,621.479126 
	C892.072937,618.957092 891.934875,617.056519 891.797729,615.168945 
	C886.969971,615.168945 882.540588,615.168945 877.702576,615.168945 
	C877.868713,616.803528 878.007935,618.173889 878.172424,619.792358 
	C881.229004,619.792358 883.852356,619.792358 886.681763,619.792358 
	C886.681763,629.668579 886.681763,639.249573 886.681763,649.275879 
	C883.706299,649.275879 880.964905,649.275879 878.059143,649.275879 
	C878.059143,651.117981 878.059143,652.505310 878.059143,653.867432 
	C885.843567,653.867432 893.299988,653.867432 900.910278,653.867432 
	C900.910278,652.303162 900.910278,650.907166 900.910278,649.094971 
	C897.853882,649.094971 895.113098,649.094971 892.042358,649.094971 
	C892.042358,642.050598 891.991089,635.416809 892.096375,628.785461 
	C892.112610,627.763245 892.552124,626.363586 893.296875,625.796814 
	C900.238953,620.513428 907.831604,616.581177 916.778015,619.069214 
	C919.249939,619.756653 922.572083,622.905640 922.788513,625.183228 
	C923.532898,633.018311 923.074585,640.967590 923.074585,648.836731 
	C914.299500,649.832092 914.299500,649.832092 914.714355,653.946289 
	C922.135620,653.946289 929.596558,653.946289 937.859375,653.482361 
M706.061646,531.526794 
	C702.489563,533.384644 698.917480,535.242493 695.244202,537.152954 
	C695.062256,534.932739 694.906433,533.030701 694.755432,531.187683 
	C689.933167,531.187683 685.503662,531.187683 680.662415,531.187683 
	C680.860291,532.839233 681.023376,534.200562 681.217407,535.820618 
	C684.273499,535.820618 686.889099,535.820618 689.663452,535.820618 
	C689.663452,545.721375 689.663452,555.305542 689.663452,565.050659 
	C686.666321,565.185242 683.917358,565.308594 681.095337,565.435303 
	C681.095337,567.166077 681.095337,568.535461 681.095337,569.835449 
	C688.911194,569.835449 696.361755,569.835449 704.180115,569.835449 
	C704.090088,568.223572 704.011780,566.821472 703.911316,565.021790 
	C700.799377,565.021790 698.056458,565.021790 695.043091,565.021790 
	C695.043091,557.966187 695.008972,551.325867 695.083252,544.686646 
	C695.093323,543.787231 695.423950,542.711792 695.984009,542.026672 
	C700.362732,536.669800 713.838318,532.568481 720.370605,535.142700 
	C722.638000,536.036194 725.592224,538.731262 725.753784,540.797302 
	C726.380310,548.809143 726.008667,556.899048 726.008667,564.924805 
	C717.211060,565.705444 717.211060,565.705444 717.809937,569.822510 
	C725.396973,569.822510 733.002991,569.822510 740.968933,569.822510 
	C740.856445,568.235474 740.760376,566.879944 740.630676,565.050293 
	C737.522949,565.050293 734.791382,565.050293 731.777832,565.050293 
	C731.777832,558.741943 731.782532,552.935608 731.776917,547.129272 
	C731.763550,533.328491 725.910522,528.201843 712.113953,529.981995 
	C710.312500,530.214355 708.554443,530.782593 706.061646,531.526794 
M763.930054,534.672852 
	C776.497559,533.005981 783.194641,536.071472 783.534668,544.180603 
	C780.302185,544.450806 776.968994,544.391479 773.790466,545.063477 
	C766.534241,546.597656 759.038452,547.711487 752.236023,550.467407 
	C746.094238,552.955750 744.226013,561.293640 748.608704,565.498535 
	C751.561218,568.331238 756.377686,570.755127 760.319824,570.695312 
	C767.949768,570.579529 775.551147,568.581116 783.607178,567.292114 
	C783.658325,567.460999 784.047791,568.746887 784.328369,569.673096 
	C789.394226,569.673096 793.986328,569.673096 798.799316,569.673096 
	C798.533142,561.685547 791.751282,567.366150 789.187256,564.476746 
	C789.177185,564.457947 789.033813,564.315369 789.032959,564.171936 
	C788.993286,557.511719 789.015137,550.850830 788.923584,544.191406 
	C788.829285,537.332764 785.888000,532.366760 779.384583,531.418701 
	C772.460144,530.409302 765.208923,530.667908 758.220520,531.448242 
	C754.253784,531.891174 750.611328,534.574707 749.316650,541.155945 
	C752.266602,539.828552 754.142456,539.003296 756.002136,538.143005 
	C758.359314,537.052490 760.703308,535.933594 763.930054,534.672852 
M641.077454,562.294128 
	C641.075928,556.132507 641.126038,549.970398 641.058777,543.809509 
	C640.987000,537.239502 638.104553,532.385010 631.740906,531.452637 
	C624.815430,530.437927 617.570801,530.679688 610.575439,531.417480 
	C606.545654,531.842651 602.982361,534.594788 601.637207,540.242004 
	C603.856262,539.917297 606.085999,540.269043 607.196899,539.316223 
	C613.445129,533.957092 624.764771,532.367920 631.820312,536.336609 
	C634.740173,537.979065 636.648621,540.272095 635.593384,544.277954 
	C632.181946,544.530396 628.807861,544.416321 625.599915,545.091614 
	C618.501587,546.585999 611.315125,547.988464 604.499329,550.381653 
	C600.095459,551.928101 598.336182,556.191284 598.900208,561.056519 
	C599.451416,565.810913 602.499207,568.419739 606.672974,569.849731 
	C608.686829,570.539734 611.002991,571.263123 613.000793,570.918579 
	C619.967285,569.717102 626.855042,568.058960 633.770691,566.564514 
	C634.383728,566.432007 634.981262,566.227417 635.662476,566.034668 
	C635.919678,567.474976 636.135559,568.684204 636.337830,569.817139 
	C641.286499,569.817139 645.910278,569.817139 650.909180,569.817139 
	C650.796509,568.235168 650.700317,566.885193 650.583252,565.241211 
	C648.202271,565.241211 646.186340,565.470703 644.260132,565.154053 
	C643.128235,564.968018 642.139099,563.913818 641.077454,562.294128 
M953.191589,614.540161 
	C948.360229,615.865112 944.340027,618.185242 944.410950,623.869019 
	C944.480835,629.463074 948.430725,631.929993 953.258179,633.233582 
	C955.978943,633.968262 958.761414,634.476013 961.520020,635.067932 
	C965.900696,636.007874 970.475037,636.446899 974.590027,638.060303 
	C976.781799,638.919617 979.803162,642.055847 979.542480,643.704651 
	C979.188477,645.943420 976.165955,649.285522 974.083496,649.442505 
	C967.583862,649.932434 960.891052,649.696045 954.480774,648.564880 
	C952.156982,648.154724 950.453918,644.390076 948.399841,642.220215 
	C947.355530,641.117004 946.160950,640.156006 944.109375,638.289001 
	C944.109375,644.629028 944.109375,649.195984 944.109375,655.043213 
	C946.509460,653.592651 948.146118,652.603516 949.928345,651.526428 
	C958.820801,655.672241 968.364136,656.570007 978.091431,653.057068 
	C982.107178,651.606873 984.841614,648.789856 985.002869,644.201294 
	C985.163269,639.636841 982.722290,636.584534 978.792725,634.852173 
	C975.934448,633.592102 972.860535,632.748108 969.812622,632.007507 
	C964.334290,630.676331 958.718262,629.838745 953.347046,628.186096 
	C951.762695,627.698669 949.638367,624.974243 949.858215,623.613708 
	C950.140015,621.869263 952.295837,619.611938 954.080078,619.102905 
	C957.362244,618.166443 960.973389,618.013306 964.428406,618.124146 
	C973.137146,618.403687 975.817383,620.468933 978.044495,627.785156 
	C979.314331,627.785156 980.549622,627.785156 981.796509,627.785156 
	C981.796509,623.371216 981.796509,619.260925 981.796509,614.733887 
	C979.337952,615.251587 977.169739,616.182861 975.059631,616.065857 
	C968.015930,615.675476 960.993164,614.909668 953.191589,614.540161 
M680.963867,618.901062 
	C683.827759,619.320435 686.691650,619.739746 689.851990,620.202454 
	C689.851990,623.938965 689.846924,627.579224 689.853455,631.219482 
	C689.860046,634.883545 689.787781,638.550598 689.909729,642.211060 
	C690.166931,649.930420 694.563721,655.048218 702.269958,654.977112 
	C707.757874,654.926453 713.305542,653.372131 718.675049,651.926147 
	C721.232605,651.237366 723.437195,649.237732 726.004700,647.711304 
	C726.282898,650.065125 726.508667,651.975647 726.726990,653.822876 
	C731.584167,653.822876 736.044373,653.822876 740.886536,653.822876 
	C740.774841,652.229919 740.680176,650.880188 740.549866,649.023071 
	C737.430603,649.023071 734.703613,649.023071 731.533569,649.023071 
	C731.533569,637.401123 731.533569,626.312622 731.533569,615.238037 
	C726.467041,615.238037 721.865845,615.238037 717.156006,615.238037 
	C716.718811,623.394165 723.843384,617.398804 726.346680,621.026855 
	C726.346680,624.508850 726.346680,628.647217 726.346680,632.785583 
	C726.346680,643.667725 725.095581,645.466980 714.593201,649.059204 
	C712.409302,649.806152 710.100525,650.348572 707.807800,650.588257 
	C698.952637,651.513794 695.060425,647.956970 695.023438,639.045227 
	C694.990540,631.110840 695.016541,623.176270 695.016541,614.940063 
	C690.638062,614.940063 686.817566,614.745850 683.045227,615.085632 
	C682.173157,615.164246 681.465576,617.069214 680.963867,618.901062 
M833.618835,652.988464 
	C839.510315,653.629395 845.458557,655.123413 851.281616,654.735901 
	C863.890076,653.896851 871.179382,646.240356 871.376526,634.973633 
	C871.578125,623.452332 864.815918,615.812256 852.246338,614.288025 
	C847.555298,613.719055 842.580444,614.022339 837.926208,614.919739 
	C827.857666,616.861023 822.450745,622.826416 821.301453,632.153625 
	C820.190918,641.165161 824.085938,648.081177 833.618835,652.988464 
M625.270081,613.908142 
	C623.277832,613.952515 621.274536,613.877319 619.295227,614.061096 
	C608.383484,615.074036 600.592896,621.315857 599.080139,630.175781 
	C597.064392,641.981445 602.855347,651.113831 614.176514,653.983032 
	C629.733582,657.925598 644.224548,652.617920 647.895874,641.628418 
	C648.000549,641.315002 648.034973,640.978760 648.124756,640.659546 
	C652.257446,625.959656 643.160706,614.915894 625.270081,613.908142 
M765.502502,619.653320 
	C772.142578,619.653320 778.782654,619.653320 785.695801,619.653320 
	C785.695801,617.895142 785.695801,616.553589 785.695801,614.696655 
	C776.509033,614.696655 767.613098,614.696655 758.349487,614.696655 
	C758.349487,610.061829 758.349487,605.939209 758.349487,601.296143 
	C756.397583,601.442810 754.882324,601.556702 753.031555,601.695740 
	C753.031555,606.349609 753.031555,610.454163 753.031555,615.055298 
	C749.443542,615.055298 746.208923,615.055298 742.547974,615.055298 
	C742.906250,616.974792 743.155945,618.312561 743.445496,619.864014 
	C746.842285,619.864014 749.791748,619.864014 752.489136,619.864014 
	C752.821411,620.304199 753.008484,620.436401 753.009827,620.570374 
	C753.080627,627.563232 753.076599,634.557373 753.208313,641.548950 
	C753.353271,649.239807 756.254578,652.838074 763.806152,654.376038 
	C771.706055,655.984924 779.370178,654.966370 786.702759,651.594421 
	C787.149841,651.388855 787.528198,651.033936 788.034973,650.681458 
	C786.990173,649.250854 786.154236,648.106201 785.318298,646.961609 
	C785.260864,647.503845 785.203430,648.046143 785.145996,648.588440 
	C778.635925,649.073181 772.129272,649.848511 765.614319,649.927124 
	C762.046997,649.970154 758.968201,647.874512 758.836731,643.906189 
	C758.574219,635.985291 758.758911,628.049683 758.758911,619.653320 
	C760.914001,619.653320 762.708313,619.653320 765.502502,619.653320 
M820.226807,539.694946 
	C825.953003,534.711426 832.483521,533.538330 839.781189,535.970581 
	C840.301758,534.293701 840.720520,532.944641 841.589355,530.145630 
	C836.403809,530.388000 831.838196,529.811584 827.798035,531.008667 
	C823.616638,532.247498 819.945129,535.207275 816.050720,537.411499 
	C815.917908,535.333679 815.785156,533.255859 815.658997,531.282227 
	C810.627930,531.282227 806.050415,531.282227 801.339172,531.282227 
	C801.162048,539.356323 808.155273,533.429077 810.470703,536.717041 
	C810.470703,545.817749 810.470703,555.239502 810.470703,564.620789 
	C801.393677,566.266846 801.393677,566.266846 801.951965,569.779785 
	C809.866699,569.779785 817.791077,569.779785 826.078796,569.779785 
	C825.870178,568.120850 825.699158,566.760620 825.486572,565.069885 
	C822.149719,565.069885 819.224548,565.069885 815.907227,565.069885 
	C815.907227,559.563965 816.134460,554.423828 815.832703,549.314941 
	C815.606750,545.490051 816.585510,542.482910 820.226807,539.694946 
M627.756165,696.276062 
	C623.348450,696.823120 618.600403,695.052368 614.515503,698.589478 
	C616.533813,698.885925 618.552124,699.182312 620.626465,699.486938 
	C620.626465,707.330383 620.626465,714.877686 620.626465,723.371033 
	C618.837830,721.740967 617.619446,720.727478 616.511292,719.604980 
	C609.612854,712.617065 602.776794,705.567139 595.840881,698.616760 
	C592.450378,695.219238 586.358459,695.225464 584.155762,698.628174 
	C586.123291,698.956177 588.013428,699.271301 589.893555,699.584778 
	C589.893555,708.155579 589.893555,716.398438 589.893555,724.414612 
	C587.616272,725.176086 585.750305,725.800049 583.884399,726.423950 
	C584.023193,726.741943 584.161926,727.059937 584.300659,727.377930 
	C589.480652,727.377930 594.660583,727.377930 599.840576,727.377930 
	C599.878906,726.898315 599.917297,726.418701 599.955627,725.939087 
	C598.650146,725.672974 597.273376,725.580688 596.062378,725.084167 
	C595.138489,724.705383 593.740356,723.831482 593.723145,723.148254 
	C593.549377,716.271912 593.617371,709.389404 593.617371,701.203003 
	C595.873413,703.235474 597.103088,704.240479 598.215027,705.362061 
	C604.894104,712.098755 611.491150,718.918213 618.255798,725.567322 
	C619.534546,726.824158 621.443848,727.439514 624.098633,728.934570 
	C624.098633,718.069763 624.098633,708.808228 624.098633,699.365845 
	C626.022522,699.216797 627.483215,699.103699 628.943787,698.990540 
	C628.815430,698.098083 628.687073,697.205627 627.756165,696.276062 
M687.185059,709.136841 
	C687.056702,707.820129 686.967224,706.498169 686.792725,705.187622 
	C686.210083,700.810608 687.666077,698.617371 692.498901,699.190247 
	C695.453430,699.540466 698.489136,699.371582 701.478210,699.226685 
	C705.812378,699.016418 710.006714,698.779175 709.579346,705.102295 
	C709.563904,705.330566 710.291809,705.609131 711.380615,706.337280 
	C711.380615,702.867371 711.380615,699.945923 711.380615,696.974182 
	C704.369324,695.252258 679.677673,695.980957 677.308105,698.018311 
	C683.598999,700.427734 683.599060,700.427734 683.599609,707.784851 
	C683.599854,711.113892 683.436951,714.452881 683.640381,717.769470 
	C683.902039,722.035339 683.919922,725.874634 677.983582,725.640930 
	C677.701782,725.629944 677.382019,726.580872 676.738403,727.652466 
	C688.846191,727.652466 700.339417,727.652466 712.356750,727.652466 
	C711.717957,724.338867 713.581177,720.943054 710.205811,716.796631 
	C709.844177,719.480225 709.992188,721.041260 709.378052,722.197388 
	C708.753479,723.373047 707.417297,724.915649 706.324402,724.972046 
	C700.846130,725.254456 695.337708,725.253662 689.859558,724.970764 
	C688.802795,724.916199 687.350952,723.324158 686.946533,722.144714 
	C686.435059,720.653015 686.931946,718.846008 686.775330,717.195740 
	C686.475647,714.036560 687.597046,712.604675 690.964844,712.817383 
	C694.445557,713.037170 697.957397,712.945862 701.444153,712.767517 
	C702.367920,712.720276 703.249756,711.851929 704.150818,711.360596 
	C704.009521,710.815369 703.868225,710.270203 703.726929,709.724976 
	C698.454346,709.724976 693.181763,709.724976 687.185059,709.136841 
M671.955688,648.914307 
	C667.930176,648.421082 666.912231,645.705688 666.914978,642.174438 
	C666.922485,632.363525 666.898560,622.552673 666.890564,612.741760 
	C666.886536,607.835510 666.889893,602.929260 666.889893,598.122009 
	C653.692810,596.643127 652.318115,597.030945 652.877380,601.986877 
	C655.614319,602.125122 658.380615,602.264832 661.704163,602.432739 
	C661.704163,604.486267 661.699890,606.270630 661.704895,608.054932 
	C661.737976,619.860657 661.626953,631.669250 661.864746,643.470886 
	C661.997620,650.066284 664.912231,653.166321 670.974365,653.848267 
	C673.220947,654.101013 675.519775,653.889099 677.926392,653.889099 
	C677.926392,652.146423 677.926392,650.700989 677.926392,648.963196 
	C676.080078,648.963196 674.434509,648.963196 671.955688,648.914307 
M556.871399,697.500488 
	C551.091309,696.984924 545.318359,696.334778 539.527283,696.024841 
	C537.422424,695.912231 535.217346,696.408936 533.158386,696.985840 
	C529.806030,697.925354 526.910400,699.599182 526.709229,703.614014 
	C526.506653,707.658569 529.223999,709.627747 532.533264,710.755432 
	C535.508240,711.769104 538.636353,712.330322 541.690735,713.115112 
	C545.221863,714.022339 548.884216,714.627502 552.211060,716.026367 
	C553.711182,716.657043 555.463318,718.926453 555.408997,720.389526 
	C555.354126,721.865356 553.281067,724.409302 551.956665,724.499756 
	C545.753174,724.923462 539.389038,725.333496 533.327271,724.304688 
	C531.008789,723.911255 529.343872,719.667358 526.967224,716.653259 
	C526.967224,720.457703 526.967224,724.122986 526.967224,726.992676 
	C529.400818,727.171326 531.459717,727.037781 533.366638,727.513550 
	C540.321716,729.248718 547.335083,729.670471 553.888000,726.691040 
	C556.130615,725.671448 558.502197,722.465332 558.671875,720.104187 
	C558.819397,718.052429 556.373535,715.108459 554.293640,713.782349 
	C551.738403,712.153198 548.388794,711.737854 545.354065,710.900940 
	C541.199768,709.755188 536.874695,709.073181 532.891357,707.508728 
	C529.248779,706.078125 529.015503,702.662048 531.930481,700.529053 
	C538.126160,695.995605 551.229065,699.034546 554.583496,705.720947 
	C554.775696,706.103943 555.701416,706.119019 556.977844,706.525940 
	C556.977844,703.482971 556.977844,700.876892 556.871399,697.500488 
M806.907227,632.500122 
	C806.907227,626.734009 806.907227,620.967834 806.907227,615.272705 
	C801.653503,615.272705 797.066284,615.272705 792.222595,615.272705 
	C792.396423,622.882935 798.981262,617.741699 801.465210,620.543152 
	C801.465210,629.815796 801.465210,639.242310 801.465210,648.627991 
	C792.373230,650.248169 792.373230,650.248169 792.974609,653.808899 
	C800.564758,653.808899 808.168091,653.808899 816.121216,653.808899 
	C815.955383,652.180054 815.816101,650.812134 815.648438,649.165466 
	C812.651062,649.165466 810.038513,649.165466 806.907227,649.165466 
	C806.907227,643.733948 806.907227,638.616089 806.907227,632.500122 
M668.232544,545.510864 
	C668.232544,540.744568 668.232544,535.978271 668.232544,531.141846 
	C663.219421,531.141846 658.769714,531.141846 653.941284,531.141846 
	C654.071777,532.708252 654.183533,534.050049 654.319275,535.679016 
	C657.341125,535.679016 659.959595,535.679016 662.691650,535.679016 
	C662.691650,545.698120 662.691650,555.387878 662.691650,565.380493 
	C659.699341,565.380493 657.076294,565.380493 654.229248,565.380493 
	C654.229248,567.045654 654.229248,568.400818 654.229248,569.753967 
	C662.104187,569.753967 669.688721,569.753967 677.548096,569.753967 
	C677.848938,561.596130 670.571045,567.545044 668.232544,563.974304 
	C668.232544,558.476807 668.232544,552.492371 668.232544,545.510864 
M657.242065,698.786743 
	C663.633789,699.108826 668.713745,701.287231 669.748474,709.190552 
	C670.205322,708.847412 670.662170,708.504211 671.119019,708.161072 
	C671.119019,704.320679 671.119019,700.480286 671.119019,697.823120 
	C668.416687,697.569824 666.323486,697.193665 664.233643,697.211426 
	C657.870850,697.265442 651.293884,696.511047 645.205200,697.876587 
	C638.539062,699.371643 635.087402,705.514465 635.214539,712.334473 
	C635.341125,719.127869 638.448303,724.126160 644.813965,726.765991 
	C651.231323,729.427185 657.889038,729.748718 664.220825,726.904114 
	C667.185913,725.571960 669.525391,722.846985 672.148376,720.753296 
	C671.780518,720.261292 671.412659,719.769287 671.044800,719.277222 
	C670.196838,719.570312 669.049683,719.607483 668.546814,720.195618 
	C662.968201,726.719482 655.853210,726.743347 648.419373,724.917542 
	C641.915283,723.320068 638.702087,718.874695 638.761230,712.197571 
	C638.821777,705.368591 641.937256,701.068604 648.430847,699.477722 
	C650.975891,698.854187 653.701233,698.966187 657.242065,698.786743 
M765.151978,707.709534 
	C765.980103,703.866516 764.723511,700.832275 761.542969,698.592346 
	C756.117065,694.770874 744.860840,694.877747 739.741211,698.965271 
	C737.339478,700.882751 735.075867,703.121216 736.696411,706.894409 
	C737.446960,706.670715 738.233215,706.633423 738.306030,706.386230 
	C740.576965,698.670227 746.700378,698.332642 753.093506,698.715881 
	C756.799500,698.937927 760.668274,699.396606 761.939331,703.754944 
	C763.183411,708.020752 760.513611,710.855591 757.422607,712.935791 
	C751.772949,716.737915 745.867859,720.159851 740.081970,723.760620 
	C738.655823,724.648071 737.278137,725.613464 735.878174,726.543030 
	C736.026489,726.905640 736.174866,727.268188 736.323181,727.630737 
	C746.162537,727.630737 756.001831,727.630737 766.561218,727.630737 
	C766.419800,724.454773 766.281189,721.342224 766.142639,718.229675 
	C765.555969,718.231140 764.969299,718.232666 764.382629,718.234192 
	C764.063843,720.386169 763.745056,722.538086 763.416016,724.758972 
	C757.309937,724.758972 751.496887,724.758972 746.351807,724.758972 
	C752.448181,719.401184 758.701538,713.905396 765.151978,707.709534 
M805.599365,713.268005 
	C805.123291,703.561584 800.390747,697.527405 792.146790,696.115540 
	C783.799316,694.685974 775.823303,698.932556 773.092102,706.260681 
	C769.627258,715.557434 774.519836,725.369690 783.928528,727.993591 
	C794.422974,730.920288 803.294067,725.197937 805.599365,713.268005 
M843.428162,719.675293 
	C843.870300,718.426392 844.515198,717.209839 844.720581,715.923157 
	C845.790466,709.218506 844.398560,703.249756 838.590088,699.149353 
	C832.630859,694.942444 826.127991,694.659668 819.760254,698.069275 
	C813.537231,701.401489 811.155029,707.030701 811.703979,713.930237 
	C812.263184,720.959412 816.858582,726.281860 823.764709,728.078064 
	C831.490784,730.087463 838.285889,727.370728 843.428162,719.675293 
M575.358521,725.066223 
	C574.736450,723.539673 573.654053,722.035706 573.577942,720.482422 
	C573.342529,715.674377 573.826050,710.817200 573.394592,706.036560 
	C572.964111,701.267212 574.094055,698.423340 579.401733,698.554016 
	C579.518860,698.556885 579.649292,698.024597 579.762024,697.736816 
	C575.731384,695.245300 565.981995,695.656982 563.901367,698.687134 
	C565.944153,698.946716 567.831726,699.186584 569.838013,699.441528 
	C569.838013,708.060120 569.838013,716.416077 569.838013,724.430603 
	C567.466919,725.176147 565.602600,725.762329 563.738281,726.348511 
	C563.870239,726.723083 564.002197,727.097717 564.134155,727.472290 
	C569.346619,727.472290 574.559143,727.472290 579.771606,727.472290 
	C579.834961,726.993408 579.898376,726.514526 579.961731,726.035645 
	C578.720703,725.745300 577.479614,725.454956 575.358521,725.066223 
M667.463623,516.081238 
	C664.579773,514.864929 661.924988,515.250854 661.077820,518.435791 
	C660.669373,519.971252 661.468628,522.911621 662.610474,523.505371 
	C664.085815,524.272583 666.971436,524.006042 668.317139,522.971436 
	C670.629211,521.193909 670.156128,518.600403 667.463623,516.081238 
M804.871948,599.698486 
	C800.157349,599.934631 797.669006,602.699463 799.630066,605.844055 
	C800.427307,607.122498 802.456787,608.251343 803.952576,608.286011 
	C805.227478,608.315552 807.644348,606.641846 807.615173,605.787903 
	C807.547668,603.810669 806.304932,601.873657 804.871948,599.698486 
z"/>
<path fill="#91CA96" opacity="1.000000" stroke="none" 
	d="
M340.109406,677.675049 
	C335.419159,678.021423 330.728943,678.367798 325.528870,678.468567 
	C320.379791,670.210754 315.792755,662.167114 311.017609,654.236694 
	C310.558105,653.473511 308.560028,652.761047 307.903351,653.132751 
	C303.239105,655.773132 298.738220,658.702087 294.185333,661.539124 
	C294.155609,662.253479 294.125916,662.967834 294.096191,663.682190 
	C302.749542,668.356567 311.402893,673.031006 320.056244,677.705444 
	C314.578339,677.709351 309.079773,677.984070 303.633789,677.569031 
	C301.749359,677.425415 299.314240,676.003296 298.301666,674.417419 
	C294.212769,668.013428 290.580811,661.317688 286.614441,654.336853 
	C291.941650,650.500000 297.339996,646.889771 302.969055,643.684814 
	C305.627289,642.171204 306.317139,640.726013 305.423553,637.727905 
	C300.745300,622.031677 298.209259,605.957397 297.779968,589.582214 
	C297.695953,586.377747 296.538269,585.210938 293.313263,585.253723 
	C282.828613,585.392883 272.340942,585.304321 261.854431,585.304504 
	C253.877243,585.304626 253.877243,585.305359 253.784531,593.160156 
	C253.557373,592.927002 253.245178,592.733337 253.115646,592.454773 
	C250.656662,587.166931 246.155869,581.787598 246.360657,576.596252 
	C246.563370,571.458008 251.518784,566.507202 254.677368,561.666748 
	C254.595490,564.325562 254.280334,566.801636 253.843887,569.256104 
	C253.093063,573.478333 254.410339,575.206543 259.070770,575.067810 
	C269.885223,574.746033 280.722870,574.737671 291.536469,575.073425 
	C296.106964,575.215332 297.672882,573.694824 297.802826,569.251770 
	C298.267181,553.375305 300.868378,537.801697 305.418671,522.589844 
	C306.317291,519.585693 305.599213,518.244751 302.947357,516.662354 
	C297.411346,513.358887 292.200378,509.510712 286.855896,505.886322 
	C290.746887,498.948486 294.525482,491.942871 298.631348,485.134644 
	C299.381042,483.891479 301.431671,482.837555 302.938751,482.756622 
	C307.735718,482.498901 312.559540,482.741516 317.534302,483.229675 
	C309.644043,488.015778 300.766418,491.051666 293.698517,498.481995 
	C299.260864,502.024597 304.331909,505.254272 309.310028,508.424805 
	C313.713257,500.986603 317.675049,494.329041 321.597015,487.648071 
	C322.835022,485.539124 323.966400,483.367615 325.146606,481.224701 
	C329.555481,481.747284 333.964355,482.269897 338.603088,483.256378 
	C330.485992,491.988495 324.082214,501.433685 320.106232,513.998657 
	C329.587646,515.951172 338.325867,517.702454 347.039856,519.566772 
	C351.007202,520.415588 352.387756,519.021545 352.329437,514.952942 
	C352.172028,503.976044 352.353271,492.994354 352.400146,482.014557 
	C355.610352,482.149902 358.820526,482.285217 362.515198,482.720520 
	C362.999634,495.201843 362.999634,507.383179 362.999634,520.902710 
	C372.839020,518.670044 381.504883,516.638855 390.203003,514.757019 
	C394.620667,513.801208 395.160461,511.355316 392.911987,508.009430 
	C387.303345,499.663147 381.549042,491.414764 375.853180,483.127075 
	C380.116882,482.854706 384.380554,482.582336 389.295471,482.399780 
	C395.161804,490.867157 400.376923,499.244720 406.025299,508.318268 
	C410.905060,505.178223 415.954651,501.928894 421.747803,498.201050 
	C419.131195,496.193390 417.460968,494.601288 415.519104,493.479309 
	C409.362213,489.922058 403.103882,486.540344 396.884796,483.090759 
	C402.191925,482.945282 407.507172,482.589691 412.800720,482.794800 
	C414.210297,482.849396 416.035278,484.328613 416.845001,485.656494 
	C420.743011,492.049347 424.358917,498.614197 427.963623,505.779755 
	C422.574524,509.903748 417.184235,513.211975 412.094238,516.931213 
	C410.739441,517.921204 409.237488,520.472839 409.611359,521.796814 
	C414.110229,537.728943 417.019928,553.876953 417.252655,570.460693 
	C417.299255,573.784485 418.747528,575.073364 422.184052,575.024780 
	C433.837250,574.860107 445.494873,574.891235 457.149261,575.006714 
	C460.550995,575.040344 462.131866,574.212036 461.319855,570.406372 
	C460.809601,568.014893 461.073792,565.458191 460.990540,562.975586 
	C463.739136,567.423889 466.619171,571.800171 469.129150,576.379272 
	C469.652191,577.333496 469.127045,579.200623 468.534485,580.367554 
	C466.301086,584.765991 463.840576,589.049072 461.181763,593.234619 
	C461.898193,585.309143 461.898193,585.306274 453.896973,585.304871 
	C443.407440,585.303101 432.916687,585.395874 422.429016,585.257202 
	C418.914001,585.210693 417.205963,586.322937 417.188690,590.055542 
	C417.112610,606.486267 414.107025,622.473816 409.488647,638.181030 
	C408.742889,640.717346 409.395081,642.035767 411.678986,643.394226 
	C417.521423,646.869202 423.161530,650.684387 428.882538,654.363525 
	C425.185242,660.574524 421.251709,666.660950 417.883759,673.045654 
	C416.017181,676.584229 413.828339,678.107788 409.780304,677.804871 
	C405.177399,677.460449 400.525452,677.771667 395.656982,677.499878 
	C404.641083,673.564270 413.195831,668.817261 421.714935,662.003601 
	C415.860229,658.301514 410.798889,655.101074 406.277771,652.242310 
	C400.260773,661.300354 394.731415,669.624390 389.202026,677.948425 
	C384.765778,677.878174 380.329468,677.807861 375.561768,677.439087 
	C384.527039,669.133545 390.336456,658.901672 394.913788,647.101135 
	C384.248444,643.899780 374.274750,640.545532 362.837189,640.935059 
	C362.837189,653.716858 362.837189,665.844482 362.837189,677.972046 
	C359.654663,677.947327 356.472107,677.922668 352.778503,677.517090 
	C352.264252,666.979492 351.988342,656.812561 352.372284,646.670532 
	C352.566162,641.549072 350.565338,640.013916 346.027893,640.969727 
	C338.716156,642.510010 331.453369,644.281555 324.147827,645.852783 
	C320.690643,646.596436 320.508423,648.302429 321.795258,651.250305 
	C326.173309,661.279541 331.947205,670.291931 340.109406,677.675049 
M406.832764,590.585815 
	C406.731049,589.006897 406.629333,587.428040 406.520477,585.738464 
	C391.768890,585.738464 377.569366,585.738464 362.968719,585.738464 
	C362.968719,599.792786 362.880127,613.421570 363.141357,627.043640 
	C363.161652,628.102661 365.504211,629.727234 366.988098,630.039185 
	C372.502075,631.198425 378.152405,631.708740 383.666901,632.865906 
	C388.625275,633.906311 393.472656,635.475769 398.539734,636.858459 
	C403.619354,621.862915 405.696381,606.763489 406.832764,590.585815 
M308.950378,599.358704 
	C310.130646,612.097717 312.335266,624.613708 316.268311,635.946838 
	C327.841797,633.892761 338.775360,632.055481 349.637848,629.865479 
	C350.727631,629.645752 352.109467,627.299133 352.131744,625.919800 
	C352.328247,613.761292 352.191772,601.597900 352.287994,589.436951 
	C352.311981,586.404968 351.059296,585.278442 348.133362,585.292664 
	C335.971985,585.351868 323.810150,585.342224 311.648621,585.302002 
	C309.068604,585.293457 308.043091,586.345825 308.310211,588.954834 
	C308.632141,592.099487 308.727203,595.267395 308.950378,599.358704 
M397.420410,574.964111 
	C398.584656,574.963928 399.769135,574.823242 400.909607,574.987854 
	C405.813812,575.695618 407.490143,573.623413 406.831360,568.818481 
	C406.041779,563.059326 405.959747,557.189331 404.949738,551.477295 
	C403.312256,542.216431 401.168732,533.045044 399.231049,523.798645 
	C397.431641,523.952820 396.607574,523.944153 395.817352,524.103333 
	C385.918304,526.097778 376.051331,528.269043 366.112640,530.038452 
	C363.028107,530.587646 362.943054,532.296692 362.946747,534.583496 
	C362.966064,546.558350 363.065063,558.534790 362.886597,570.506958 
	C362.833832,574.047729 364.084961,575.084717 367.501190,575.022400 
	C377.144348,574.846436 386.792847,574.962891 397.420410,574.964111 
M339.484985,574.964111 
	C342.318146,574.961975 345.156067,574.856567 347.983124,574.986572 
	C350.842285,575.118103 352.302399,574.202209 352.278656,571.053406 
	C352.185699,558.721558 352.206451,546.388489 352.262817,534.056152 
	C352.275330,531.317993 351.032196,530.460938 348.413635,530.009949 
	C339.421814,528.461304 330.408386,526.897156 321.565247,524.689697 
	C317.593719,523.698364 315.665588,523.958862 315.021271,528.300964 
	C312.925415,542.424927 310.735077,556.535461 308.469727,570.633240 
	C307.919495,574.057251 309.240326,575.052612 312.491119,575.003296 
	C321.155243,574.871521 329.822723,574.961975 339.484985,574.964111 
z"/>
<path fill="#FDFEFD" opacity="1.000000" stroke="none" 
	d="
M253.877411,593.553162 
	C253.877243,585.305359 253.877243,585.304626 261.854431,585.304504 
	C272.340942,585.304321 282.828613,585.392883 293.313263,585.253723 
	C296.538269,585.210938 297.695953,586.377747 297.779968,589.582214 
	C298.209259,605.957397 300.745300,622.031677 305.423553,637.727905 
	C306.317139,640.726013 305.627289,642.171204 302.969055,643.684814 
	C297.339996,646.889771 291.941650,650.500000 286.283569,654.179810 
	C285.917969,654.524170 285.717468,654.632690 285.166260,654.527466 
	C284.645050,654.134033 284.447205,654.095886 284.221985,654.199158 
	C267.213745,637.591370 257.782074,617.179565 253.877411,593.553162 
z"/>
<path fill="#FDFEFD" opacity="1.000000" stroke="none" 
	d="
M429.207886,654.527832 
	C423.161530,650.684387 417.521423,646.869202 411.678986,643.394226 
	C409.395081,642.035767 408.742889,640.717346 409.488647,638.181030 
	C414.107025,622.473816 417.112610,606.486267 417.188690,590.055542 
	C417.205963,586.322937 418.914001,585.210693 422.429016,585.257202 
	C432.916687,585.395874 443.407440,585.303101 453.896973,585.304871 
	C461.898193,585.306274 461.898193,585.309143 460.962402,593.484314 
	C457.556671,616.494080 448.341248,636.306274 432.220001,652.727417 
	C431.453064,653.508606 430.434570,654.042847 429.207886,654.527832 
z"/>
<path fill="#FDFEFE" opacity="1.000000" stroke="none" 
	d="
M460.984985,562.994141 
	C461.073792,565.458191 460.809601,568.014893 461.319855,570.406372 
	C462.131866,574.212036 460.550995,575.040344 457.149261,575.006714 
	C445.494873,574.891235 433.837250,574.860107 422.184052,575.024780 
	C418.747528,575.073364 417.299255,573.784485 417.252655,570.460693 
	C417.019928,553.876953 414.110229,537.728943 409.611359,521.796814 
	C409.237488,520.472839 410.739441,517.921204 412.094238,516.931213 
	C417.184235,513.211975 422.574524,509.903748 428.022064,506.129944 
	C429.711090,506.555634 431.577637,506.949677 432.697021,508.082184 
	C447.086975,522.640991 455.645874,540.291809 459.992981,560.841187 
	C460.366669,562.028198 460.690857,562.527283 461.015045,563.026306 
	C461.015045,563.026306 460.979431,563.012695 460.984985,562.994141 
z"/>
<path fill="#FDFEFE" opacity="1.000000" stroke="none" 
	d="
M286.491333,505.858032 
	C292.200378,509.510712 297.411346,513.358887 302.947357,516.662354 
	C305.599213,518.244751 306.317291,519.585693 305.418671,522.589844 
	C300.868378,537.801697 298.267181,553.375305 297.802826,569.251770 
	C297.672882,573.694824 296.106964,575.215332 291.536469,575.073425 
	C280.722870,574.737671 269.885223,574.746033 259.070770,575.067810 
	C254.410339,575.206543 253.093063,573.478333 253.843887,569.256104 
	C254.280334,566.801636 254.595490,564.325562 254.925232,561.443848 
	C259.052704,541.101990 267.616730,523.416626 281.770325,508.630188 
	C282.930908,507.417664 284.661163,506.750397 286.491333,505.858032 
z"/>
<path fill="#F6F6F8" opacity="1.000000" stroke="none" 
	d="
M575.578003,631.089844 
	C566.450012,629.026855 557.664673,627.212402 548.974365,625.021057 
	C545.310425,624.097168 541.602783,622.804993 538.339905,620.937866 
	C529.806213,616.054626 529.839844,605.738342 538.447632,600.944519 
	C541.712097,599.126465 545.527344,597.830750 549.228149,597.351440 
	C559.907715,595.968323 570.507690,596.243835 580.047729,601.244080 
	C581.756348,599.823425 583.368408,598.483032 585.980957,596.310730 
	C585.980957,603.697693 585.980957,609.313477 585.980957,614.929199 
	C585.563293,615.256042 585.145630,615.582886 584.727966,615.909668 
	C583.678162,614.727173 581.860352,613.628967 581.719543,612.346558 
	C581.258179,608.144653 578.967712,605.547302 575.353394,604.151855 
	C564.866516,600.103088 554.131470,600.133362 543.644958,603.764648 
	C541.236206,604.598755 538.841309,607.827637 538.056458,610.440063 
	C536.905701,614.270142 540.170166,616.781494 543.390930,617.739014 
	C551.329773,620.099121 559.452271,621.833618 567.463013,623.962341 
	C572.106750,625.196411 576.840454,626.322693 581.237793,628.193054 
	C586.344116,630.365112 590.285156,633.903625 590.039734,640.236816 
	C589.799744,646.428040 586.005859,650.106140 580.704773,651.942810 
	C567.028748,656.681335 553.297363,656.418762 539.715332,651.276672 
	C538.802246,650.931030 537.914185,650.519287 537.882141,650.505676 
	C535.863464,652.106934 534.281006,653.362183 531.702515,655.407532 
	C531.702515,647.264282 531.702515,640.960571 531.702515,634.178162 
	C533.010742,634.053894 534.371643,633.924622 535.725952,633.795959 
	C537.140869,645.976501 540.140259,649.352295 552.326965,649.792969 
	C560.694580,650.095581 569.279419,649.574829 577.470947,647.939087 
	C584.138977,646.607483 586.487671,640.168640 582.853271,635.866821 
	C581.127014,633.823486 578.291809,632.716980 575.578003,631.089844 
z"/>
<path fill="#F6F6F8" opacity="1.000000" stroke="none" 
	d="
M583.745056,559.207031 
	C584.613586,552.764404 583.548706,549.995483 577.635376,548.118530 
	C569.596436,545.566772 561.212036,544.122437 553.027771,542.002380 
	C548.544128,540.840881 544.025146,539.599854 539.780457,537.789185 
	C535.065796,535.778076 531.847839,532.166931 532.105469,526.611755 
	C532.358215,521.162231 535.613342,517.670532 540.459656,515.846069 
	C552.978027,511.133362 565.520081,511.581268 577.972046,516.254517 
	C578.901672,516.603394 579.774719,517.103088 579.944519,517.184204 
	C581.779724,515.672363 583.334839,514.391235 585.903198,512.275452 
	C585.903198,519.573303 585.903198,525.162109 585.903198,530.903442 
	C583.263000,531.726257 581.508423,531.673340 581.511780,528.055481 
	C581.515747,523.817627 578.684204,521.383911 575.071716,520.032654 
	C564.726318,516.163147 554.213684,516.327576 543.765198,519.528137 
	C540.463623,520.539490 537.197693,522.834351 538.057312,526.627014 
	C538.654541,529.261841 540.940430,532.751160 543.257629,533.534546 
	C551.241821,536.233826 559.602661,537.796875 567.757263,540.022644 
	C572.702148,541.372314 577.691223,542.780945 582.368530,544.829712 
	C587.214905,546.952515 590.378113,550.727356 590.036804,556.537292 
	C589.700745,562.257996 586.242493,565.878113 581.350342,567.682800 
	C566.491577,573.164001 551.701477,572.201965 537.436523,566.591919 
	C535.976868,567.902405 534.447632,569.275391 532.918335,570.648376 
	C532.538635,570.325928 532.158875,570.003479 531.779175,569.681030 
	C531.779175,563.259033 531.779175,556.837036 531.779175,550.089111 
	C533.095093,549.997192 534.348877,549.909607 535.870789,549.803345 
	C535.972046,551.323059 536.199646,552.617859 536.118164,553.892883 
	C535.808167,558.743896 538.176575,562.070068 542.486450,563.516235 
	C554.143738,567.427856 566.009033,567.612427 577.760681,563.974670 
	C579.946594,563.297974 581.656616,561.083801 583.745056,559.207031 
z"/>
<path fill="#FDFEFE" opacity="1.000000" stroke="none" 
	d="
M375.551910,482.988342 
	C381.549042,491.414764 387.303345,499.663147 392.911987,508.009430 
	C395.160461,511.355316 394.620667,513.801208 390.203003,514.757019 
	C381.504883,516.638855 372.839020,518.670044 362.999634,520.902710 
	C362.999634,507.383179 362.999634,495.201843 362.939087,482.573425 
	C362.878571,480.508057 362.878571,478.889771 362.878571,475.776459 
	C367.605927,478.479095 371.428284,480.664368 375.551910,482.988342 
z"/>
<path fill="#FDFEFD" opacity="1.000000" stroke="none" 
	d="
M352.373291,481.590057 
	C352.353271,492.994354 352.172028,503.976044 352.329437,514.952942 
	C352.387756,519.021545 351.007202,520.415588 347.039856,519.566772 
	C338.325867,517.702454 329.587646,515.951172 320.106232,513.998657 
	C324.082214,501.433685 330.485992,491.988495 338.979553,483.413940 
	C343.032654,480.911163 346.939148,478.714722 351.692200,476.042297 
	C352.004303,478.486359 352.175385,479.825958 352.373291,481.590057 
z"/>
<path fill="#FDFEFE" opacity="1.000000" stroke="none" 
	d="
M362.880554,678.420898 
	C362.837189,665.844482 362.837189,653.716858 362.837189,640.935059 
	C374.274750,640.545532 384.248444,643.899780 394.913788,647.101135 
	C390.336456,658.901672 384.527039,669.133545 375.093109,677.429321 
	C371.261749,679.810791 367.567657,681.903564 363.189575,684.383789 
	C363.063446,681.765930 362.993652,680.317810 362.880554,678.420898 
z"/>
<path fill="#FDFEFE" opacity="1.000000" stroke="none" 
	d="
M340.420746,677.838379 
	C331.947205,670.291931 326.173309,661.279541 321.795258,651.250305 
	C320.508423,648.302429 320.690643,646.596436 324.147827,645.852783 
	C331.453369,644.281555 338.716156,642.510010 346.027893,640.969727 
	C350.565338,640.013916 352.566162,641.549072 352.372284,646.670532 
	C351.988342,656.812561 352.264252,666.979492 352.356567,677.592041 
	C352.305328,679.667114 352.164886,681.286255 351.899628,684.344666 
	C347.683044,681.949707 344.207581,679.975708 340.420746,677.838379 
z"/>
<path fill="#F4F5F7" opacity="1.000000" stroke="none" 
	d="
M937.458435,653.714355 
	C929.596558,653.946289 922.135620,653.946289 914.714355,653.946289 
	C914.299500,649.832092 914.299500,649.832092 923.074585,648.836731 
	C923.074585,640.967590 923.532898,633.018311 922.788513,625.183228 
	C922.572083,622.905640 919.249939,619.756653 916.778015,619.069214 
	C907.831604,616.581177 900.238953,620.513428 893.296875,625.796814 
	C892.552124,626.363586 892.112610,627.763245 892.096375,628.785461 
	C891.991089,635.416809 892.042358,642.050598 892.042358,649.094971 
	C895.113098,649.094971 897.853882,649.094971 900.910278,649.094971 
	C900.910278,650.907166 900.910278,652.303162 900.910278,653.867432 
	C893.299988,653.867432 885.843567,653.867432 878.059143,653.867432 
	C878.059143,652.505310 878.059143,651.117981 878.059143,649.275879 
	C880.964905,649.275879 883.706299,649.275879 886.681763,649.275879 
	C886.681763,639.249573 886.681763,629.668579 886.681763,619.792358 
	C883.852356,619.792358 881.229004,619.792358 878.172424,619.792358 
	C878.007935,618.173889 877.868713,616.803528 877.702576,615.168945 
	C882.540588,615.168945 886.969971,615.168945 891.797729,615.168945 
	C891.934875,617.056519 892.072937,618.957092 892.256165,621.479126 
	C893.688293,620.579834 894.863220,619.872498 896.007263,619.118591 
	C901.721680,615.352478 907.927979,613.359985 914.835693,613.730713 
	C923.978088,614.221375 928.406250,618.643066 928.749512,627.865845 
	C928.879456,631.356445 928.776367,634.855774 928.777649,638.351135 
	C928.778931,641.810669 928.777893,645.270203 928.777893,649.056885 
	C931.813477,649.056885 934.416504,649.056885 937.859375,649.056885 
	C937.859375,650.753845 937.859375,652.118103 937.458435,653.714355 
z"/>
<path fill="#F4F5F7" opacity="1.000000" stroke="none" 
	d="
M706.418945,531.361023 
	C708.554443,530.782593 710.312500,530.214355 712.113953,529.981995 
	C725.910522,528.201843 731.763550,533.328491 731.776917,547.129272 
	C731.782532,552.935608 731.777832,558.741943 731.777832,565.050293 
	C734.791382,565.050293 737.522949,565.050293 740.630676,565.050293 
	C740.760376,566.879944 740.856445,568.235474 740.968933,569.822510 
	C733.002991,569.822510 725.396973,569.822510 717.809937,569.822510 
	C717.211060,565.705444 717.211060,565.705444 726.008667,564.924805 
	C726.008667,556.899048 726.380310,548.809143 725.753784,540.797302 
	C725.592224,538.731262 722.638000,536.036194 720.370605,535.142700 
	C713.838318,532.568481 700.362732,536.669800 695.984009,542.026672 
	C695.423950,542.711792 695.093323,543.787231 695.083252,544.686646 
	C695.008972,551.325867 695.043091,557.966187 695.043091,565.021790 
	C698.056458,565.021790 700.799377,565.021790 703.911316,565.021790 
	C704.011780,566.821472 704.090088,568.223572 704.180115,569.835449 
	C696.361755,569.835449 688.911194,569.835449 681.095337,569.835449 
	C681.095337,568.535461 681.095337,567.166077 681.095337,565.435303 
	C683.917358,565.308594 686.666321,565.185242 689.663452,565.050659 
	C689.663452,555.305542 689.663452,545.721375 689.663452,535.820618 
	C686.889099,535.820618 684.273499,535.820618 681.217407,535.820618 
	C681.023376,534.200562 680.860291,532.839233 680.662415,531.187683 
	C685.503662,531.187683 689.933167,531.187683 694.755432,531.187683 
	C694.906433,533.030701 695.062256,534.932739 695.244202,537.152954 
	C698.917480,535.242493 702.489563,533.384644 706.418945,531.361023 
z"/>
<path fill="#F4F5F7" opacity="1.000000" stroke="none" 
	d="
M763.491577,534.749878 
	C760.703308,535.933594 758.359314,537.052490 756.002136,538.143005 
	C754.142456,539.003296 752.266602,539.828552 749.316650,541.155945 
	C750.611328,534.574707 754.253784,531.891174 758.220520,531.448242 
	C765.208923,530.667908 772.460144,530.409302 779.384583,531.418701 
	C785.888000,532.366760 788.829285,537.332764 788.923584,544.191406 
	C789.015137,550.850830 788.993286,557.511719 789.032959,564.171936 
	C789.033813,564.315369 789.177185,564.457947 789.187256,564.476746 
	C791.751282,567.366150 798.533142,561.685547 798.799316,569.673096 
	C793.986328,569.673096 789.394226,569.673096 784.328369,569.673096 
	C784.047791,568.746887 783.658325,567.460999 783.607178,567.292114 
	C775.551147,568.581116 767.949768,570.579529 760.319824,570.695312 
	C756.377686,570.755127 751.561218,568.331238 748.608704,565.498535 
	C744.226013,561.293640 746.094238,552.955750 752.236023,550.467407 
	C759.038452,547.711487 766.534241,546.597656 773.790466,545.063477 
	C776.968994,544.391479 780.302185,544.450806 783.534668,544.180603 
	C783.194641,536.071472 776.497559,533.005981 763.491577,534.749878 
M754.573608,554.064819 
	C749.717834,559.331970 751.219849,564.476990 758.167114,566.031372 
	C766.582764,567.914246 774.319580,565.546265 781.688599,561.732361 
	C782.721436,561.197815 783.598633,559.494934 783.724670,558.249573 
	C784.021057,555.320862 783.819580,552.341797 783.819580,548.945740 
	C773.735046,549.092834 764.183716,549.349731 754.573608,554.064819 
z"/>
<path fill="#F6F6F8" opacity="1.000000" stroke="none" 
	d="
M641.081665,562.772095 
	C642.139099,563.913818 643.128235,564.968018 644.260132,565.154053 
	C646.186340,565.470703 648.202271,565.241211 650.583252,565.241211 
	C650.700317,566.885193 650.796509,568.235168 650.909180,569.817139 
	C645.910278,569.817139 641.286499,569.817139 636.337830,569.817139 
	C636.135559,568.684204 635.919678,567.474976 635.662476,566.034668 
	C634.981262,566.227417 634.383728,566.432007 633.770691,566.564514 
	C626.855042,568.058960 619.967285,569.717102 613.000793,570.918579 
	C611.002991,571.263123 608.686829,570.539734 606.672974,569.849731 
	C602.499207,568.419739 599.451416,565.810913 598.900208,561.056519 
	C598.336182,556.191284 600.095459,551.928101 604.499329,550.381653 
	C611.315125,547.988464 618.501587,546.585999 625.599915,545.091614 
	C628.807861,544.416321 632.181946,544.530396 635.593384,544.277954 
	C636.648621,540.272095 634.740173,537.979065 631.820312,536.336609 
	C624.764771,532.367920 613.445129,533.957092 607.196899,539.316223 
	C606.085999,540.269043 603.856262,539.917297 601.637207,540.242004 
	C602.982361,534.594788 606.545654,531.842651 610.575439,531.417480 
	C617.570801,530.679688 624.815430,530.437927 631.740906,531.452637 
	C638.104553,532.385010 640.987000,537.239502 641.058777,543.809509 
	C641.126038,549.970398 641.075928,556.132507 641.081665,562.772095 
M635.987061,557.130676 
	C635.987061,554.507446 635.987061,551.884216 635.987061,548.866394 
	C626.401611,549.012634 617.340576,549.457092 608.747131,553.005493 
	C605.588623,554.309753 602.894287,556.811218 604.213989,560.248962 
	C605.111511,562.587219 607.818115,565.152588 610.218140,565.826111 
	C618.690430,568.203491 626.646118,565.548096 634.150269,561.620789 
	C635.123474,561.111511 635.391602,559.254944 635.987061,557.130676 
z"/>
<path fill="#F6F6F8" opacity="1.000000" stroke="none" 
	d="
M953.576965,614.413940 
	C960.993164,614.909668 968.015930,615.675476 975.059631,616.065857 
	C977.169739,616.182861 979.337952,615.251587 981.796509,614.733887 
	C981.796509,619.260925 981.796509,623.371216 981.796509,627.785156 
	C980.549622,627.785156 979.314331,627.785156 978.044495,627.785156 
	C975.817383,620.468933 973.137146,618.403687 964.428406,618.124146 
	C960.973389,618.013306 957.362244,618.166443 954.080078,619.102905 
	C952.295837,619.611938 950.140015,621.869263 949.858215,623.613708 
	C949.638367,624.974243 951.762695,627.698669 953.347046,628.186096 
	C958.718262,629.838745 964.334290,630.676331 969.812622,632.007507 
	C972.860535,632.748108 975.934448,633.592102 978.792725,634.852173 
	C982.722290,636.584534 985.163269,639.636841 985.002869,644.201294 
	C984.841614,648.789856 982.107178,651.606873 978.091431,653.057068 
	C968.364136,656.570007 958.820801,655.672241 949.928345,651.526428 
	C948.146118,652.603516 946.509460,653.592651 944.109375,655.043213 
	C944.109375,649.195984 944.109375,644.629028 944.109375,638.289001 
	C946.160950,640.156006 947.355530,641.117004 948.399841,642.220215 
	C950.453918,644.390076 952.156982,648.154724 954.480774,648.564880 
	C960.891052,649.696045 967.583862,649.932434 974.083496,649.442505 
	C976.165955,649.285522 979.188477,645.943420 979.542480,643.704651 
	C979.803162,642.055847 976.781799,638.919617 974.590027,638.060303 
	C970.475037,636.446899 965.900696,636.007874 961.520020,635.067932 
	C958.761414,634.476013 955.978943,633.968262 953.258179,633.233582 
	C948.430725,631.929993 944.480835,629.463074 944.410950,623.869019 
	C944.340027,618.185242 948.360229,615.865112 953.576965,614.413940 
z"/>
<path fill="#F0F0F3" opacity="1.000000" stroke="none" 
	d="
M680.823120,618.517456 
	C681.465576,617.069214 682.173157,615.164246 683.045227,615.085632 
	C686.817566,614.745850 690.638062,614.940063 695.016541,614.940063 
	C695.016541,623.176270 694.990540,631.110840 695.023438,639.045227 
	C695.060425,647.956970 698.952637,651.513794 707.807800,650.588257 
	C710.100525,650.348572 712.409302,649.806152 714.593201,649.059204 
	C725.095581,645.466980 726.346680,643.667725 726.346680,632.785583 
	C726.346680,628.647217 726.346680,624.508850 726.346680,621.026855 
	C723.843384,617.398804 716.718811,623.394165 717.156006,615.238037 
	C721.865845,615.238037 726.467041,615.238037 731.533569,615.238037 
	C731.533569,626.312622 731.533569,637.401123 731.533569,649.023071 
	C734.703613,649.023071 737.430603,649.023071 740.549866,649.023071 
	C740.680176,650.880188 740.774841,652.229919 740.886536,653.822876 
	C736.044373,653.822876 731.584167,653.822876 726.726990,653.822876 
	C726.508667,651.975647 726.282898,650.065125 726.004700,647.711304 
	C723.437195,649.237732 721.232605,651.237366 718.675049,651.926147 
	C713.305542,653.372131 707.757874,654.926453 702.269958,654.977112 
	C694.563721,655.048218 690.166931,649.930420 689.909729,642.211060 
	C689.787781,638.550598 689.860046,634.883545 689.853455,631.219482 
	C689.846924,627.579224 689.851990,623.938965 689.851990,620.202454 
	C686.691650,619.739746 683.827759,619.320435 680.823120,618.517456 
z"/>
<path fill="#F4F5F7" opacity="1.000000" stroke="none" 
	d="
M833.255249,652.861023 
	C824.085938,648.081177 820.190918,641.165161 821.301453,632.153625 
	C822.450745,622.826416 827.857666,616.861023 837.926208,614.919739 
	C842.580444,614.022339 847.555298,613.719055 852.246338,614.288025 
	C864.815918,615.812256 871.578125,623.452332 871.376526,634.973633 
	C871.179382,646.240356 863.890076,653.896851 851.281616,654.735901 
	C845.458557,655.123413 839.510315,653.629395 833.255249,652.861023 
M828.754333,643.516541 
	C836.039246,652.365540 845.679260,651.597290 855.277466,649.496948 
	C862.709839,647.870544 866.301331,642.306763 866.253662,634.351929 
	C866.206665,626.512634 862.390808,620.955750 855.016846,619.388428 
	C850.710571,618.473083 846.054138,618.138977 841.703369,618.697266 
	C828.165771,620.434448 822.995361,630.094238 828.754333,643.516541 
z"/>
<path fill="#F4F5F7" opacity="1.000000" stroke="none" 
	d="
M625.687256,613.918335 
	C643.160706,614.915894 652.257446,625.959656 648.124756,640.659546 
	C648.034973,640.978760 648.000549,641.315002 647.895874,641.628418 
	C644.224548,652.617920 629.733582,657.925598 614.176514,653.983032 
	C602.855347,651.113831 597.064392,641.981445 599.080139,630.175781 
	C600.592896,621.315857 608.383484,615.074036 619.295227,614.061096 
	C621.274536,613.877319 623.277832,613.952515 625.687256,613.918335 
M640.503174,644.886108 
	C646.764954,635.123901 644.229797,623.773315 634.721680,620.106812 
	C627.484802,617.316223 620.014832,617.400085 612.783081,620.205200 
	C607.350891,622.312317 604.451843,626.585510 603.984436,632.430359 
	C603.490356,638.608582 604.827698,644.051758 610.425720,647.614563 
	C617.696106,652.241760 634.638367,651.916016 640.503174,644.886108 
z"/>
<path fill="#F0F0F3" opacity="1.000000" stroke="none" 
	d="
M765.002563,619.653320 
	C762.708313,619.653320 760.914001,619.653320 758.758911,619.653320 
	C758.758911,628.049683 758.574219,635.985291 758.836731,643.906189 
	C758.968201,647.874512 762.046997,649.970154 765.614319,649.927124 
	C772.129272,649.848511 778.635925,649.073181 785.145996,648.588440 
	C785.203430,648.046143 785.260864,647.503845 785.318298,646.961609 
	C786.154236,648.106201 786.990173,649.250854 788.034973,650.681458 
	C787.528198,651.033936 787.149841,651.388855 786.702759,651.594421 
	C779.370178,654.966370 771.706055,655.984924 763.806152,654.376038 
	C756.254578,652.838074 753.353271,649.239807 753.208313,641.548950 
	C753.076599,634.557373 753.080627,627.563232 753.009827,620.570374 
	C753.008484,620.436401 752.821411,620.304199 752.489136,619.864014 
	C749.791748,619.864014 746.842285,619.864014 743.445496,619.864014 
	C743.155945,618.312561 742.906250,616.974792 742.547974,615.055298 
	C746.208923,615.055298 749.443542,615.055298 753.031555,615.055298 
	C753.031555,610.454163 753.031555,606.349609 753.031555,601.695740 
	C754.882324,601.556702 756.397583,601.442810 758.349487,601.296143 
	C758.349487,605.939209 758.349487,610.061829 758.349487,614.696655 
	C767.613098,614.696655 776.509033,614.696655 785.695801,614.696655 
	C785.695801,616.553589 785.695801,617.895142 785.695801,619.653320 
	C778.782654,619.653320 772.142578,619.653320 765.002563,619.653320 
z"/>
<path fill="#F0F0F3" opacity="1.000000" stroke="none" 
	d="
M819.944885,539.946289 
	C816.585510,542.482910 815.606750,545.490051 815.832703,549.314941 
	C816.134460,554.423828 815.907227,559.563965 815.907227,565.069885 
	C819.224548,565.069885 822.149719,565.069885 825.486572,565.069885 
	C825.699158,566.760620 825.870178,568.120850 826.078796,569.779785 
	C817.791077,569.779785 809.866699,569.779785 801.951965,569.779785 
	C801.393677,566.266846 801.393677,566.266846 810.470703,564.620789 
	C810.470703,555.239502 810.470703,545.817749 810.470703,536.717041 
	C808.155273,533.429077 801.162048,539.356323 801.339172,531.282227 
	C806.050415,531.282227 810.627930,531.282227 815.658997,531.282227 
	C815.785156,533.255859 815.917908,535.333679 816.050659,537.412903 
	C819.945129,535.207275 823.616638,532.247498 827.798035,531.008667 
	C831.838196,529.811584 836.403809,530.388000 841.589355,530.145630 
	C840.720520,532.944641 840.301758,534.293701 839.781189,535.970581 
	C832.483521,533.538330 825.953003,534.711426 819.944885,539.946289 
z"/>
<path fill="#83B88D" opacity="1.000000" stroke="none" 
	d="
M628.157471,696.294617 
	C628.687073,697.205627 628.815430,698.098083 628.943848,698.990540 
	C627.483215,699.103699 626.022522,699.216797 624.098633,699.365845 
	C624.098633,708.808228 624.098633,718.069763 624.098633,728.934570 
	C621.443848,727.439514 619.534546,726.824158 618.255798,725.567322 
	C611.491150,718.918213 604.894104,712.098755 598.215027,705.362061 
	C597.103088,704.240479 595.873413,703.235474 593.617371,701.203003 
	C593.617371,709.389404 593.549377,716.271912 593.723145,723.148254 
	C593.740356,723.831482 595.138489,724.705383 596.062378,725.084167 
	C597.273376,725.580688 598.650146,725.672974 599.955627,725.939087 
	C599.917297,726.418701 599.878906,726.898315 599.840576,727.377930 
	C594.660583,727.377930 589.480652,727.377930 584.300659,727.377930 
	C584.161926,727.059937 584.023193,726.741943 583.884399,726.423950 
	C585.750305,725.800049 587.616272,725.176086 589.893555,724.414612 
	C589.893555,716.398438 589.893555,708.155579 589.893555,699.584778 
	C588.013428,699.271301 586.123291,698.956177 584.155762,698.628174 
	C586.358459,695.225464 592.450378,695.219238 595.840881,698.616760 
	C602.776794,705.567139 609.612854,712.617065 616.511292,719.604980 
	C617.619446,720.727478 618.837830,721.740967 620.626465,723.371033 
	C620.626465,714.877686 620.626465,707.330383 620.626465,699.486938 
	C618.552124,699.182312 616.533813,698.885925 614.515503,698.589478 
	C618.600403,695.052368 623.348450,696.823120 628.157471,696.294617 
z"/>
<path fill="#83B88D" opacity="1.000000" stroke="none" 
	d="
M687.547119,709.430908 
	C693.181763,709.724976 698.454346,709.724976 703.726929,709.724976 
	C703.868225,710.270203 704.009521,710.815369 704.150818,711.360596 
	C703.249756,711.851929 702.367920,712.720276 701.444153,712.767517 
	C697.957397,712.945862 694.445557,713.037170 690.964844,712.817383 
	C687.597046,712.604675 686.475647,714.036560 686.775330,717.195740 
	C686.931946,718.846008 686.435059,720.653015 686.946533,722.144714 
	C687.350952,723.324158 688.802795,724.916199 689.859558,724.970764 
	C695.337708,725.253662 700.846130,725.254456 706.324402,724.972046 
	C707.417297,724.915649 708.753479,723.373047 709.378052,722.197388 
	C709.992188,721.041260 709.844177,719.480225 710.205811,716.796631 
	C713.581177,720.943054 711.717957,724.338867 712.356750,727.652466 
	C700.339417,727.652466 688.846191,727.652466 676.738403,727.652466 
	C677.382019,726.580872 677.701782,725.629944 677.983582,725.640930 
	C683.919922,725.874634 683.902039,722.035339 683.640381,717.769470 
	C683.436951,714.452881 683.599854,711.113892 683.599609,707.784851 
	C683.599060,700.427734 683.598999,700.427734 677.308105,698.018311 
	C679.677673,695.980957 704.369324,695.252258 711.380615,696.974182 
	C711.380615,699.945923 711.380615,702.867371 711.380615,706.337280 
	C710.291809,705.609131 709.563904,705.330566 709.579346,705.102295 
	C710.006714,698.779175 705.812378,699.016418 701.478210,699.226685 
	C698.489136,699.371582 695.453430,699.540466 692.498901,699.190247 
	C687.666077,698.617371 686.210083,700.810608 686.792725,705.187622 
	C686.967224,706.498169 687.056702,707.820129 687.547119,709.430908 
z"/>
<path fill="#F6F6F8" opacity="1.000000" stroke="none" 
	d="
M672.372314,648.938721 
	C674.434509,648.963196 676.080078,648.963196 677.926392,648.963196 
	C677.926392,650.700989 677.926392,652.146423 677.926392,653.889099 
	C675.519775,653.889099 673.220947,654.101013 670.974365,653.848267 
	C664.912231,653.166321 661.997620,650.066284 661.864746,643.470886 
	C661.626953,631.669250 661.737976,619.860657 661.704895,608.054932 
	C661.699890,606.270630 661.704163,604.486267 661.704163,602.432739 
	C658.380615,602.264832 655.614319,602.125122 652.877380,601.986877 
	C652.318115,597.030945 653.692810,596.643127 666.889893,598.122009 
	C666.889893,602.929260 666.886536,607.835510 666.890564,612.741760 
	C666.898560,622.552673 666.922485,632.363525 666.914978,642.174438 
	C666.912231,645.705688 667.930176,648.421082 672.372314,648.938721 
z"/>
<path fill="#85BB8E" opacity="1.000000" stroke="none" 
	d="
M556.924622,697.885620 
	C556.977844,700.876892 556.977844,703.482971 556.977844,706.525940 
	C555.701416,706.119019 554.775696,706.103943 554.583496,705.720947 
	C551.229065,699.034546 538.126160,695.995605 531.930481,700.529053 
	C529.015503,702.662048 529.248779,706.078125 532.891357,707.508728 
	C536.874695,709.073181 541.199768,709.755188 545.354065,710.900940 
	C548.388794,711.737854 551.738403,712.153198 554.293640,713.782349 
	C556.373535,715.108459 558.819397,718.052429 558.671875,720.104187 
	C558.502197,722.465332 556.130615,725.671448 553.888000,726.691040 
	C547.335083,729.670471 540.321716,729.248718 533.366638,727.513550 
	C531.459717,727.037781 529.400818,727.171326 526.967224,726.992676 
	C526.967224,724.122986 526.967224,720.457703 526.967224,716.653259 
	C529.343872,719.667358 531.008789,723.911255 533.327271,724.304688 
	C539.389038,725.333496 545.753174,724.923462 551.956665,724.499756 
	C553.281067,724.409302 555.354126,721.865356 555.408997,720.389526 
	C555.463318,718.926453 553.711182,716.657043 552.211060,716.026367 
	C548.884216,714.627502 545.221863,714.022339 541.690735,713.115112 
	C538.636353,712.330322 535.508240,711.769104 532.533264,710.755432 
	C529.223999,709.627747 526.506653,707.658569 526.709229,703.614014 
	C526.910400,699.599182 529.806030,697.925354 533.158386,696.985840 
	C535.217346,696.408936 537.422424,695.912231 539.527283,696.024841 
	C545.318359,696.334778 551.091309,696.984924 556.924622,697.885620 
z"/>
<path fill="#85BB8E" opacity="1.000000" stroke="none" 
	d="
M877.408997,713.284119 
	C871.505005,716.704468 865.225525,717.726868 858.658203,715.803528 
	C854.210571,714.500916 850.849976,711.887451 850.687622,706.762695 
	C850.527283,701.701111 853.461609,698.560486 857.926514,697.145142 
	C864.895081,694.936157 871.929138,694.810913 877.631714,700.182068 
	C883.169739,705.398254 883.047974,712.140869 880.807678,718.763062 
	C877.474182,728.617371 862.115967,732.385864 854.468018,725.279480 
	C852.916382,723.837769 852.149963,721.551086 851.021545,719.653931 
	C851.376831,719.335693 851.732117,719.017517 852.087402,718.699341 
	C854.835876,720.917114 857.287720,724.204102 860.411072,725.070801 
	C863.979187,726.060913 868.776428,726.044434 871.870422,724.341370 
	C874.868958,722.690857 876.383667,718.344788 878.652832,714.579102 
	C878.699036,713.514709 878.642456,713.053894 878.585815,712.593018 
	C878.193542,712.823364 877.801270,713.053772 877.408997,713.284119 
M857.140015,700.380066 
	C856.071594,702.949768 853.736633,705.842285 854.286560,707.999329 
	C854.850098,710.209656 858.080994,712.939758 860.422791,713.235229 
	C864.666321,713.770508 869.437683,713.528748 873.406677,712.049622 
	C879.633728,709.729187 879.777649,704.644592 874.103027,700.960205 
	C868.977661,697.632385 863.424744,698.003174 857.140015,700.380066 
z"/>
<path fill="#F0F0F3" opacity="1.000000" stroke="none" 
	d="
M806.907227,632.999146 
	C806.907227,638.616089 806.907227,643.733948 806.907227,649.165466 
	C810.038513,649.165466 812.651062,649.165466 815.648438,649.165466 
	C815.816101,650.812134 815.955383,652.180054 816.121216,653.808899 
	C808.168091,653.808899 800.564758,653.808899 792.974609,653.808899 
	C792.373230,650.248169 792.373230,650.248169 801.465210,648.627991 
	C801.465210,639.242310 801.465210,629.815796 801.465210,620.543152 
	C798.981262,617.741699 792.396423,622.882935 792.222595,615.272705 
	C797.066284,615.272705 801.653503,615.272705 806.907227,615.272705 
	C806.907227,620.967834 806.907227,626.734009 806.907227,632.999146 
z"/>
<path fill="#F4F5F7" opacity="1.000000" stroke="none" 
	d="
M668.232544,546.009399 
	C668.232544,552.492371 668.232544,558.476807 668.232544,563.974304 
	C670.571045,567.545044 677.848938,561.596130 677.548096,569.753967 
	C669.688721,569.753967 662.104187,569.753967 654.229248,569.753967 
	C654.229248,568.400818 654.229248,567.045654 654.229248,565.380493 
	C657.076294,565.380493 659.699341,565.380493 662.691650,565.380493 
	C662.691650,555.387878 662.691650,545.698120 662.691650,535.679016 
	C659.959595,535.679016 657.341125,535.679016 654.319275,535.679016 
	C654.183533,534.050049 654.071777,532.708252 653.941284,531.141846 
	C658.769714,531.141846 663.219421,531.141846 668.232544,531.141846 
	C668.232544,535.978271 668.232544,540.744568 668.232544,546.009399 
z"/>
<path fill="#FDFEFD" opacity="1.000000" stroke="none" 
	d="
M324.759277,481.180359 
	C323.966400,483.367615 322.835022,485.539124 321.597015,487.648071 
	C317.675049,494.329041 313.713257,500.986603 309.310028,508.424805 
	C304.331909,505.254272 299.260864,502.024597 293.698517,498.481995 
	C300.766418,491.051666 309.644043,488.015778 317.915283,483.390533 
	C320.213959,482.453674 322.292969,481.794830 324.759277,481.180359 
z"/>
<path fill="#FDFEFD" opacity="1.000000" stroke="none" 
	d="
M389.267273,678.309570 
	C394.731415,669.624390 400.260773,661.300354 406.277771,652.242310 
	C410.798889,655.101074 415.860229,658.301514 421.714935,662.003601 
	C413.195831,668.817261 404.641083,673.564270 395.188110,677.456055 
	C393.082214,678.030457 391.207336,678.350586 389.267273,678.309570 
z"/>
<path fill="#FDFEFD" opacity="1.000000" stroke="none" 
	d="
M396.476868,483.002380 
	C403.103882,486.540344 409.362213,489.922058 415.519104,493.479309 
	C417.460968,494.601288 419.131195,496.193390 421.747803,498.201050 
	C415.954651,501.928894 410.905060,505.178223 406.025299,508.318268 
	C400.376923,499.244720 395.161804,490.867157 389.696686,482.226959 
	C391.654083,482.280884 393.861511,482.597443 396.476868,483.002380 
z"/>
<path fill="#FDFEFD" opacity="1.000000" stroke="none" 
	d="
M320.429199,677.797791 
	C311.402893,673.031006 302.749542,668.356567 294.096191,663.682190 
	C294.125916,662.967834 294.155609,662.253479 294.185333,661.539124 
	C298.738220,658.702087 303.239105,655.773132 307.903351,653.132751 
	C308.560028,652.761047 310.558105,653.473511 311.017609,654.236694 
	C315.792755,662.167114 320.379791,670.210754 325.131836,678.563232 
	C323.763794,678.565674 322.282959,678.227905 320.429199,677.797791 
z"/>
<path fill="#83B88D" opacity="1.000000" stroke="none" 
	d="
M656.793213,698.764893 
	C653.701233,698.966187 650.975891,698.854187 648.430847,699.477722 
	C641.937256,701.068604 638.821777,705.368591 638.761230,712.197571 
	C638.702087,718.874695 641.915283,723.320068 648.419373,724.917542 
	C655.853210,726.743347 662.968201,726.719482 668.546814,720.195618 
	C669.049683,719.607483 670.196838,719.570312 671.044800,719.277222 
	C671.412659,719.769287 671.780518,720.261292 672.148376,720.753296 
	C669.525391,722.846985 667.185913,725.571960 664.220825,726.904114 
	C657.889038,729.748718 651.231323,729.427185 644.813965,726.765991 
	C638.448303,724.126160 635.341125,719.127869 635.214539,712.334473 
	C635.087402,705.514465 638.539062,699.371643 645.205200,697.876587 
	C651.293884,696.511047 657.870850,697.265442 664.233643,697.211426 
	C666.323486,697.193665 668.416687,697.569824 671.119019,697.823120 
	C671.119019,700.480286 671.119019,704.320679 671.119019,708.161072 
	C670.662170,708.504211 670.205322,708.847412 669.748474,709.190552 
	C668.713745,701.287231 663.633789,699.108826 656.793213,698.764893 
z"/>
<path fill="#85BB8E" opacity="1.000000" stroke="none" 
	d="
M765.053467,708.059570 
	C758.701538,713.905396 752.448181,719.401184 746.351807,724.758972 
	C751.496887,724.758972 757.309937,724.758972 763.416016,724.758972 
	C763.745056,722.538086 764.063843,720.386169 764.382629,718.234192 
	C764.969299,718.232666 765.555969,718.231140 766.142639,718.229675 
	C766.281189,721.342224 766.419800,724.454773 766.561218,727.630737 
	C756.001831,727.630737 746.162537,727.630737 736.323181,727.630737 
	C736.174866,727.268188 736.026489,726.905640 735.878174,726.543030 
	C737.278137,725.613464 738.655823,724.648071 740.081970,723.760620 
	C745.867859,720.159851 751.772949,716.737915 757.422607,712.935791 
	C760.513611,710.855591 763.183411,708.020752 761.939331,703.754944 
	C760.668274,699.396606 756.799500,698.937927 753.093506,698.715881 
	C746.700378,698.332642 740.576965,698.670227 738.306030,706.386230 
	C738.233215,706.633423 737.446960,706.670715 736.696411,706.894409 
	C735.075867,703.121216 737.339478,700.882751 739.741211,698.965271 
	C744.860840,694.877747 756.117065,694.770874 761.542969,698.592346 
	C764.723511,700.832275 765.980103,703.866516 765.053467,708.059570 
z"/>
<path fill="#85BB8E" opacity="1.000000" stroke="none" 
	d="
M805.552124,713.671753 
	C803.294067,725.197937 794.422974,730.920288 783.928528,727.993591 
	C774.519836,725.369690 769.627258,715.557434 773.092102,706.260681 
	C775.823303,698.932556 783.799316,694.685974 792.146790,696.115540 
	C800.390747,697.527405 805.123291,703.561584 805.552124,713.671753 
M797.193542,701.088013 
	C796.013123,700.483582 794.888550,699.707520 793.643311,699.302490 
	C785.538574,696.666382 777.511902,700.805603 775.471619,708.600220 
	C773.364685,716.649597 778.248230,724.430420 786.286316,725.830933 
	C792.133850,726.849854 798.134033,724.171021 800.830994,719.337463 
	C803.928711,713.785828 802.741882,706.759399 797.193542,701.088013 
z"/>
<path fill="#85BB8E" opacity="1.000000" stroke="none" 
	d="
M843.251648,720.016479 
	C838.285889,727.370728 831.490784,730.087463 823.764709,728.078064 
	C816.858582,726.281860 812.263184,720.959412 811.703979,713.930237 
	C811.155029,707.030701 813.537231,701.401489 819.760254,698.069275 
	C826.127991,694.659668 832.630859,694.942444 838.590088,699.149353 
	C844.398560,703.249756 845.790466,709.218506 844.720581,715.923157 
	C844.515198,717.209839 843.870300,718.426392 843.251648,720.016479 
M816.323425,705.207703 
	C812.872803,713.484375 815.114868,721.253906 821.902771,724.541992 
	C828.604248,727.788208 836.850830,725.498596 840.253357,719.446960 
	C843.764465,713.202271 842.156982,705.007751 836.648865,701.071899 
	C830.521545,696.693542 822.028625,698.182617 816.323425,705.207703 
z"/>
<path fill="#83B88D" opacity="1.000000" stroke="none" 
	d="
M575.798584,725.115479 
	C577.479614,725.454956 578.720703,725.745300 579.961731,726.035645 
	C579.898376,726.514526 579.834961,726.993408 579.771606,727.472290 
	C574.559143,727.472290 569.346619,727.472290 564.134155,727.472290 
	C564.002197,727.097717 563.870239,726.723083 563.738281,726.348511 
	C565.602600,725.762329 567.466919,725.176147 569.838013,724.430603 
	C569.838013,716.416077 569.838013,708.060120 569.838013,699.441528 
	C567.831726,699.186584 565.944153,698.946716 563.901367,698.687134 
	C565.981995,695.656982 575.731384,695.245300 579.767822,697.739380 
	C579.649292,698.024597 579.518860,698.556885 579.401733,698.554016 
	C574.094055,698.423340 572.964111,701.267212 573.394592,706.036560 
	C573.826050,710.817200 573.342529,715.674377 573.577942,720.482422 
	C573.654053,722.035706 574.736450,723.539673 575.798584,725.115479 
z"/>
<path fill="#F0F0F3" opacity="1.000000" stroke="none" 
	d="
M667.751465,516.299194 
	C670.156128,518.600403 670.629211,521.193909 668.317139,522.971436 
	C666.971436,524.006042 664.085815,524.272583 662.610474,523.505371 
	C661.468628,522.911621 660.669373,519.971252 661.077820,518.435791 
	C661.924988,515.250854 664.579773,514.864929 667.751465,516.299194 
z"/>
<path fill="#F4F5F7" opacity="1.000000" stroke="none" 
	d="
M805.205322,599.809387 
	C806.304932,601.873657 807.547668,603.810669 807.615173,605.787903 
	C807.644348,606.641846 805.227478,608.315552 803.952576,608.286011 
	C802.456787,608.251343 800.427307,607.122498 799.630066,605.844055 
	C797.669006,602.699463 800.157349,599.934631 805.205322,599.809387 
z"/>
<path fill="#91CA96" opacity="1.000000" stroke="none" 
	d="
M461.071045,562.717896 
	C460.690857,562.527283 460.366669,562.028198 460.089417,561.221802 
	C460.466583,561.412842 460.796814,561.911133 461.071045,562.717896 
z"/>
<path fill="#91CA96" opacity="1.000000" stroke="none" 
	d="
M284.233521,654.373291 
	C284.447205,654.095886 284.645050,654.134033 284.828644,654.472839 
	C284.841797,654.632080 284.518738,654.761719 284.518738,654.761719 
	C284.518738,654.761719 284.245056,654.547424 284.233521,654.373291 
z"/>
<path fill="#FDFEFE" opacity="1.000000" stroke="none" 
	d="
M406.824829,591.036011 
	C405.696381,606.763489 403.619354,621.862915 398.539734,636.858459 
	C393.472656,635.475769 388.625275,633.906311 383.666901,632.865906 
	C378.152405,631.708740 372.502075,631.198425 366.988098,630.039185 
	C365.504211,629.727234 363.161652,628.102661 363.141357,627.043640 
	C362.880127,613.421570 362.968719,599.792786 362.968719,585.738464 
	C377.569366,585.738464 391.768890,585.738464 406.520477,585.738464 
	C406.629333,587.428040 406.731049,589.006897 406.824829,591.036011 
z"/>
<path fill="#FDFEFE" opacity="1.000000" stroke="none" 
	d="
M308.935425,598.891968 
	C308.727203,595.267395 308.632141,592.099487 308.310211,588.954834 
	C308.043091,586.345825 309.068604,585.293457 311.648621,585.302002 
	C323.810150,585.342224 335.971985,585.351868 348.133362,585.292664 
	C351.059296,585.278442 352.311981,586.404968 352.287994,589.436951 
	C352.191772,601.597900 352.328247,613.761292 352.131744,625.919800 
	C352.109467,627.299133 350.727631,629.645752 349.637848,629.865479 
	C338.775360,632.055481 327.841797,633.892761 316.268311,635.946838 
	C312.335266,624.613708 310.130646,612.097717 308.935425,598.891968 
z"/>
<path fill="#FEFEFE" opacity="1.000000" stroke="none" 
	d="
M396.929810,574.964111 
	C386.792847,574.962891 377.144348,574.846436 367.501190,575.022400 
	C364.084961,575.084717 362.833832,574.047729 362.886597,570.506958 
	C363.065063,558.534790 362.966064,546.558350 362.946747,534.583496 
	C362.943054,532.296692 363.028107,530.587646 366.112640,530.038452 
	C376.051331,528.269043 385.918304,526.097778 395.817352,524.103333 
	C396.607574,523.944153 397.431641,523.952820 399.231049,523.798645 
	C401.168732,533.045044 403.312256,542.216431 404.949738,551.477295 
	C405.959747,557.189331 406.041779,563.059326 406.831360,568.818481 
	C407.490143,573.623413 405.813812,575.695618 400.909607,574.987854 
	C399.769135,574.823242 398.584656,574.963928 396.929810,574.964111 
z"/>
<path fill="#FEFEFE" opacity="1.000000" stroke="none" 
	d="
M338.986938,574.964111 
	C329.822723,574.961975 321.155243,574.871521 312.491119,575.003296 
	C309.240326,575.052612 307.919495,574.057251 308.469727,570.633240 
	C310.735077,556.535461 312.925415,542.424927 315.021271,528.300964 
	C315.665588,523.958862 317.593719,523.698364 321.565247,524.689697 
	C330.408386,526.897156 339.421814,528.461304 348.413635,530.009949 
	C351.032196,530.460938 352.275330,531.317993 352.262817,534.056152 
	C352.206451,546.388489 352.185699,558.721558 352.278656,571.053406 
	C352.302399,574.202209 350.842285,575.118103 347.983124,574.986572 
	C345.156067,574.856567 342.318146,574.961975 338.986938,574.964111 
z"/>
<path fill="#2E365C" opacity="1.000000" stroke="none" 
	d="
M754.910156,553.860596 
	C764.183716,549.349731 773.735046,549.092834 783.819580,548.945740 
	C783.819580,552.341797 784.021057,555.320862 783.724670,558.249573 
	C783.598633,559.494934 782.721436,561.197815 781.688599,561.732361 
	C774.319580,565.546265 766.582764,567.914246 758.167114,566.031372 
	C751.219849,564.476990 749.717834,559.331970 754.910156,553.860596 
z"/>
<path fill="#2E365C" opacity="1.000000" stroke="none" 
	d="
M635.986694,557.576538 
	C635.391602,559.254944 635.123474,561.111511 634.150269,561.620789 
	C626.646118,565.548096 618.690430,568.203491 610.218140,565.826111 
	C607.818115,565.152588 605.111511,562.587219 604.213989,560.248962 
	C602.894287,556.811218 605.588623,554.309753 608.747131,553.005493 
	C617.340576,549.457092 626.401611,549.012634 635.987061,548.866394 
	C635.987061,551.884216 635.987061,554.507446 635.986694,557.576538 
z"/>
<path fill="#2E365C" opacity="1.000000" stroke="none" 
	d="
M828.527771,643.208862 
	C822.995361,630.094238 828.165771,620.434448 841.703369,618.697266 
	C846.054138,618.138977 850.710571,618.473083 855.016846,619.388428 
	C862.390808,620.955750 866.206665,626.512634 866.253662,634.351929 
	C866.301331,642.306763 862.709839,647.870544 855.277466,649.496948 
	C845.679260,651.597290 836.039246,652.365540 828.527771,643.208862 
z"/>
<path fill="#2E365C" opacity="1.000000" stroke="none" 
	d="
M640.245422,645.161743 
	C634.638367,651.916016 617.696106,652.241760 610.425720,647.614563 
	C604.827698,644.051758 603.490356,638.608582 603.984436,632.430359 
	C604.451843,626.585510 607.350891,622.312317 612.783081,620.205200 
	C620.014832,617.400085 627.484802,617.316223 634.721680,620.106812 
	C644.229797,623.773315 646.764954,635.123901 640.245422,645.161743 
z"/>
<path fill="#2D355A" opacity="1.000000" stroke="none" 
	d="
M857.509155,700.195618 
	C863.424744,698.003174 868.977661,697.632385 874.103027,700.960205 
	C879.777649,704.644592 879.633728,709.729187 873.406677,712.049622 
	C869.437683,713.528748 864.666321,713.770508 860.422791,713.235229 
	C858.080994,712.939758 854.850098,710.209656 854.286560,707.999329 
	C853.736633,705.842285 856.071594,702.949768 857.509155,700.195618 
z"/>
<path fill="#2B3359" opacity="1.000000" stroke="none" 
	d="
M877.683105,713.583618 
	C877.801270,713.053772 878.193542,712.823364 878.585815,712.593018 
	C878.642456,713.053894 878.699036,713.514709 878.654663,714.204773 
	C878.354919,714.250305 878.156067,714.066711 877.683105,713.583618 
z"/>
<path fill="#2D355A" opacity="1.000000" stroke="none" 
	d="
M797.509033,701.313477 
	C802.741882,706.759399 803.928711,713.785828 800.830994,719.337463 
	C798.134033,724.171021 792.133850,726.849854 786.286316,725.830933 
	C778.248230,724.430420 773.364685,716.649597 775.471619,708.600220 
	C777.511902,700.805603 785.538574,696.666382 793.643311,699.302490 
	C794.888550,699.707520 796.013123,700.483582 797.509033,701.313477 
z"/>
<path fill="#2D355A" opacity="1.000000" stroke="none" 
	d="
M816.542114,704.883301 
	C822.028625,698.182617 830.521545,696.693542 836.648865,701.071899 
	C842.156982,705.007751 843.764465,713.202271 840.253357,719.446960 
	C836.850830,725.498596 828.604248,727.788208 821.902771,724.541992 
	C815.114868,721.253906 812.872803,713.484375 816.542114,704.883301 
z"/>
</svg>